<svg width="144" height="250" fill="none" xmlns="http://www.w3.org/2000/svg"><path d="M30.3 205.4l-.1-.1.1-.1h.7l.2-.2.1-.6v-5.6l-.1-.5-.2-.3h-.7v-.1h5l.2.1v1.5l-.1.1-.1-.1c-.2-.9-.7-1.3-1.6-1.3h-.5l-.6.1-.2.5v5.5l.1.6.4.2.8.1.1.1-.1.1-.7-.1h-2l-.7.1zm4.4-2.6c0-.8-.4-1-1.3-1h-1.5v-.4h1.5c.9 0 1.3-.3 1.3-.9h.2V202.8h-.1-.1zm7.8 2.6c-.2 0-.5-.4-1.1-1.1l-1.8-2.8.9-.2 1.7 2.3c.5.6.8 1 1.2 1.2.4.2.7.4 1 .4l.1.1-.1.1h-1.9zm-2.7-7.6c.7 0 1.2.2 1.6.4.4.3.6.7.6 1.2 0 .4-.2.8-.4 1.2-.3.4-.6.6-1 .8-.5.2-.9.3-1.4.3h-.6v2.7l.1.6.3.2h.5l.1.1-.1.1-.5-.1h-1.8l-.6.1-.1-.1.1-.1h.5l.3-.2.1-.6v-5.6l-.1-.5-.2-.3h-.6-.1l.1-.1H39l.3-.1h.5zm1 2c0-.7-.1-1.1-.4-1.4-.2-.2-.4-.4-.9-.4l-.7.2-.2.6v2.6h.7c.5 0 .9-.1 1.1-.4.3-.2.4-.6.4-1.2zm5.8 2.3H50v.3h-3.5l.1-.3zm6.3 3.1v.2l-.8-.1h-1.4l-.7.1v-.1-.1l.6-.1.1-.2-.2-.6-2.5-5.1.5-.8-2.4 5.3-.1.7c0 .2 0 .4.3.6l.8.2.1.1-.1.1-.6-.1H45l-.7.1-.1-.1.1-.1c.2 0 .4 0 .6-.2l.4-.4.5-1 2.6-5.8.1-.1.1.1 2.9 5.9.7 1.2c.2.2.4.3.7.3zm4.8.3c-.9 0-1.7-.2-2.3-.5-.7-.4-1.2-.8-1.6-1.4-.3-.6-.5-1.3-.5-2s.2-1.4.6-2c.4-.6 1-1.1 1.7-1.4.7-.3 1.4-.5 2.4-.5l1 .1 1 .2.1.2.1.2.1 1.6h-.1c-.2-.5-.5-1-.9-1.4-.5-.4-1.1-.6-1.8-.6-.5 0-1 0-1.5.4-.4.3-.8.6-1 1.2-.3.5-.4 1.1-.4 1.8s.1 1.4.4 2c.3.6.7 1 1.2 1.4.5.3 1.1.5 1.8.5l.8-.1c.2-.1.4-.2.4-.4l.2-1-.1-.8c0-.2-.2-.3-.3-.4h-.9l-.1-.1v-.1h3v.2h-.4l-.1.4v2.1l-.1.1-2.7.3zm10.2-.1c-.2 0-.6-.4-1.1-1.1l-1.8-2.8.9-.2 1.7 2.3c.4.6.8 1 1.2 1.2.3.2.7.4 1 .4v.2h-1.9zm-2.8-7.6c.7 0 1.3.2 1.6.4.4.3.6.7.6 1.2l-.3 1.2c-.3.4-.7.6-1 .8l-1.4.3H64V205l.3.2h.6l.1.1-.1.1-.6-.1h-1.8l-.5.1-.1-.1.1-.1h.5l.3-.2V198.8v-.5l-.3-.3H62h-.1l.1-.1h2.3l.3-.1h.5zm1 2c0-.7-.1-1.1-.3-1.4-.2-.2-.5-.4-.9-.4s-.6.1-.7.2c-.2.1-.2.3-.2.6v2.6h.7c.5 0 .9-.1 1.1-.4.2-.2.3-.6.3-1.2zm5.9 2.3h3.3l.1.3h-3.6l.2-.3zm6.2 3.1l.1.1-.1.1-.7-.1H76l-.6.1v-.1-.1l.6-.1v-.2l-.1-.6-2.5-5.1.5-.8-2.4 5.3-.2.7.3.6.9.2v.2l-.7-.1h-1.5l-.6.1-.1-.1.1-.1c.2 0 .3 0 .5-.2.2 0 .3-.2.5-.4l.5-1 2.6-5.8.1-.1.1.1 3 5.9.6 1.2.6.3zm1.5-7.1l.3.1v5.7c0 .4.1.8.3 1 .1.2.4.3.7.3v.2l-.5-.1H79.2l-.6.1v-.1-.1c.4 0 .6-.1.8-.3.2-.2.3-.6.3-1v-5.8zm6.1 7.4v.1h-.1l-5.8-6.8-.7-.6c-.2-.2-.4-.2-.6-.2h-.1l.1-.1h2.1l.2.1.3.5 4.5 5.3.1 1.7zm0 0l-.3-.3v-5.9c0-.4-.1-.7-.3-1-.2-.2-.4-.3-.7-.3v-.1h2.3v.1c-.3 0-.6.1-.8.3l-.2 1v6.2zm6.2-7.8c1 0 1.7.1 2.2.3l.1.2.1.2.1 1.6h-.1c-.2-.7-.5-1.2-1-1.5-.4-.4-.9-.5-1.4-.5-.7 0-1.2.1-1.6.4-.5.3-.9.7-1.1 1.3-.3.5-.4 1.1-.4 1.9 0 .7.1 1.4.4 1.9.3.5.7 1 1.1 1.3.5.3 1 .5 1.6.5.6 0 1-.2 1.5-.5.4-.3.7-.8 1-1.5h.1l-.1 1.5-.1.2h-.1c-.7.3-1.5.5-2.3.5-.8 0-1.6-.2-2.3-.5-.7-.3-1.2-.8-1.5-1.3-.4-.7-.6-1.3-.6-2.1 0-.7.2-1.4.6-2 .4-.6.9-1 1.6-1.4.7-.3 1.4-.5 2.2-.5zm3.7 7.7v-.1-.1h.6l.2-.2.1-.6v-5.6l-.1-.5-.2-.3h-.6v-.1h5l.1.1v1.6l-.1-.1c-.2-.9-.7-1.3-1.7-1.3h-.5l-.5.1c-.2.1-.2.3-.2.5v5.5l.1.6.5.1h.6c1 0 1.8-.5 2-1.5h.2l-.2 1.7v.2h-5.3zm4.5-2.8c0-.6-.4-1-1.3-1h-1.7v-.3h1.7c.9 0 1.3-.3 1.3-.9h.2l-.1 1.1.1.5v.6l-.1.1-.1-.1zm3.5-3.5l.3.9.5.5.9.6.9.7.7.6.2 1c0 .4-.1.8-.3 1.1-.2.3-.5.5-.9.7-.4.2-.8.3-1.3.3l-1.1-.1-.8-.4-.1-.2-.1-1.8h.2c.2.6.5 1.2.9 1.6.3.4.7.6 1.3.6l.8-.2c.2-.2.4-.6.4-1l-.2-1-.6-.6-1-.6-.9-.6-.5-.7c-.2-.2-.2-.5-.2-.9s.1-.7.3-1c.2-.3.5-.6.9-.6l1.2-.3.8.1.7.2.2.2v1.6l-.1.2-.1-.1c-.1-.5-.3-.9-.6-1.3s-.7-.6-1.2-.6c-.4 0-.6 0-.9.3-.2.2-.3.5-.3.8zm7.3 4.4v-.1-.3-.2l3.1-.6.1.1v.4l-.1.1-3.1.6zm-80.5 13.6c-.5 0-.9.2-1.2.5-.3.3-.6.7-.7 1.4h-.1-.1l.1-1.3.1-1.1.1-.1v.1c0 .2.3.3.7.3h4.7l.7-.1c.2 0 .2-.1.2-.2l.1-.1.1.1-.1 1.1v1.3H35c-.1-.7-.3-1.2-.6-1.4-.4-.3-.7-.5-1.2-.5l-.5.1-.2.2-.1.4v5.6l.1.6.3.2h.7v.2l-.7-.1h-1.9l-.7.1v-.1-.1h.7l.3-.2.1-.6v-5.6l-.1-.4-.2-.2-.5-.1zm11.6 7.3l-1.1-1.1-1.8-2.8.9-.2 1.7 2.3 1.2 1.2c.4.2.7.4 1 .4v.2h-1.9zm-2.7-7.6c.6 0 1.2.2 1.6.4.4.3.6.7.6 1.2 0 .4-.2.8-.4 1.2-.2.4-.6.6-1 .8-.5.2-.9.3-1.4.3h-.6v2.7l.1.6.2.2h.6l.1.1-.1.1-.6-.1H36.8l-.7.1v-.1-.1h.6l.3-.2V217.8v-.5l-.2-.3h-.7l.1-.1h2.3l.4-.1h.5zm1 2c0-.7-.1-1.1-.4-1.4-.2-.2-.5-.4-1-.4l-.6.2-.2.6v2.6h.8c.4 0 .8-.1 1-.4.3-.2.4-.6.4-1.2zm8.2-.4l.3-.9c0-.3-.3-.5-.7-.5v-.1h2.5v.1c-.3 0-.6.1-.9.4-.4.3-.7.6-.9 1.1l-1.7 2.7-.2-.2 1.6-2.6zm-4.1-.3c-.2-.4-.5-.7-.7-.8-.2-.3-.4-.3-.5-.3h-.1l.1-.1H46v.1c-.4 0-.6.1-.6.3l.2.4 1.8 2.8-.9.5-2-2.9zm3 2.4v2.9l.1.6.2.2h.6v.2l-.6-.1H46l-.6.1v-.1-.1h.6l.3-.2.1-.6v-2.8l1.1-.1zm10.2 3.8l-.1.1-.1-.1-3.1-6.5-.4-.6c-.1-.2-.3-.2-.5-.2h-.1l.1-.1H56v.1h-.4l-.2.3.2.7 2.4 5-.4.8L59 220l.2.4-1.5 3.9zm6.8-7.4v.1c-.3 0-.5.1-.8.3l-.6 1-2.3 6-.1.1-.2-.1-3-6.5-.4-.6c-.1-.2-.3-.2-.4-.2h-.1l.1-.1h2.1v.1h-.3l-.1.2.1.3.2.5 2.4 5-.5.8 2.2-5.5.1-.6-.2-.5c-.1-.2-.3-.2-.6-.2v-.1h2.4zm-4.7 1.3l.2-.8c0-.3-.1-.4-.3-.4h-.1l.1-.1H61.4v.1c-.3 0-.5.1-.7.3l-.6 1-.8 2.1-.3-.4.8-1.8zm11.2-.4v-.5l-.3-.3H70v-.1h3.2v.1h-.6l-.3.3-.1.5v5.6l.1.6.3.2h.6v.2l-.7-.1H70.6l-.6.1v-.1-.1h.7l.3-.2V217.8zm-4.7 2.5h5.3v.3h-5.3v-.3zm-.5-2.5l-.1-.5-.2-.3h-.7v-.1H68v.1h-.7l-.3.3V224l.3.2h.7v.2l-.7-.1h-1.8l-.7.1v-.1-.1h.7l.2-.2.1-.6v-5.6zm8.3 6.6l-.1-.1.1-.1h.6l.3-.2V217.8v-.5l-.3-.3H74l.1-.1H79l.2.1v1.6l-.2-.1c-.1-.9-.7-1.3-1.6-1.3H77l-.7.1-.2.5v5.5l.2.6.5.1h.6c1.1 0 1.8-.5 2.1-1.5h.1l-.1 1.7-.1.1-.1.1h-5.2zm4.5-2.8c0-.6-.4-1-1.3-1h-1.7v-.3h1.7c.9 0 1.3-.3 1.3-.9h.2l-.1 1.1.1.5v.6l-.1.1-.1-.1zm3.1-4.5l.3.1v5.7c0 .4 0 .8.2 1 .2.2.4.3.8.3v.2l-.5-.1h-1.4l-.5.1-.1-.1.1-.1c.4 0 .6-.1.8-.3.2-.2.3-.6.3-1v-5.8zm6 7.4v.1h-.1l-5.8-6.8-.7-.6c-.1-.2-.4-.2-.6-.2v-.1h2.2l.1.1.3.5 4.6 5.3v1.7zm0 0l-.3-.3v-5.9l-.2-1c-.2-.2-.4-.3-.7-.3h-.1l.1-.1h2.2l.1.1h-.1c-.3 0-.5.1-.7.3-.2.3-.3.6-.3 1v6.2zm9.3-6.1c.3-.4.4-.6.4-.9 0-.3-.2-.5-.7-.5v-.1h2.5v.1c-.2 0-.6.1-.9.4l-.9 1.1-1.7 2.7-.2-.2 1.5-2.6zm-4-.3l-.6-.8c-.2-.3-.4-.3-.6-.3v-.1h2.7v.1c-.4 0-.5.1-.5.3l.1.4 1.9 2.8-1 .5-2-2.9zm3 2.4v2.9l.1.6.2.2h.7v.2l-.7-.1H94.6l-.6.1v-.1-.1h.6l.2-.2.1-.6v-2.8l1.1-.1zm7.2 4c-.8 0-1.4-.2-2-.5-.6-.4-1-.8-1.3-1.4-.4-.6-.5-1.3-.5-2 0-.8.2-1.6.6-2.1.4-.5 1-1 1.6-1.3.7-.3 1.4-.5 2-.5.8 0 1.4.2 2 .6.6.3 1 .7 1.4 1.4.2.6.4 1.2.4 1.8 0 .8-.2 1.5-.6 2-.4.6-.8 1.1-1.5 1.5-.7.3-1.3.5-2.1.5zm.4-.3c.4 0 .9-.2 1.3-.4s.7-.6.9-1.1c.2-.5.3-1.1.3-1.8 0-.8-.1-1.4-.4-2-.2-.6-.5-1-1-1.4-.4-.3-1-.5-1.6-.5-.8 0-1.4.3-1.8.9-.4.5-.6 1.3-.6 2.3 0 .8.1 1.4.3 2.1.3.6.6 1 1 1.4.5.3 1 .5 1.6.5zm11.2-5.9c0-.4-.1-.7-.3-1-.1-.2-.4-.3-.8-.3v-.1h2.5v.1c-.3 0-.6.1-.7.3-.2.3-.3.6-.3 1v3.4c0 .6-.2 1.1-.4 1.5-.2.4-.5.8-1 1-.4.2-.9.3-1.5.3s-1.1-.1-1.6-.3c-.4-.2-.8-.6-1.1-1-.2-.4-.3-.9-.3-1.5v-3.9l-.1-.5-.2-.3h-.7l.1-.1h2.9l.1.1h-.7l-.2.3-.1.5v3.5c0 .9.2 1.7.6 2.1.4.5 1 .7 1.7.7.6 0 1.2-.2 1.6-.6.3-.5.5-1 .5-1.8v-3.4zm-50.2 20.8l1.4.3.8.7c.2.3.4.7.4 1.1 0 .4-.2.8-.4 1.1-.2.3-.5.7-.9.8-.4.2-.9.3-1.4.3h-.8l-.4-.1H62l-.7.1v-.1-.1h.6l.2-.2.1-.6v-5.6l-.1-.5-.2-.3h-.6v-.1h2.2l.3-.1h.4c.8 0 1.3.2 1.7.4.3.3.5.7.5 1.2 0 .4-.1.8-.5 1.2-.3.4-.9.6-1.5.7l.2-.2zM64 236l-.5.2-.1.6v2.4l-.4-.1h.9c.4 0 .8-.1 1.1-.4.2-.3.3-.7.3-1.2s-.1-.8-.3-1.1c-.2-.2-.5-.4-1-.4zm.3 7.1c1.1 0 1.7-.5 1.7-1.6 0-.7-.2-1.1-.5-1.5-.3-.4-.8-.6-1.5-.6l-1 .1.4-.1v3.4c.1.2.2.2.3.2l.6.1zm10.3-5.8c0-.4-.1-.7-.3-1-.1-.2-.4-.3-.8-.3v-.1H76v.1c-.3 0-.6.1-.8.3-.2.3-.2.6-.2 1v3.4c0 .6-.1 1.1-.4 1.5-.2.4-.6.8-1 1-.4.2-1 .3-1.6.3l-1.5-.3c-.5-.2-.8-.6-1.1-1-.2-.4-.4-.9-.4-1.5v-3.9-.5l-.3-.3h-.6v-.1h3v.1h-.6l-.2.3-.1.5v3.5c0 .9.2 1.7.6 2.1.4.5.9.7 1.7.7.6 0 1.2-.2 1.5-.6.4-.5.6-1 .6-1.8v-3.4zm6.9.1l.3-.9c0-.3-.2-.5-.6-.5h-.1l.1-.1h2.4l.1.1h-.1c-.2 0-.6.1-.9.4l-.9 1.1-1.6 2.7-.2-.2 1.5-2.6zm-4-.3l-.7-.8c-.2-.3-.4-.3-.6-.3v-.1h2.7l.1.1h-.1c-.3 0-.5.1-.5.3 0 .1 0 .3.2.4l1.8 2.8-1 .5-1.9-2.9zm3 2.4v3.5l.3.2h.6v.2l-.6-.1H79l-.6.1v-.1-.1h.6l.3-.2v-3.4l1.2-.1z" fill="#000"/><path d="M71.3 175C22 175 1.8 149.5 1.8 87.3c0-62.9 18.6-86.2 68.5-86.2 44.7 0 72.5 14.4 72.5 86.2 0 32.2-5.5 54.6-16.8 68.1-11 13.3-28.4 19.5-54.7 19.5z" fill="#fff"/><path d="M51.5 114h.2l.1-.1.1-.1.1-.1h.2l.5-.3h.2l.1-.1.3-.1h.1l.2-.2h.4l.2-.2.3-.1.2-.1h.2l.3-.1.2-.1h.2l.3-.2.4-.2.4-.2.3-.1h.1l.2-.1h.1l.3-.1.1-.1.2-.1.3-.1c.2-.2.4-.2.5-.2l.4-.3h.2l.3-.2.3-.1.4-.2.4-.2.4-.2.5-.2.3-.1h-.2-.1l-.1.1h-.1l-.3.1-.2.1-.7.2H60v.1l-.3.1-.3.1-.2.1h-.1l-.1.1c0-.1 0 0-.1 0l-.5.2-.3.1c-.1 0-.1.2-.3.2h-.2l-.6.2v.1H56.7l-.1.1h-.2l-.4.2-.1.1-.3.2-.3.1h-.1-.2l-.7.3-.2.1H54l-.2.1h-.1l-.1.1-.6.2-.3.2h-.4c-.1.2-.3.3-.5.3l-.3.1-.2.6h.2zM52.6 110.8c.1 0 .1-.2.3-.1l.1-.1.1-.1h.1l.1-.1h.1l.2-.1.4-.3h.5l.2-.2h.1l.2-.1.2-.1h.1l.3-.1.3-.2.2-.1c.1.1.1 0 .2 0l.3-.2h.4c.1 0 .2 0 .3-.2l.4-.2.4-.1.2-.2h.2l.2-.1h.1l.2-.1.1-.1h.4l.2-.2.5-.3.4-.2h.2l.3-.2.3-.1.4-.2.4-.2.3-.1.5-.3.3-.2h.1l-.2.1-.2.1h-.2l-.2.1-.3.1-.6.2-.1.1h-.2-.1l-.3.1-.2.2h-.2-.1-.1l-.1.1-.5.2-.3.1-.3.2H59l-.5.2-.2.2h-.1-.2-.2c-.1.2-.2.2-.4.3h-.1l-.3.2-.3.1v.1c-.1-.1-.1 0-.2 0h-.1l-.7.3h-.2H55.2c0 .1 0 .2-.1.1l-.1.1-.6.2c-.1.1-.2.2-.3.1l-.1.1-.2.1-.6.3-.5.1-.1.6v.1zM53.7 107.2l.6-.2.2-.1.2-.1.2-.1.1-.1.3-.1h.1l.2-.1.3-.1.3-.1.2-.2h.2l.4-.1.2-.1h.2l.3-.2.3-.2.6-.2.2-.2h.5l.3-.2h.1l.1-.1.2-.1.3-.1.5-.3.4-.2h.2l.3-.2.3-.1.4-.2.4-.2.4-.1.6-.3.2-.2v.1h-.2l-.1.1-.1.1H63l-.6.3-.2.1h-.1l-.1.1h-.3l-.3.1-.2.1-.1.1H61h-.1l-.5.2-.4.2-.2.2h-.2l-.6.2-.2.1h-.2l-.1.1-.2.1-.5.1-.1.1-.2.2-.4.1-.1.1h-.2l-.8.3h-.1l-.2.1-.1.1h-.1-.2l-.6.3c-.1.1-.2.2-.3.1l-.1.1-.1.1H54l-.2.1-.1.5h.1-.1zM54.5 104.1l.3-.1h.2l.1-.1.2-.1.3-.1.4-.1.2-.1v-.1c.1.1.2 0 .2 0l.4-.1.2-.1.3-.1.3-.1.4-.3.6-.2.2-.1s0-.1 0 0l.2-.1.2-.1h.1c.2 0 .2-.2.3-.1l.1-.1h.4l.3-.2.6-.3.4-.2.2-.1.4-.2.3-.1.4-.2.4-.2.5-.2.6-.3.3-.1-.2.1H64l-.4.1-.3.1-.6.3h-.2l-.2.1h-.1l-.3.1-.3.1c0 .2-.2.1-.2.2h-.1H61c-.2 0-.4.1-.5.3l-.4.1c-.1 0-.1.2-.3.2-.1 0-.1.1-.2 0l-.6.3-.2.1h-.2l-.2.1-.2.1-.5.2h-.1l-.3.2-.3.2h-.2l-.1.1h-.2l-.7.2-.2.1c-.1 0-.1.1-.2 0l-.1.1c-.1 0-.1.1-.1 0l-.2.1-.5.2-.1.5.1-.1v.1zM55 101.3h.1l.2-.1.4-.2h.5l.3-.2.5-.3.5-.2.2-.1s.1-.1.1 0l.2-.1.1-.1h.2l.4-.1v-.1l.3-.1h.1l.3-.2.6-.3.5-.2h.2l.4-.2.4-.2.5-.2.4-.2.5-.2.6-.3.3-.1.1-.1-.3.1h-.1l-.2.1h-.1l-.3.1-.3.2-.7.2-.2.1h-.2l-.1.1-.4.1-.2.1-.3.1-.1.1h-.1-.1c-.2.2-.4.2-.6.2-.1.2-.3.2-.4.2l-.4.2-.2.1-.6.2-.2.1-.2.1h-.1l-.1.1h-.2l-.5.3h-.2l-.3.2-.4.2h-.1l-.1.1h-.2l-.4.2-.1.3h.1zM55.6 98.4l.2-.2.4-.2.6-.2.2-.1s0-.1 0 0l.1-.1h.2l.2-.1.2-.1h.1l.2-.1h.2l.2-.2.6-.2.4-.3h.2l.3-.2.3-.1.4-.2.4-.1.4-.2.6-.3.2-.1H62l-.2.1h-.1l-.3.1-.2.1-.6.2-.2.1h-.2-.1l-.3.1-.2.1-.3.1v.1H59l-.5.3-.3.1-.2.2h-.3l-.6.2-.1.1h-.2l-.1.1-.2.1-.5.2-.3.2-.2.1-.1.4.2-.1v.1zM55.8 95.5h.1l.1-.1h.2l.1-.1.3-.1.1-.1h.1c0 .1.1 0 .1 0l.2-.1H57.4c.1 0 .2 0 .2-.2l.3-.1.4-.2.1-.1h.1c0 .1 0 0 .1 0h.1c0-.1.1 0 .1 0l.2-.1.2-.1h.1l.2-.2.4-.1.2-.2h.2l.2-.1.2-.1.3-.2.3-.1.3-.2.4-.2.2-.1-.2.1h-.1l-.1.1-.2.1h-.2l-.4.1-.2.1h-.1l-.2.1h-.2l-.2.1H60h-.1l-.4.2-.2.1-.3.1v.1l-.5.1h-.1c0 .1-.1 0-.1 0l-.1.2H58l-.3.2-.2.1-.3.2c-.1-.1-.2 0-.2 0l-.6.1-.1.1s-.1.1-.1 0l-.2.1h-.2v.6-.1zM56.1 93.1l.2-.1.2-.1.1-.1h.2c0-.1.1 0 .1 0l.1-.1.2-.1.2-.1.2-.1.2-.1c0-.1.1 0 .1 0l.1-.1.2-.1.2-.1h.2l.2-.2.2-.1.2-.1h-.1-.1v.1h-.4l-.3.1-.1.1H58l-.2.1h-.2l-.3.1-.1.1-.2.1-.4.1v.1h-.1-.1s0 .1-.1 0l-.2.1-.1.1v.5l.1-.2v.1zM49.7 117.7h.2l.1-.1.1-.1h.1l.1-.1h.2l.5-.3.2-.1H51.5l.2-.2h.2l.1-.1.2-.1.3-.1.3-.1.2-.1h.2l.3-.1.2-.1.2-.1h.3l.3-.3.5-.2.2-.1h.2l.1-.1h.2l.3-.1v-.1l.2-.1h.1l.3-.1.5-.3.4-.2.2-.1.3-.1.3-.2.4-.1.3-.2.5-.2.5-.2.2-.1h.1-.2-.1l-.1.1h-.1-.1l-.2.1-.3.1-.6.2h-.1l-.2.1h-.1l-.2.2h-.3-.2l-.1.1-.1.1c0-.1-.1 0-.1 0l-.5.2-.3.1-.3.2H56l-.7.2-.1.1H55h-.1l-.2.1-.4.2-.1.1-.2.2-.4.1h-.1l-.1.1h-.2l-.6.2h-.2l-.2.1-.1.1H52l-.1.1-.6.2c-.1 0-.2.2-.3.1v.1h-.2l-.2.1-.6.2-.1.1-.3.6s.1-.1.1 0zM47.2 122l.2-.2h.1l.1-.1h.1l.1-.1h.2l.5-.3h.2l.2-.1.1-.1.2-.1h.2l.1-.1.2-.1.3-.1.3-.1.2-.1h.2l.3-.2h.2l.2-.1.2-.1.4-.1.5-.3.2-.1h.2l.1-.1h.2l.3-.1v-.1l.2-.1h.1c.2 0 .2-.1.3-.2.2 0 .4 0 .5-.2l.4-.2.2-.1.3-.1.3-.1.4-.3.4-.1.4-.2.5-.2.2-.2h.1l-.2.1h-.1l-.2.1h-.1l-.2.1-.3.1-.6.1-.1.2h-.2-.1l-.2.1-.3.1-.2.1h-.1-.1l-.1.1-.5.2-.3.1-.3.2c-.1 0-.1.1-.2 0l-.6.1-.1.2h-.2l-.1.1h-.2l-.4.2-.1.1-.3.2-.3.1-.1.1H50.7l-.7.2v.1h-.2l-.2.1h-.1l-.1.1-.6.2c-.1.1-.2.2-.3.1v.1l-.2.1h-.2l-.5.2-.1.1-.4.6h.1v.1zM43.8 126.2h.2s0-.2.2-.2h.2l.2-.1v-.1h.2l.1-.1.5-.2.2-.1.2-.1.2-.1h.2l.2-.1.1-.1h.2l.3-.1.2-.2.3-.1c.1.1.1 0 .2 0l.3-.1.2-.1h.2l.3-.2.3-.2.5-.2.2-.1H50v-.1h.2l.3-.1.1-.1.2-.1h.2l.2-.1c.2-.2.4-.2.5-.2.1-.2.3-.2.4-.3l.2-.1.3-.1.3-.1.4-.2.4-.2.3-.2.6-.3.2-.1h.1l-.2.1h-.2l-.1.1h-.1l-.3.1-.2.1-.6.2H53h-.1l-.1.1-.3.1-.2.1-.3.1h-.1l-.1.1-.5.2-.3.1c-.2 0-.2.2-.3.2h-.2l-.6.2-.1.1H49.5l-.1.1s-.1.1-.2 0c-.1.2-.2.2-.4.3h-.1l-.3.2-.3.1H48l-.1.1h-.2l-.7.3-.2.1h-.2l-.1.1h-.1l-.6.3-.3.1h-.1l-.1.1H45l-.5.3-.5.2-.8.8.5-.2h.1zM32.5 133.1l-.1.1-.4.2-.3.1-.1.1-.1.1h-.1l.2-.1h.2l.2-.1h.1l.1-.1h.1l.3-.1h.1l.1-.1h.2s0-.1 0 0l.1-.1h.1l.1-.1h.4l.1-.1.4-.2.5-.2.3-.1h.1l.2-.1h.1l.1-.1h.1l.1-.1.2-.1H36.2l.4-.2.1-.1.1-.1h.2v-.1l.3-.1h.4l.1-.1h.2l.1-.1.4-.2h.3c.2 0 .2-.1.2-.2 0 0 .2-.1.2 0l.1-.1c.1 0 .1-.1.1 0h.1l.5-.3h.1l.1-.1h.1l.5-.2.2-.1h.4l.2-.2h.1l.5-.3h.1l.2-.1h.1l.1-.1h.2l.1-.1v-.1l.5-.1h.1l.2-.1.2-.1.2-.1.1-.1h.2l.2-.1h.2l.1-.1.2-.1h.2l.2-.1h.2l.2-.2h.3l.3-.2.2-.1h.2v-.1h.2l.2-.1.1-.1h.2l.2-.1.3-.2.3-.1.2-.1.2-.1.2-.1.3-.2.3-.1.3-.1.4-.3h-.1v.1l-.3.1h-.1l-.5.2h-.1l-.1.1h-.1l-.2.1h-.2l-.2.1s-.1.1-.1 0h-.1c-.1.1-.3.1-.3.3h-.3l-.2.1-.2.1-.4.1-.1.1h-.1l-.1.1h-.2l-.3.2H46l-.2.1-.2.2h-.1-.1-.1l-.5.1-.1.1h-.2l-.1.1-.1.1-.5.1c-.1.1-.1.2-.2.1l-.1.1h-.1l-.1.1-.4.2-.7.2v.1l-.2.1h-.3l-.6.3H41s-.1.1-.1 0l-.1.1-.2.1-.2.1h-.2l-.2.1-.1.1h-.2l-.1.1-.2.1-.1.1h-.1c-.1 0-.1.1-.2 0v.1h-.2l-.2.1-.1.1c-.1-.1-.1 0-.2 0l-.6.2-.3.1-.1.1h-.2l-.2.1-.2.1-.2.1h-.1-.1l-.1.1h-.1l-.1.1-.3.1-.2.1-.2.1-2.6 1.1h-.2z" fill="#000"/><path d="M56.2 90.3H56s0 .1 0 0h-.1l-.3.2-.1.1-.2.1-.1.1h-.1l-.1.1v.1h-.1H55.2c.1 0 .1-.1.1 0l.1-.1H55.7v-.1l.2-.1H56.2v-.4zM56.3 87.8v.1h-.1.2v-.1h-.1zM56.4 85.3h-.1l-.1.1.1-.1h.1zM43.6 125.8l-.2.2H43l-.8.4H42v.1l-.2.1-.3.1-.2.1-.3.1-.2.1-.2.1h-.2l-.1.1-.3.1-.1.1-.2.1h-.2l-.1.1-.2.1s-.1.1-.2 0l-.1.1-.1.1c-.1-.1-.1 0-.2.1l-.7.2-.5.2h-.2l-.2.1-.3.1-.2.1-.3.1-.2.2h-.2-.1l-.3.2-.2.1h-.1l-.2.1-.3.2h-.1l-.3.1H34v.1l-.3.1-.3.1-1 .4-.6.3-.5.3H31c0 .1 0 .2-.2.2l-.4.2-.4.2-.2.1-.2.1.2-.1h.2l.3-.1.1-.1h.2l.1-.1.4-.1h.1l.1-.1.2-.1h.1l.2-.1h.4l.3-.2.2-.1.5-.2.6-.2.3-.1.3-.1.3-.1.3-.1.2-.1.2-.1.2-.1h.1l.1-.1.6-.2h.1l.2-.1.2-.2h.1l.3-.1h.3l.2-.1h.1l.1-.1.2-.1.2-.1.5-.2.4-.1.3-.2h.3l.1-.1v-.1h.2l.6-.3.2-.1c.1.1.2 0 .2-.1h.1l.6-.3h.5l.2-.2h.1l.3-.2.2-.1.8-.8-.3.2-.2.1.1-.2zM34.9 132l-.1.1-.2.1-.3.1c-.3.1-.5.1-.7.3l-.5.2-.4.2h-.1l2.6-1h-.3z" fill="#fff"/><mask id="a" style="mask-type:luminance" maskUnits="userSpaceOnUse" x="1" y="1" width="142" height="174"><path d="M71.2 175C22 175 1.7 149.6 1.7 87.3 1.7 25.1 20.3 1 70.2 1c44.8 0 72.6 14.5 72.6 86.3 0 32.3-5.5 54.7-16.8 68.2-11 13.3-28.4 19.5-54.8 19.5z" fill="#fff"/></mask><g mask="url(#a)" fill="#000"><path d="M27.8 31H12.7l-3 .1H1.8l-8.4-.1-3.3.1h-.6V26.2l.8.6-2.9 1c-.9.2-1.8.8-2.7 1.2-1.3.5-2.5 1.4-3.7 2l-3.3 2.4-.4.3-.9 1-1.8 1.8-1.3 1.8-.5.7-1 1.4-.8 1.6-.8 1.4-.6 1.5-.4.9L-32 49l-1 3.7c0 .5-.3 1.3-.4 1.5l-.3 1.8c-.1.5-.3 1-.3 1.6l-.3 1.5-.5 3.8-.2 3.6c-.2 1.2-.3 2.5-.3 3.8l-.2 2.7c-.1 1 0 2-.2 2.8v.2c-.1 2-.2 3.8-.1 5.8 0 3.2.2 6.6.4 9.8l.2 2.8v.9c0 .9.4 1.6.4 2.4l.3 2.4.5 2.7.4 1.7c0 .7.4 1.6.6 2.5 0 .5.2 1.3.4 1.6l.8 2.4c.4 1.3.8 2.5 1.5 3.6l.8 1.7.7 1.6.8 1.4 1 1.3c.5.7 1 1.7 1.7 2.4l.4.4.9 1.2 1.2 1 2.3 2.1 2.7 2c.5.3 1 .3 1.6.9.3.3 1.2.6 1.8.9.6.3 1.2.7 1.9.9l2.6 1.1h-.1 7.8c1.5 0 3.2-.1 4.5.1l3.5-.1 1.8-.1h21.8l.8.1H30l1.5-.6.5-.2c1.4-.3 2.7-1.1 4-1.7 2.4-1.4 4.7-2.8 6.7-4.7.3-.3.9-.8 1.1-1.3.4-.2.6-.5.9-1 .3-.4.9-1.2 1.3-1.5l1.2-1.5 1.1-1.8c1.5-2.5 2.7-5.2 3.7-8l.6-1.7c.2-.5.3-1.1.6-1.6l.3-1.2c.3-1.4.8-3 .9-4.3.2-1.4.6-2.7.6-3.9l.1-1.5c.2-1.9.6-4 .6-5.8l.2-2.4V87v-.3l.1-2.2v-1.9c0-2.6.2-5.2 0-7.9.2-.7 0-1.5 0-2.3l-.3-4.3-.4-4.1c-.4-2.3-.7-4.5-1.2-6.7l-.3-1.7-.2-.9-.3-1.2c-.3-.9-.3-1.9-.8-2.8-.3-1.1-.8-2.2-1.2-3.2l-.5-1.5-.8-1.6-.6-1.4-.7-1.4c-.6-.6-1-1.5-1.5-2.2-1.5-2.1-3.1-4.1-5.1-5.7l-1.2-1.2-1.4-1-2.9-1.9-.3-.1L35 29c-.4-.3-1-.7-1.4-.8l-1.4-.6-2.2-1.2c0-.1.2-.1.4 0 1.2.1 1.6 0 3.6.9 1.3.5 2.5 1.1 3.6 1.8l1.7 1.1 1.7 1.1 2 1.8 1 .9 1 1c1.3 1.4 2.3 3 3.4 4.5l1.5 2.3 1.1 2.4c.7 1.2 1 2.5 1.6 3.8.5 1.3.9 2.7 1.2 4l.6 2.6c.6 1.7.9 3.5 1.2 5.2.5 2.4.7 4.8 1 7.2l.4 3.8V75c.1.4.2 1 .1 1.2v3.7L57 82v3.7l-.1.8c.1.9 0 1.9-.1 2.8-.1 2.3-.3 4.6-.6 6.8-.2 1.9-.3 3.7-.7 5.5-.1 1.2-.4 2.4-.7 3.6-.2.9-.4 1.8-.8 2.8-.2.8-.4 1.7-.8 2.6l-1.4 3.8c-.3.6-.6 1.5-1 2l-.2.6c-.3.8-.9 2-1.4 2.6-.8 1.2-1.5 2.4-2.4 3.4-.7 1-1.4 1.9-2.2 2.7l-1.8 1.7-1.8 1.5-2 1.4-2.2 1.3-2.3 1.1-2.5 1.1-1.7.5H19.9l-2 .1h-4.6c-.6 0-1.3-.1-2 .1-1.1-.2-2.3.1-3.4 0l-1.2-.1h-.6c-3.1.2-6.3 0-9.5.1l-1.1.1h-5.6l-.1-.1-2.8-1c-1.1-.3-2.2-1.1-3.2-1.6l-2.8-1.8-3.4-2.6c-1-1.1-2.1-2-3-3.1l-.6-.8c-.7-.6-1.2-1.1-1.4-1.9l-.3-.3-1.3-2c-1.5-2.7-3-5.4-3.8-8.3l-.4-1.3c-.2-.6-.4-.8-.5-1.4l-.3-1.4-.4-2-.5-2c-.3-1.1-.6-2.3-.6-3.4-.2-2.1-.6-4.1-.7-6.2-.3-2.1-.4-4.2-.5-6.4 0-.8 0-1.7-.2-2.5-.1-.2 0-.5 0-.8l.1-2-.2-2v-1.5l.1-1.7.4-4.1.2-4.3.1-1.7.2-2.2c.2-1.2.4-2.2.4-3.2l.2-1.2.6-3.7.4-1.8.4-1.8.5-1.7c0-.4.2-1 .4-1.5l.8-2.2 1-2.7 1.3-2.6.4-.7.8-1.4.8-1.4.2-.3 2.4-3c.4-.5.8-1 1.4-1.4l1.4-1.3 1.8-1.3c.6-.6 1.2-1 1.9-1.3 2.2-1.2 4.4-2.3 6.7-3.1l2.2-.8.5-.2V30.5l-.3-.4h.8l3.2-.1H10l2.4-.1h.6c1.6.2 3.4-.2 5 .1.7-.2 1.3 0 1.8 0l2.2-.1h2.2c1.3 0 2.6.1 3.8-.1.5 0 1.3-.1 1.9.1h.2l-.6.5V30c0-1.6.3-3.4.5-3.6l.2.3.2 1.2.2 1.9.1.6v.6H27.8z"/><path d="M30.7 24.7c-.1-.2-.1-.5 0-.8v-.5h-.6l-.7-.1c-.5-.1-1 .1-1.5-.2-.9.1-1.6-.1-2.3-.1-.6 0-.6 0-1 .4l-.1.3v.2h-.1c0-.1.1-.2 0-.4-.1-.3-.5-.5-.8-.5h-.2c-.1-.2-.3-.2-.4-.2-.3.1-.6-.1-.8-.3l-.4-.2c-.2-.1-.3-.3-.5-.3-.1 0 0-.4-.3-.3.1-.5-.7-.7-.5-1.1v-.2c-.3-.1-.2-.4-.3-.5l-.2-.6.1.1c.6.1 1.3-.1 1.9-.4.5-.2 1-.3 1.5-.7.3-.5.5-1 .9-1.3l.1-.2c-.1-.5.2-.8.2-1.3 0-.2.2-.3.1-.4v-1c-.2-.3-.2-.7-.2-1l.2-.8c0-.2.1-.3-.2-.5.2-.2.2-.4.2-.6V8.6l-.1-.4V7v-.7l-.1-.6V4.2c0-.5.2-1 .4-1.4.2-.2.3-.4.2-.6-.2-.2-.2-.3-.2-.5V1 .3 0c-.2-.2 0-.5 0-.8V-3v-2.2-1.2c-.1-.4-.2-.9 0-1.4v-.5c.1-.2-.2-.3 0-.5v-.5c.2-1-.1-2-.1-3.1 0-.2.1-.6-.1-.8v-.1c.4-.3.2-.7-.1-1l-.1-.4c-.3-1.1-1-2.2-2.1-2.7-.5-.3-.8-.6-1.2-.7-.5-.2-1.1-.5-1.5-.3l-1.1.1H17h-.1l-.4.1c-1.1.2-2.2-.1-3.3.2H13l-.4-.2c-.4-.1-.8.4-1.2 0-.2.2-.4.2-.7.2H9.1c-.1.2-.5.1-.7.1h-.7c-.8-.1-1.7.2-2.5.1l-.9-.1H.7l-.8.1c-.4-.2-.7 0-1 0-.5.1-.9.4-1.3.6-.5.3-.8.7-1.3 1.2-.3.1-.6.6-.4 1l-.1.3c-.3.2-.2.6-.3.9v1.4l-.1 1-.2.9c0 .5-.1.9.2 1.3-.1.6.1 1.2.1 1.9V-5c0 .4-.1.7.2 1v.3c-.2.1-.2.4-.1.5 0 .2-.1.5.1.8.1.2-.2.4-.2.7 0 .5.2.9-.1 1.3l.1.4c.1.3.1.6 0 .8l-.1.6.1 1.4c.1.8 0 1.7.2 2.5.1.6-.1 1.2.1 1.8.2.3 0 .6-.1.9v1.5l-.2 1.4c0 .6 0 1.2.2 1.8.1.7-.1 1.3-.2 2 0 .6.3 1.4.4 2.2.6.9 1.2 2 2.4 2.4.9.2 1 .2 1.5-.3.2 0 .2-.1.2-.2v-.3.5c.2.3.6.4 1 .4.2.3 0 .6-.1.8l-.2.6-.1.4-.6.8c-.3.4-.7.4-1.1.3l-.4.1c-.1.2-.2.2-.3.2l-.4.3-.5-.1H-3c-.1.2-.3.2-.6.2h-1.9c-.5 0-1.1 0-1.7-.2-.3 0-.7 0-1 .2-.4 0-.8 0-1.2-.2h-.4-.1l-1.1.4.2.5v.3c-.1.1 0 .3 0 .4-.2.9.1 1.7.1 2.6 0 .2-.1.5.1.7v.1c-.4.2-.2.4 0 .6V31H-9l.9.1c.3.1.6.3 1 .2l.9-.1h.3c.5-.2.5-.2.9 0h.2l.4-.2c.9 0 1.8.2 2.7 0h.5c.3.2.6-.2 1 0H.9c.1-.2.3 0 .5 0h.2c.2-.3.4-.2.6-.2.2.1.4.2.6 0 .7.2 1.4-.1 2-.1l.8.1H10.9c.4.1.8 0 1.1.2l1-.1c0-.1 0-.1 0 0l.7.1h2l.8.2c.4 0 .7.1 1.1-.2.5.2 1 0 1.6 0h1.9c.3 0 .6 0 .9-.2l.2.1.4.1.7-.1c.1-.1.3.1.6.1h3.7c.7-.1 1.4 0 2.1-.2H30.6v-.5c0-.3.1-.8-.1-1.1-.1-.2.1-.5.1-.8v-1.2l.1-1.2v-1.4.1zM5.5 42.9c-1.2.1-2.4.1-3.7.4-1.2.3-2.5.5-3.7.9l-1.8.6c-.5.2-1.2.5-1.6.9l-.3.1-1 .5-1 .7c-.6.4-1.3.7-1.8 1.2-.6.6-1.4 1.1-1.9 1.8l-1.7 2c-1.5 2.3-2.8 4.8-3.6 7.5-.3.8-.4 1.7-.8 2.5-.3.8-.3 1.7-.6 2.5v.3l-.1.9c-.4 1.6-.3 1.6-.5 2.9l-.1.6-.2 2.2-.1 2v9.4c0 .8 0 1.6.2 2.3l.2 2.3.3 2.4.2 1.7.3 1.7v.2c.1 1.1.5 2.3.8 3.5.2 1 .6 1.9 1 2.9.3 1 .7 1.9 1.2 2.8l.8 1.6.2.4c.3.5.8.8.9 1.3.2.5.6.8.9 1.2l1.1 1.3.9.6c.2.4.7.8 1 1.2l1 .6c.5.2 1 .6 1.4.9l2.1 1.1 1.1.5 1 .4c.6.2 1.2.5 1.9.6l1.9.3.4.1c.6.3 1.2.3 1.9.3l2 .3 2.1.1c.4 0 .6-.2 1.2 0H11.6c1.1 0 2.2 0 3.4-.2 1-.2 2.1-.2 3.2-.5l2.8-.5 2-.8 1-.4 1.7-.7 1.5-1c1.1-.5 2-1.3 2.9-2.1l1.6-1.7c.6-.5 1-1.2 1.5-1.9l.8-1.1.6-1.3.2-.3.7-1.2.4-1.3c.7-1.5 1.1-3.2 1.7-4.8 0-.4.2-.8.1-1.1.2-.3.2-.5.2-.8l.2-1.3.3-1.2.2-1.3.6-5.5.1-1.1.1-1.1v-.8-2.8l-.1-2.4-.1-.9c0-1.3 0-2.6-.2-3.8V70c-.1-.3-.1-.7-.3-1v-.3l-.1-1.3-.2-1.2c-.4-1.6-.4-3.2-1-4.8L37 60c-.2-1-.6-1.7-1-2.5l-1-2.4-1.1-1.8-1.3-1.7-.6-.9-.4-.4-.6-.5-.6-.8c-.2-.1-.4-.4-.8-.5-.6-.4-1-.9-1.6-1.2l-1.9-1.1-.8-.5-.9-.4c-.6-.1-1-.4-1.6-.6-1.5-.4-3.1-.9-4.8-1.2l-2-.4-2.2-.2-.2-.1h-.9l-1.1-.1h-1c-.9-.1-1.5-.3-1.3-.5l.2-.1c.9-.2.9-.1 2.2-.1 1.7 0 3.3.3 5 .4l3.3.7 3.5 1.1c1.1.4 2.1.8 3.1 1.4l2.2 1.4 2.2 1.7 1 1.3c1 .6 1.5 1.7 2.2 2.6.5.5.8 1.3 1.2 1.9l1.1 2.1.9 2.3.3 1.1.5 1.4.2.7c0 .8.2 1.6.4 2.3.2.5.2 1 .2 1.3.2.5.2.9.2 1.3.1.4.2.8.1 1l.1.6.2 1.7.4 4.3V78c.2.8.1 1.6.1 2.3l-.1 1.8v1.8c-.2.7-.2 1.7-.3 2.5l-.1 1.4-.1.3c.1.6-.1 1.4-.2 1.9l-.4 2.6-.4 2.1c-.1.5-.2 1-.5 1.5l-.3 1.4-.4 1.4-.6 1.5-.6 1.5-.8 1.5-.8 1.5c-.9 1.2-1.6 2.5-2.8 3.6-.2.4-.5.7-.9.9l-1 .9-.3.3-.9.7-1.1.6c-.3.3-.8.5-1 .8-.7.2-1.3.7-2 .9l-.7.3-.4.1c-.9.4-1.9.7-2.8.9l-3 .7-.7.2-.4.1c-1.1 0-1.1 0-2.1.2l-.8.1-2.1.1H9.3l-2.1-.2c-1.8 0-3.6-.4-5.4-.6l-.6-.1c-.5 0-1-.1-1.5-.4l-.2-.1c-.5.1-1-.1-1.5-.3-1.8-.7-3.6-1.3-5.3-2.3l-.7-.6-.8-.4-.7-.6c-.5-.7-1.3-1.3-2-1.8l-1.5-1.7-1-1.6-1.1-1.7c-.6-1.2-1.3-2.4-1.7-3.6l-.6-1.6-.2-.5-.3-1.2-.4-1.1-.3-1-.2-1c0-.9 0-1.7-.2-2.7l-.4-2.6-.2-1.1-.1-1.4-.1-2-.1-.8-.1-4.6v-1.1-1l.1-1.5.1-1.7v-1.8l.1-.5c0-.7.2-1.4.1-2.1l.1-.2c.2-.8.2-1.6.2-2.3l.5-2.4.7-2.8 1.4-4.4 1-2 .6-1.1.6-1c.4-.6.6-1.2 1.1-1.8l1.4-1.7c.5-.6 1.1-1 1.7-1.5.3-.2.5-.5.8-.6l.3-.3c.4-.4.9-.7 1.5-1l.6-.3 1.4-.8 1.4-.7.3-.2c1.1 0 2-.8 3.1-.8.4-.2.9-.2 1.2-.2.4-.2.8-.4 1.3-.4l1.4-.2 2.5-.4H7c.9 0 2 0 2.2.2v.3l-.7.2-1.3.2-1.9.1.2-.1z"/><path d="M5.4 42.6l-3.6.4-3.8 1-1.7.6-1.8.8-.2.1-1 .5-1 .7-1.9 1.3-1.9 1.8-1.7 2c-1.5 2.3-2.8 4.9-3.7 7.6l-.7 2.6-.6 2.5v.3l-.2.8-.4 3-.1.6-.1 2.2-.2 2v.6l-.1 2.2V81.9l.1.9.2 2.4.1 2.3.3 2.3.2 1.8.4 1.7v.1c.1 1.2.5 2.4.8 3.6.2 1 .6 2 1 2.9.3 1 .8 1.9 1.2 2.8l.9 1.6.3.4.8 1.3 1 1.3 1.1 1.3.9.7 1 1.1 1 .6 1.4 1 2.1 1 1.1.5 1 .5 2 .5 1.8.5h.4c.6.2 1.2.2 1.9.3l2 .3 2.1.1h3.9l3.3-.2c1.1-.1 2.3-.2 3.4-.5.9-.2 1.9-.3 2.7-.6l2-.7 1.1-.4 1.7-.8c.5-.2 1.1-.5 1.5-.9 1.1-.6 2-1.4 3-2.2.6-.4 1.1-1.1 1.6-1.7l1.5-1.9.8-1.1.7-1.3.1-.4.7-1.1.4-1.3c.8-1.6 1.2-3.3 1.7-4.9l.1-1.1.3-.8.2-1.3.2-1.2.3-1.3.5-5.6.1-1.1v-1.1-.8l.1-2.7-.1-2.5v-.9c0-1.3-.1-2.6-.3-3.8l-.1-1.5c0-.3 0-.7-.2-1v-.3-1.3l-.3-1.2c-.3-1.6-.5-3.2-1-4.8l-.4-1.4-.9-2.6-1.2-2.4-1-1.8-1.2-1.7-.8-.9-.4-.4-.5-.5-.6-.7-.7-.6-1.8-1.3-1.8-1.1-.9-.4-.9-.4c-.6-.2-1-.5-1.6-.6l-2.3-.7c-.8-.3-1.7-.4-2.5-.6-.7-.1-1.4-.3-2.2-.3l-2.1-.3h-1.1l-1-.1h-1c-1 0-1.5-.1-1.4-.2l.2-.1h2.2c1.7 0 3.3.3 5 .5l3.4.6 3.4 1.1 3.1 1.3 2.2 1.4L31 49l1 1.1c1 .7 1.5 1.8 2.2 2.6.5.6.8 1.3 1.2 2l1 2.1.9 2.2.3 1.1.4 1.4.2.8.5 2.2.3 1.3c0 .5 0 .9.2 1.4l.1 1v.5l.2 1.7.3 4.3.2 3.5v2.2l-.1 1.8-.1 1.8-.2 2.5-.1 1.4v.3l-.3 1.8-.4 2.6-.4 2.1-.4 1.5-.3 1.4-.5 1.4-.5 1.5-.7 1.5-.7 1.6-.8 1.4c-.9 1.2-1.7 2.5-2.8 3.6l-.9.9c-.3.3-.8.5-1 .9l-.4.3-.9.7-1 .6-1.1.7-2 .9-.6.4h-.4l-2.8 1-3 .6-.6.1h-.4l-2.1.3h-.8l-2.1.2H9.4l-2-.2c-1.8 0-3.6-.3-5.4-.5l-.7-.2c-.5-.1-.9-.1-1.3-.3h-.3l-1.5-.5c-1.8-.5-3.6-1.3-5.2-2.3l-.8-.5c-.2-.3-.4-.3-.7-.5l-.8-.6c-.5-.6-1.3-1.2-1.9-1.7l-1.4-1.7-1.1-1.6-1.1-1.6-1.7-3.7-.5-1.5-.3-.5-.3-1.2-.4-1.1-.2-1-.2-1-.4-2.6-.4-2.7-.1-1.1-.1-1.4-.2-1.9v-.8l-.1-4.7v-1-1l.1-1.5v-1.8l.1-1.8.1-.5.1-2 .1-.2c.2-.8.2-1.6.2-2.4l.5-2.3.6-2.8c.4-1.5.9-2.9 1.5-4.3.2-.8.6-1.4 1-2.2l.4-1 .7-1 1.1-1.7 1.5-1.7 1.6-1.5c.2-.2.5-.5.8-.6l.3-.2 1.5-1.1.5-.3 1.5-.8c.5-.1 1-.5 1.4-.6l.3-.1c1-.3 2.1-.9 3.1-1l1.1-.2c.4-.2.9-.2 1.3-.3l1.3-.2 2.5-.3 1.2-.1H9.3c.1.1.1.1 0 .2h-.7l-1.3.2H5.4v-.1z"/><path d="M6.2 112.1l-3.2-.5c-1.2-.2-2.3-.4-3.4-.8l-1.6-.5c-.6-.3-1.1-.6-1.6-.7l-.3-.1c-1.2-.7-2.5-1.5-3.4-2.5l-.9-.7-.8-.9-1.5-1.9c-1.5-2-2.5-4.5-3.3-6.9l-.5-2.4c-.1-.6-.4-1.4-.4-2.2l-.1-.3-.2-.7-.3-2.7v-.5l-.2-2c-.1-.6 0-1.2-.2-1.8v-.5l-.1-1.9-.1-2.2c-.1-.3.1-.7.1-.9l-.1-1 .1-1v-.8-2.1l.1-2.1.2-2.1.3-1.5c0-.5 0-1.1.2-1.6v-.1l.7-3.2.8-2.6 1-2.6.7-1.4.2-.4c.3-.5.4-.9.8-1.3l.8-1.1 1-1.2.6-.8c.4-.1.8-.6 1.1-.8l.8-.6 1.2-.9 2-1 1-.5.9-.2L.4 47l1.6-.4.4-.1 1.7-.2 1.8-.3h5.3c2 .1 4 .2 6 .6.8.1 1.8.3 2.5.6.6 0 1.3.3 1.8.4l1 .4c2.1.8 4.1 1.9 5.7 3.4l.8.8.7.8c.5.6 1 1.1 1.3 1.7l.7 1.1.6 1.2.2.3c.2.7.7 1.4 1 2.2l1.2 4.5.3 1c0 .2 0 .4.2.7l.1 1.1.1 1.2.2 1.1.4 5V76v9.5c-.2.5-.2.9-.2 1.4l-.1.9v.2l-.2 1.3v1l-.9 4.4c-.2.3-.3.8-.4 1.3-.2.7-.3 1.5-.7 2.2l-.8 2.2c-.5 1.2-1.2 2.4-1.9 3.4l-.6.8-.4.4-.4.6-1.2 1.2-1.5 1.2-1.7 1-.7.5-.9.3-1.4.7c-1.4.5-2.8.9-4.3 1.1-.7.1-1.2.3-1.9.3l-2 .1h-.1l-.8.2H11c-.8 0-1.3-.2-1.2-.4l.2-.1 2-.3 4.3-.3 2.9-.5c1-.3 2.1-.4 3-.9.8-.4 1.8-.7 2.6-1.3.6-.4 1.4-.7 1.9-1.2.6-.5 1.3-.9 1.8-1.5l.9-1 1.7-2.5c.5-1.2 1.3-2.3 1.6-3.6l.7-2 .3-1 .3-1.2.1-.7.4-2 .3-1.1.1-1.2.1-.9s.1-.3 0-.4l.2-1.5.2-3.8v-3.1l-.1-2v-1.5-1.6c.1-.6-.1-1.4-.1-2.2 0-.4-.2-.8 0-1.2l-.1-.2-.1-1.7-.3-2.3-.4-1.8-.3-1.3-.2-1.3-.4-1.2L33 60l-.6-1.3-.6-1.3-.7-1.3-1.1-1.6-1.3-1.5-.7-.8-.9-.8-.3-.2-.8-.6-.9-.6c-.3-.2-.6-.4-.9-.4-.6-.4-1.2-.6-1.8-.8l-.5-.3-.3-.1-1.3-.4-1.3-.3-2.5-.5H15.6l-1.9-.2h-2.5l-1.9-.2H7.5c-1.5 0-3.1.2-4.7.4l-.6.1c-.4.2-.8.4-1.2.3H.8c-.4.2-.8.4-1.3.4l-2.3 1-2.2 1-.6.5c-.4.1-.4.3-.6.5-.2 0-.5.3-.6.4-.7.4-1.2 1-1.7 1.6l-1.1 1.4c-.7.9-1.4 1.9-1.8 2.9-.6 1-.9 2.1-1.3 3.2-.2.5-.3.9-.3 1.4l-.2.4-.3 1-.2 1.1-.1.9-.2.9c-.2.6-.4 1.3-.5 2.2l-.3 2.3v1l-.1 1.3-.1 1.7V84.1l.2 1.6v.4c.1.6 0 1.2.2 1.8l.1.2c-.1.7.1 1.4.2 2l.3 2.1.5 2.4c.3 1.4.7 2.6 1.2 3.9.3 1.3 1.1 2.5 1.7 3.7l1 1.4 1.3 1.5c.3.5.8.9 1.3 1.3l.6.6.2.3c.5.3.9.5 1.3.9l.5.3c.4.3.8.5 1.3.6l1.2.5.3.2c.8.4 1.8.4 2.6.9.4-.1.7.1 1 .2l1.2.1c.3.2.8.2 1.1.2l2.2.2 1 .1h.3c.7 0 1.7.1 1.9.3.1.1.1.2 0 .2l-.6.2-1.1.1-1.8-.1v-.1zM43 119.8l.8-1.2.8-1.3.4-.7.2-.6v-.1l.8-1.7.8-1.8c.2-1.1.8-2.1 1.1-3.2.1-.3.1-.6.4-1l.3-.9v-.1-.4l.4-1.1v-.2l.2-.9c.1-.2.2-.5.1-.7l.1-.3.1-.8.2-.9.1-.4v-.5l.2-.4v-.3-.9l.1-.9.1-1 .1-.6c.1-.3 0-.5.2-.7v-.1l.2-1.4.1-2.4c0-.3 0-.5.2-.7v-.2c0-.2-.2-.4 0-.6V89.5 89v-.5l.1-.5-.1-.6v-1-.4l.2-.4-.1-.8c0-.3.1-.5 0-.8v-.1c.1-.3.1-.5 0-.8v-.8l.1-.8c0-.2-.2-.3-.1-.5l.1-.4V80v-2.6l.1-1.1-.1-.8-.1-.5-.1-2.8-.2-1.9v-.5l-.1-.6V69c.1-.3-.1-.6-.1-1l-.2-2c-.1-.1 0-.3-.2-.4v-.3c-.1-.2-.2-.4-.1-.5l-.1-.5v-.5l-.4-2.2-.1-.4v-.4l-.1-.3-.2-1.1-.3-.9-.1-.4-.4-1.4-.1-.6-.1-.4-.1-.1-.1-.5-.1-.4-.5-1.9-.2-.6-.3-.9-.4-1c-.3-.5-.4-1.1-.6-1.6l-.1-.4-.1-.2-.2-.2c-.1-.3 0-.6-.2-.7l-.3-.8-.4-.7-.2-.4-.2-.3-.3-.6-.9-1.6-.6-.8-.4-.6v-.1l-.3-.3-.3-.3-.2-.3-.3-.4h.1l.5.7c.5.4.8 1 1.2 1.5l.8 1 .7 1.2.8 1.1.4.9.5.9.1.7.7 1.1.6 1.7.4.9v.4l.3.6v.3l.2.9.2.5.1.5.1.4v.2c.2.2.2.4.2.6l.4 1.6.4 1.3.2 1 .2.6v.7l.2 1c.1.1.2.3.1.5v.2c.2.1.2.4.2.7l.2 1 .1.8.1.5.1.7v.5l.2.6v.6l.1.7v.6l.2 1.8v.5l.1.5V73.1l.1.5v.5c-.1.3.1.6.1.9l-.1.2v.2c.2.7.1 1.6.1 2.3v1.5l.1.8c.1.3-.1.6-.1.9l-.1.7V84c0 .2.1.4-.1.6v.1l.1.6-.1 2.2v.3c-.1.2.1.2 0 .4v.3l-.1 1v.9l-.1 1.5-.1 1.6v.8l-.1.5V96l-.3 1-.1 1v.5l-.1.5-.1.8v.3l-.3 1.9-.1.4v.3l-.2.6-.1.7-.1.7-.1.2c0 .3-.2.5-.1.8v.1c-.2.2-.2.6-.2.9l-.4.9c0 .4-.1.7-.3 1l-.6 1.7c-.1.6-.4 1.2-.6 1.7l-.3.8-.4.8-.3.8-.2.3-.1.1-.3.7-.2.2-.3.5-.2.6-.1.1-.7 1.1-.2.3-.3.5-.3.4-.6.8-.2.3-.1.1-.6.7.2-.2.3-.4c.1-.2.2-.5.4-.6v-.1z"/><path d="M47.8 68c.2.3.2.7.2 1l.3 1 .1.6.1.4v.1l.2 1.3.2 1.5c.2.7.1 1.5.1 2.3 0 .3.1.5 0 .8V84.7l-.1.4-.1.5-.1 1-.2 1.8V89c-.1.1.1.3 0 .4l-.1.4v.8l-.1.4v2 1.3.5l-.1.6v.6.3l-.1.3-.1.4-.2 1.8c-.1.2 0 .6-.2.8V100.5l-.3 2-.3 1.3v.4c-.1 0-.2.2-.1.4v.1c-.2.2-.1.5-.2.7l-.4 1.4v.3l-.1.2c0 .1 0 .3-.2.4v.3l-.2.3-.5 1.5-.1.2-.2.3v.2c-.1.3-.3.5-.3.8l-.2.7-.1.2-.4 1-.1.3c-.1.1-.2.2-.1.3v.1l-.3.3v.3l-.7 1.2-.3.3c-.1.3-.1.5-.3.7l-.4.7c-.1.4-.4.6-.6 1l-.2.2v.2l-.2.2c-.1.1-.3.1-.3.3l-.5.5c0 .2-.2.3-.3.4l-.3.2-.2.2-.2.4-1.1.8-.5.4-.5.3v.1l-.2.1-.3.2-.2.1-.3.2h.1l.4-.4 1-.8.7-.7.7-.7.6-.6.4-.6.4-.6.3-.3.5-.8c.1-.4.4-.7.6-1.1l.3-.6.1-.3c.2 0 .2-.2.2-.3l.1-.2.4-.6.2-.3.1-.3.1-.2.1-.2.2-.4.4-1.1.3-.9.2-.6.2-.4.2-.5.3-.7.1-.3s.1 0 0-.1l.2-.5.2-.6.2-.6.1-.4.1-.4.1-.4.1-.4.1-.4.1-.5.2-.4.2-1.2.1-.4c0-.1.1-.2 0-.4l.1-.4v-.3-.3l.1-.6v-.2l.1-.1c-.1-.5.1-1.1.2-1.6v-.2-.1-.5l.1-.2v-.6c-.1-.2 0-.4.1-.6l.1-.5.1-1.5s.1-.1 0-.2v-.3-.1-.4c.1-.5 0-1 0-1.6v-.2-.3l.1-.2v-.7-.6c.2-.4.1-.7.2-1.1v-1.1-.5-.4-.3-.3-.3c.2-.2.3-.4.3-.7v-.7-.8-.5-.2l.1-1.3v-.3-.2-.5-.5-.4-.2-.6V77.5v-.8-1.2-1.3l-.1-.5V73l-.1-.5v-.3-.2-.4-.2l-.1-.4-.1-.4v-.1-.9-.3l-.1-.3v-.4l-.2-.6v-.4-.1l-.1-.5c0-.1 0-.1 0 0l.1.1.1.3.1.6h-.1zM22.1 95.7l.2-.1.1-.1.1-.1c.1-.2.2-.4.4-.4l.4-.6.4-.5v-.1l.1-.1.2-.4.3-.5c.3-.6.7-1.3.8-1.9l.1-.3.2-.4c0-.1.1-.2 0-.2l.2-.4v-.1-.1l.1-.3.1-.6c.2-.5.2-.7.2-1.1l.1-.9.1-.2-.1-.1.1-.2v-.2-.3-.3-.1l.1-.1v-.2-.1-.4l.1-.6-.1-.2.1-.1v-.1-.4-.2l.1-1.5V81v-.7-.6-.3-.4-.7-.3-.3-.2-.5-1.4-.3-.2-.3-.1l-.1-.2V74v-.2-.2l-.1-.4v-.1-.1-.5l-.1-.8v-.3l-.1-.5-.1-.2v-.1l-.1-1.1-.1-.3-.1-.6-.1-.2v-.1-.1-.1l-.1-.1-.2-.8c-.2-.5-.3-.9-.6-1.3l-.1-.5-.1-.1-.2-.3-.8-1.3-1.5-1.8-.2-.1-.2-.2h-.1l-.2-.2-.1-.1-.1-.1-.1-.1-.2-.1-.2-.1-.1-.1-.5-.3v-.1h-.2l-.2-.2-.1.1-.6-.4-.9-.4h-.1l-.3-.1-.9-.4-1.1-.3h-.2l-.1-.1H15l-.4-.1-1-.2-.8-.1h-.5l-.3-.1h-.5l-.2-.1H8.5l-.8.1-.2.1H7h-.3l-.4.1-.5.1h-.4l-.2.1H5l-.1.1h-.1l-.3.1h-.1l-.4.1-.2.1-.3.1-.5.1-.7.3-.3.1-.7.3-.1.2-.7.3-.9.7-.8.6-.3.4-1 1-.5.6-.1.2v.1l-.1.1h-.1v.1l-.1.2v.1l-.2.2-.1.2-.1.2-.1.1-.1.3-.1.3-.1.3h-.1l-.1.2v.2l-.3.6v.3l-.1.2-.2.5-.2.8v.2h-.1l-.2 1.4-.1.2-.1.4v.3l-.1.3v.2l-.1.7c-.1 0 0 0 0 0l-.1.1v1.8l-.1.6-.1.4V77l-.1.2.1.5-.1 1.3V81.9l.1 1.3v.3l.1.7v.7l.1.1V86.4l.1.2.1.4v.2l.1.5v.1l.1.4.1.4.1.3v.2l.1.4v.1l.1.1V90l.2.4.2.7.1.2.1.1v.1l.1.2.2.4.1.2v.1l.2.3v.2l.1.1.2.4v.1l.4.5.3.4.4.5.1.1.2.2.2.1v.1h.1l.1.3.4.3.5.4.1.1.4.3.2.2c.3 0 .4.2.6.3l.3.2.3.2.3.1.8.5.4.2.2.1.7.2c.2.2.5.2.7.2l.6.2.3.1.1.1h.2l.3.1.7.1h.1v.1c.1-.1.2 0 .2 0H7l.1.1h.8l.1.1h.1l.1.1h4.9l.5-.1.2-.1.7-.1.5-.1h.1l.1-.1.1.1c0-.1 0-.1 0 0l.3-.1.8-.3.3-.1.1-.1h.5v-.1h.1l.4-.2.2-.1.3-.1.7-.4.2-.1.4-.2 1.1-.8c.5-.2.8-.6 1.2-1h.1v-.1l.1-.1h.1v-.1M-1.8 61v-.1l.1-.1.3-.2.1-.1.1-.1.1-.1h.1l.5-.4.1-.1.2-.1c.2 0 .2-.1.2-.2l.3-.1.7-.4h.1l.9-.4.2-.1.6-.2.4-.1.6-.2H4l1-.3.6-.1.4-.1h.4c.1-.1.1-.1.1 0l.1-.1h.3l.9-.1h4v.1h.5l.6.1h.7l.4.1h.3l.3.1h.1l.7.2.2.1.6.1 1.3.4h.1l.4.2.3.1.7.3.5.3.8.4h.1l.6.4.4.3.1.1h.1l.4.4 1 .8v.2c.2 0 .3.2.5.3l.1.2.2.3.1.1h.1l.1.3.2.2v.1h.1v.1l.1.2h.1v.2l.3.4.2.4.1.2.1.2.1.2.2.5.2.6.2.5.2.7.1.3.1.4.2.7v.3l.2 1.1.2.9v1l.1.6.1.6v2.2l.1 1.1V80l-.1.9v2.3l-.1 1.1-.1.1.1.1-.1.6v.3c0 .7 0 1.6-.2 2.3v.1l-.1.2V88.3l-.1.1v.4l-.1.4v.1l-.1.2v.1l-.1.1v.2l-.2.4-.1.4-.1.3-.2.5-.1.5-.2.4-.2.3v.2l-.2.1c0 .4-.2.6-.4.9l-.5.8H24v.1l-.6.8-.1.2-.5.5-.2.2-.2.2-.2.3H22c0 .2-.2.3-.3.3v.1h-.1l-.1.1-.1.1-.1.1-.5.3-1.2.7-1.4.7-.2.1-.4.2h-.1l-.2.1h-.1c0 .1-.2 0-.2.2 0-.1 0 0-.1 0h-.3s.1 0 0 0h-.1l-.3.1-.1.1-.5.1h-.3v.1H15l-.2.1H14.2l-.4.1-.6.1h-.4c-.1 0-.1.1-.2 0l-.3.1H9.5 9h-.4l-.3-.1c0 .1 0 0 0 0h-.1H8l-.5-.1H7l-.3-.1h-.3-.1l-1.3-.4-1.2-.3-.8-.2-.4-.2h-.1l-.2-.1-.3-.1-.2-.2-.4-.1-.1-.1-.3-.1-.1-.1-.1-.1H.7l-.2-.1L0 98l-.2-.1-.8-.5-.8-.7c-.4-.2-.6-.5-.9-.8l-.1-.1-.8-.9-1.1-1.9-.5-.9-.3-1-.2-.6-.1-.3c-.2-.2-.2-.6-.3-.9l-.1-.5-.1-.2-.1-.6-.1-.5-.1-.5v-.5l-.1-.6v-.3l-.1-.4v-.3-.4l-.1-.5-.1-2v-1.5-.2-.6-.7-.4-.1-.2-.5-.8-.2l.2-2V74l.1-.6v-.1-.3l.1-.4v-.2l.1-.9v-.4-.1l.1-.1v-.1-.3l.1-.7.2-.4.1-.3v-.6l.2-.3v-.4l.1-.3.1-.1v-.2l.2-.5v-.1l.2-.6.2-.2c0-.4.2-.7.3-1l.4-.8.3-.6c.2-.1.2-.3.3-.4l.2-.1v-.1l.1-.2.2-.2.2-.2v-.1l.5-.5.2-.2.1-.1.2-.1v-.1s0-.1 0 0l.2-.1v-.1"/><path d="M8.5 55.8L8 56l-.5.1H6.4l-1.2.2-.2.1-.4.1c-.9.1-1.8.4-2.6.6l-.2.2-.4.1-.1.1-1 .5-1.2.6-.1.1-.2.2-1 .6-.7.6-.3.4-.6.6c-.2 0-.2.2-.2.3l-.6.6-.1.2-.3.5-.3.4-.4.7-.3.6-.3.7c-.2.2-.3.5-.3.8l-.4.7v.5l-.2.4-.1.2-.2.6v.2l-.1.2v.2l-.2 1.2-.2.8V71.8c0 .1-.1.2 0 .2l-.1.4-.1.2v.7c-.1 0 0 .1 0 .2 0 0-.1.1 0 .1l-.1.4-.1 1.1v4.7l.1.7V81.9l.1.3v1.3l.1.2v.5l.1.2v2.1l.2 1 .1.4.1.7v.4h.1v.5l.1.1v.4h.1v.1l.1.3v.2l.1.1.1.3c0 .4.2.7.3 1v.2l.2.4.1.2.1.2v.1l.3.5v.2l.3.4.2.5.2.2v.1l.1.2.2.1v.2l.2.2.1.1.2.3.1.2h.1l.2.2.1.2.1.1.2.2h.1l.1.2.3.3.2.2.5.4.1.1.3.2.2.2h.2l.4.4 1.3.7.6.3.4.2.2.1.1.1.7.2.5.2.2.1.5.1.2.1h.1l.1.1.6.1.3.1.8.1.3.1.4.1.5.1H7.1l.3.1h.1l.5.1h4.7l.3-.1.2.1h.1v-.1s.1.1.2 0h.4l.2-.1h.8l.1-.1 1-.2c.1.1.2 0 .2 0h.1c1-.2 1.9-.5 2.7-.9h.1l.8-.4.6-.2.7-.5 1-.7.2-.2.2-.2.2-.1.4-.4.3-.3.3-.2v-.1l.7-.7.3-.4.3-.4.4-.5.3-.5.4-.8.3-.5.2-.5h.1v-.2l.1-.1.1-.1v-.1-.1-.1l.3-.5.3-1.1.2-.7.2-.6.2-.7v-.2l.1-.2V88l.1-.3v-.2-.1-.1l.1-.1V87v-.2-.2-.1l.1-.4v-.4-.1l.1-.7v-.7l.1-.6-.1-.2.1-.9v-.2-.1-.2c0-.5.1-1.2 0-1.6l.1-1.4v-.5l-.1-.3v-.5-.2-.2-.8-.4-.1-.2c0-.1-.1-.3 0-.4l-.1-.4v-1-.5l-.1-.3V73v-.2-.3l-.1-.4V72v-.2-.3l-.1-.1h.1l-.1-.3v-.2l-.1-.4v-.2-.3l-.1-.1v-.1l-.1-.3v-.1l-.1-.2V69v-.2-.2l-.1-.3v-.1c-.1 0 0-.1 0-.1l-.1-.1-.1-.4-.1-.3-.6-1.8-.4-.8-.5-.9-.1-.3-.2-.3-.3-.5-.1-.1-.1-.1v-.1l-.1-.1-.2-.3v-.1l-.1-.1-.2-.3h-.1l-.2-.3-.1-.1-.3-.4-.3-.3-.1-.1-.2-.2-.2-.1-.9-.9-.3-.1-.2-.2h-.1l-.4-.3-1.9-1-.7-.2-.2-.1-.5-.2-.5-.1-.2-.1-.3-.1-1.5-.3-.5-.1-.5-.1h-.2l-.7-.2h-1.1-.5l-.8-.1H11l-1-.1H8.5m3.3 0h.6l.6.1h.4l.2.1h.6l.5.1h.3l.3.1h.1l.2.1h.2l.4.1h.2l.3.1.3.1.3.1.4.1.5.2.8.2v.1l.5.2.5.2.9.5.4.2.2.1.3.2.4.3 1.3 1 .3.3.5.7.3.2.5.8.5.6.2.4.4.7.5 1h.1l.1.3.1.1V65.4l.2.2.2.6.2.5.1.4v.2l.3 1v.2l.1.2.1.3.1.6.1.4.1.7.1.6v.7l.1.2s-.1.1 0 .1V73.2l.1.5v1.1l.1.2c0 .2-.1.3 0 .4v1.2l.1.1V81.1l-.1.9v1.4l-.1.9v.1l-.1.7v.5c.1.1 0 .4 0 .4l-.1.7v.4l-.1.2-.1.8-.1.4-.1.5v.2l-.1.1-.1.2V90.1l-.1.1s.1 0 0 .1l-.1.2-.1.5-.1.1v.1l-.1.1-.5 1.3v.4l-.3.3-.7 1.3-.2.4-.1.1-.1.2-.2.3-.2.4-.2.1v.1l-.3.3v.1h-.1v.1l-1 1-.1.1c-.1.2-.2.2-.3.2l-.2.1c0 .2-.2.4-.4.5l-.3.2-.1.2h-.1l-.2.2-.2.1-.3.2-.4.3-.3.2h-.3l-.7.5h-.2l-.1.1-.4.1-.4.3h-.2-.2l-.2.1-.4.2h-.2l-.7.2-.9.2-.4.1h-.2l-.4.1h-.2l-.2.1h-.1H13h-2.5l-.5.1H9.7l-.4-.1H9v.1l-.4-.1H7.2h-.8l-.4-.2h-.2-.1l-.3-.1h-.2l-.2-.1h-.2l-1.1-.2-.1-.1-.6-.2-.7-.1-.3-.2-.9-.4-.8-.4-.5-.2-.1-.1-.3-.2-.4-.2-1.2-.8-.3-.3c-.5-.2-.7-.6-1.1-.9l-.9-1-.3-.3-.1-.2-.1-.1v-.1l-.4-.5-.1-.1v-.2l-.1-.1-.3-.4-.1-.3-.1-.1v-.1l-.1-.2-.1-.2-.1-.1-.1-.3-.1-.2-.1-.3c-.1-.2-.1-.5-.3-.6v-.3l-.1-.3-.2-.7c0-.1-.1-.1 0-.2l-.2-.4-.1-.6v-.1l-.1-.5-.2-.8-.1-.4V87l-.1-1-.1-.3V85v-.2-.1-.2l-.1-.1.1-.1-.1-.1v-.5-.6l-.1-.8V82v-.4-.4-.4l-.1-.6v-.5-1.2-.3-.9-.3-.3-.9l.1-1.1v-.3-.8l.1-.9v-.3l.1-.2V72v-.3l.2-.7v-.1l.1-1.2.1-.3V69c.2-.3.2-.7.3-1.1l.3-1.1.2-.3v-.3l.3-.6.3-.7v-.1l.2-.3v-.1l.2-.2V64l.1-.2.4-.7.1-.1.4-.6v-.1l.1-.2.2-.1.2-.3.2-.3.2-.3.6-.7.5-.4.3-.3.3-.3.2-.2.2-.1.2-.1.2-.2.5-.3.3-.2h.1l.2-.2.3-.1.2-.1.6-.4h.1l.2-.1.1-.1.2-.1h.1l.4-.2.4-.1.4-.2H2.8l.2-.1 1.5-.4.8-.2H6.2l.3-.1h.2l.2-.1h.4l.5-.1h3l1 .1"/><path d="M13.4 89.9c-.2.4-.2 1-.2 1.4.2.5.4.9 1 .9.5.1.9-.2 1.1-.6.2-.4.2-1 .1-1.4-.2-.4-.4-.7-.8-.7-.4-.1-.9 0-1.2.4zm1.4 2.5l.1.1.1.2.5.3.5.1.3.1.1.1-.3.1c-.3 0-.6 0-.9-.2-.3-.1-.6-.2-.8-.5l-.2-.2-.2-.1-.5-.1c-.5-.3-.8-.8-.8-1.3 0-.7.3-1.2.7-1.5.6-.4 1.3-.4 1.8 0 .5.3.8.8.8 1.3 0 .6-.3 1.2-.8 1.4l-.4.2M6.6 89.3h2.5c.2-.1.2.2.2.4 0 .1.1.3 0 .4 0 .1-.1.1-.1 0l-.1-.1c0-.3-.1-.4-.3-.5l-.3.1H8v2.6l.3.1h.2c.1.1.1.2 0 .2l-.5-.1-.4.1h-.4l-.1-.1.1-.1.4-.1V92v-1-1.3-.1h-.2l-.3-.1-.5.1-.1.4c0 .2-.1.2-.2 0l.1-.5c0-.1 0-.3.2-.2zM10.4 89.6l.1.2.2.3.5.7.5-.8c.1-.2.3-.5.1-.5l-.2-.1c-.1-.1.2-.1.3-.1h.5l.2.1c.1.1-.1.1-.2.1l-.3.3-.5.9-.3.3v1l.1.2c.1.1.2 0 .2 0l.2.2-.2.1c-.3 0-.6-.1-.8 0-.1 0-.5 0-.5-.2l.3-.1h.2V92c.1-.1 0-.3 0-.4v-.5l-.2-.3-.3-.5c-.1-.1-.1-.3-.3-.3l-.1-.4-.3-.1c-.1-.1-.1-.2 0-.2.1-.1.3 0 .4 0h.7c.1.1.1.1 0 .2h-.3M3 89.3l.1.1-.1.1-.3.1-.1.3v1.9l.1.4.2.1H3c.2.1 0 .2 0 .2l-1-.1c0 .1-.2.1-.2 0l.2-.1.2-.1V92v-.5V90c0-.2.1-.4-.1-.5-.1 0-.5 0-.3-.1l.5-.1H3M19 89.5l-.5-.1.3-.1h.4c.1 0 .5-.1.5.1s-.3 0-.4.2c-.1.1 0 .2 0 .4v1.4c0 .3-.1.6-.3.7-.1.2-.4.3-.6.4-.5.1-1.2 0-1.6-.3-.2-.2-.2-.5-.2-.8v-1-.4-.4l-.1-.1h-.3s-.1-.1 0-.1l.4-.1h.5c.1 0 .4-.1.4.1s-.4 0-.5.2V91.5c0 .2 0 .4.3.5.2.3.7.3 1 .2l.5-.2c.2-.2.2-.4.2-.6v-1-.4-.5"/><path d="M20.6 89.6v1.1h.8l.1-.1.1-.3c.2-.1.2.1.2.2v.5l-.1.4c-.2 0-.1-.3-.2-.4H20.6v1l.2.2h1c.2-.2.1-.5.2-.6.1-.1.2 0 .2.1v.3l-.1.4-.2.1-.9-.1-1.1.1c-.1 0-.2-.1-.1-.2h.2l.2-.1V92v-.5-1.1-.4l-.1-.4-.4-.1c0-.2.2-.2.3-.2h2V90.2c-.2 0-.2-.4-.3-.5-.1-.2-.3-.1-.5-.1h-.6M5.2 90.8c.2-.2.3-.6.2-.8l-.4-.4h-.4-.1v1.2c0 .1 0 0 .1 0l.1.1.5-.1zm-.7.2v1l.1.3h.3l.1.1-.4.1-.4-.1-.5.1c-.1 0-.2-.1-.1-.2H4v-.2-1.6-.8-.2h-.2l-.2-.1.2-.1h.8l.7.1c.5.2.7.7.5 1.2-.3.4-.8.4-1.3.4zM8.6 96H9l-.3-.4-.1.4zm.3-.8l.3.8.2.5.1.2h.1c.1 0 .1.1 0 .1l-.1.1c-.1-.1-.2 0-.4 0l-.1-.1.2-.1-.2-.3v-.2h-.4l-.1.1-.2.4.2.1c0 .1-.2 0-.2 0H8v-.1l.1-.1.4-.8.2-.4.2-.2M12.4 95.3l-.2.1v1.3l.2.1c.1.1-.1.1-.1.1l-.3-.1-.2.1-.1-.2H12v-.1-.5-.4l-.1-.3-.2-.1h.3c.1 0 .4-.1.4 0zM13.7 95.2l.1.2v.2c0 .1-.2.1-.2 0l-.1-.2c-.1-.1-.3-.1-.4 0l-.1.4.4.2c.3 0 .6.2.5.5-.1.3-.3.4-.6.4l-.3-.1h-.2v-.2c0-.1-.1-.2 0-.2l.2.1c0 .1 0 .2.2.2.2.1.4 0 .4-.2 0-.3-.4-.3-.6-.5-.2 0-.3-.3-.1-.5.1-.4.5-.2.8-.3M10.7 96v-.6h-.2-.1l-.1.1v.5h.4m.1 0l.2.4.3.3.1.1-.2.1c-.2 0-.2-.1-.3-.2l-.2-.4-.2-.1h-.1c-.1 0-.1-.1-.1 0v.5l.2.1c.1.1-.1.1-.2 0-.1 0-.3.1-.4 0-.1 0-.1-.1 0-.1h.1v-.1-.3-.5-.3-.1l-.2-.1.1-.1.3.1c.3-.1.6-.1.8.1.2.2 0 .6-.2.6zM7.6 95.7l-.2-.3h-.2v.6h.2l.2-.3m-.9-.5c.3.1 1.2-.1 1.2.5 0 .3-.2.4-.5.4 0 .1-.1.1-.2 0v.2c0 .1-.1.4 0 .4h.2c.1.2-.2.1-.2.1H7l-.3.1v-.2h.1l.2-.1v-.2-.5l-.1-.5h-.2v-.2M11 60c.2 0 .2.3 0 .3V60zM11.5 60.2c.2 0 .2.3 0 .3s-.2-.2 0-.3zM10.4 60.4c.2 0 .3.3.1.3-.1 0-.2-.2-.1-.3zM9.8 60.7c.1.1 0 .3-.1.3-.2 0-.2-.4.1-.3zM11.3 60.8c.1 0 .2.2 0 .2-.2.1-.3-.2 0-.2zM12.6 61.1c-.2.2-.4-.1-.3-.2l.2-.1.1.3zM10.6 61c-.1.2-.3 0-.2-.1.1-.2.3.1.2.1zM9 61c.3 0 .3.3 0 .3-.1 0-.2-.3 0-.3zM11.9 61c.1 0 .1.3 0 .4-.2 0-.3-.4 0-.4zM9.8 61.3s-.1-.1 0-.2c0-.1.2-.1.2 0v.1l-.2.1zM10.8 61.4c0 .2-.3.1-.2-.1.1-.1.2 0 .2.1zM12.5 61.5l.1-.2c0-.1.1-.1.1 0 .1.1-.1.3-.2.2zM11.3 61.3v.3c-.3 0-.3-.4 0-.3zM10 61.5c.1 0 .2.3 0 .3s-.3-.3 0-.3zM10.8 61.8c-.1-.1.1-.4.2-.2 0 .1 0 .2-.2.2zM8.7 61.6H9v.2c-.1.2-.3 0-.3-.2M12.1 61.6c.2-.1.2.2 0 .2-.1 0-.1-.2 0-.2zM13 61.6v.3c-.2 0-.2-.2 0-.3zM12.7 61.8c.1.1 0 .2-.1.2s-.1-.2.1-.2zM10.4 61.9c.2-.1.3.3.1.3-.2 0-.3-.3-.1-.3zM11.6 61.9c.2-.1.2.2 0 .3-.2 0-.1-.2 0-.3zM9 62c.3 0 .2.4 0 .4s-.2-.3 0-.4zM12.6 62.2l-.1.3c-.2 0-.2-.4.1-.3zM8.3 62.5c-.1.2-.4.1-.3-.2 0-.1.3 0 .3.2zM11.6 62.4l.2.1-.2.2c-.1 0-.2-.3 0-.3zM7.4 62.5c.1 0 .2.3 0 .3-.1.1-.2-.2 0-.3zM13.6 62.6c.1.2-.1.4-.3.4 0-.2.1-.4.3-.4zM12.8 62.7c.1.1 0 .3-.2.3 0-.2 0-.3.2-.3zM7.8 62.7c.2 0 .2.3 0 .3s-.2-.3 0-.3zM8.9 63c-.1 0 .1-.3.2-.2.2.2 0 .5-.2.2zM6.9 62.9c.1-.2.3.1.2.1l-.1.1c-.2-.1-.2-.1-.1-.2M12.5 63.1c.1.2-.2.3-.2.1-.1-.1.1-.2.2-.1zM13.2 63.2c0 .1-.2.1-.2 0s0-.2.2 0zM8.6 63.2c.3 0 .3.3.1.3-.2 0-.2-.3-.1-.3zM8.2 63.2v.3c-.2 0-.2-.1-.2-.2v-.1h.2zM10.4 63.5c-.1.1-.2 0-.2-.1 0-.2.4-.1.2.1zM14 63.3v.2c-.2.1-.3 0-.3-.1l.3-.1zM7.1 63.4c.2.1-.1.4-.2.1-.1-.1.1-.2.2-.1zM13.5 63.8c-.2.1-.3-.2-.1-.3h.1v.3zM7.8 63.7c.1-.1.2 0 .2.1 0 .2-.3.1-.2-.1zM7.3 63.7c.1-.1.2.1.1.2l-.1.1v-.3zM10.7 64c-.1-.1 0-.3.1-.3.2.1.2.4-.1.3zM13.4 63.9l.2-.1.1.1-.1.2c-.1.1-.1.1-.2 0s-.1-.1 0-.2zM6.3 64.1c-.1-.1 0-.3.1-.3.2 0 .2.4-.1.3zM14 64c.2 0 .3.2.2.3-.2.2-.5-.2-.2-.3zM7 64.3c-.1 0-.2-.2 0-.3.1 0 .2.2 0 .3zM9.4 64.1c.2-.1.2.3 0 .3-.1 0-.2-.2 0-.3zM13 64.1v.3c0 .1-.1.1-.2 0s0-.3.2-.3zM6.2 64.3l-.2.2-.1-.2c-.1-.2.1-.3.3 0M8 64.5c-.1-.1 0-.5.2-.3l.1.2-.3.1M10.8 64.5c-.1 0-.3-.2-.1-.3h.1c.2.1.1.2 0 .3M12.4 64.5l-.2.1-.2-.1.1-.3c.2 0 .3.1.3.3M8.8 64.5c.2 0 .2.1.2.2-.1.2-.4-.1-.2-.2zM13.8 64.8l-.1.1-.1.1h-.1c-.1-.2 0-.4.1-.3l.1-.1.1-.1h.2c.1.1.1.2 0 .2 0 .2-.1.1-.2.1M6.9 64.5l.1.3-.3.1c-.2-.1 0-.4.2-.4zM8.2 64.7c.1.1 0 .3-.2.3-.1 0-.1-.5.2-.3zM11.6 65c-.2-.3.3-.5.3-.2.1.2-.1.2-.3.2zM12.9 64.7c.1.1-.1.3-.2.3-.1-.2 0-.4.2-.3zM6.2 64.8L6 65l-.1-.1c-.2-.2 0-.3.2-.1zM14.4 65l.1-.2c.1-.1.2 0 .2.1l-.3.1zM10 64.9l-.3.1v-.2c.1-.1.1 0 .3.1zM13.3 64.9l-.1.3-.2-.1c0-.1.1-.2.3-.2zM8.8 65.2c-.1-.2.3-.2.2 0 0 .1-.2.1-.2 0zM7.6 65.1c.2-.1.2.3 0 .3-.1 0-.2-.2 0-.3zM15 65.1c.2.1.1.4-.1.3-.2-.1-.1-.4.1-.3zM14.2 65.3c-.1.2-.4.1-.3-.1l.1-.1c.2 0 .1.1.2.2zM11.7 65.2c.3-.2.3.2.1.3l-.2-.1c-.1-.1 0-.2.1-.2zM7 65.4c0-.1-.1-.2 0-.2l.2.1c.1.2-.2.3-.2.1zM9.6 65.5l-.2-.1.1-.1c.1-.1.1.1.1.2zM6.3 65.6c0-.1-.1-.1 0-.2l.2-.1.1.2-.3.1zM8.3 65.5s-.1-.1 0-.2h.1l.1.2c0 .1-.1.1-.2 0zM12.6 65.3c.3 0 .2.4 0 .3v-.3zM9.2 65.4c.1.3-.3.2-.2-.1l.2.1zM13.4 65.6l.1-.1.1-.1.2.2c0 .2-.3.2-.4 0zM5.2 65.9l-.2-.1v-.2c.2-.2.3.2.2.3zM12.1 65.8c-.1-.2.1-.3.2-.2.1.1-.1.2-.2.2zM14.5 65.9l-.1-.1v-.2h.2c.1.1 0 .3-.1.3zM5.7 66l-.1-.1-.1-.2.2-.1c.1.1.1.2 0 .4zM15.2 65.6c.2.2.1.4-.2.4-.2 0 0-.4.2-.4zM6.3 66c-.3 0-.3-.2-.3-.3.3-.1.4.1.3.3zM13 65.7c.3.2-.1.3-.2.2l.2-.2zM9.8 65.8c.1.2-.2.3-.2.1-.1-.2.2-.3.2-.1zM10.4 66c-.2.2-.4 0-.2-.2 0 0 .1-.1.1 0l.1.2M13.8 66c-.1 0-.2 0-.1-.2h.3c0 .2 0 .3-.2.2zM8.6 65.9l-.1.1c-.3.1-.1-.3.1-.1zM7.3 66.1c0-.1.1-.3.2-.1.1 0-.1.2-.2.1zM4.8 66.2c-.1 0-.2 0-.2-.2H4.9c.1.1-.1.1-.1.2zM15.7 66c.2 0 .3.2.1.3-.2.2-.4-.3-.1-.3zM7.8 66.2L8 66v.2l-.1.1-.1-.2zM6 66.2c.1-.1.2.3 0 .2-.1 0-.2-.2 0-.2zM8.7 66.3c.1.1-.1.2-.2.1-.1-.2.2-.2.2-.1zM12.9 66.3c.1.1-.1.2-.2.2-.3 0-.1-.5.2-.2zM10 66.5v-.2s.1-.1.2 0-.1.2-.2.2zM4.8 66.3c.2 0 .2.2.2.3l-.2-.1c-.1-.1 0-.1 0-.2zM5.5 66.6l-.1-.1c-.1 0-.1-.1 0-.2l.2.1-.1.2M7.1 66.4l-.1.1s-.1-.1 0-.1c0-.1.1-.1.1 0zM14 66.7c-.1 0-.2-.1-.1-.3h.1v.3zM15.3 66.5c.1.1 0 .2 0 .2H15c-.1-.2.2-.3.3-.2M8 66.5c.1 0 0 .2 0 .2-.3.1-.3-.3 0-.2zM13.2 66.8v-.2c0-.1.1-.2.2-.1.2.1 0 .5-.2.3zM8.4 66.8h-.1c-.1-.1 0-.2.1-.2s.1.2 0 .2zM9.6 66.7c.2 0 .2.3 0 .3v-.3zM7 67l-.2-.1c-.1-.1 0-.1 0-.2l.2.1v.2zM5.5 66.8c.2 0 .3.2.2.3-.2.1-.3-.1-.2-.3zM3.4 67s.1-.2.2 0c.1 0 .1.1 0 .2l-.2-.2zM15.7 67.2l-.2-.1.1-.2c.2-.1.3.2.1.3M10.6 67l-.1.1c-.2 0-.1-.3.1-.1zM16.1 67c.2-.1.3.2.1.3-.2.1-.2 0-.2-.1l.1-.2M10 67c.2 0 .1.2 0 .2s-.1-.2 0-.2zM5.3 67.2c-.1.1-.2.2-.3.1V67c.1 0 .3 0 .3.2zM2.9 67.4c-.1-.1-.3-.1-.2-.2l.1-.2.2.1-.1.3zM4.1 67.1l-.1.2c-.1-.2 0-.3.1-.2zM4.7 67.1c.1.1 0 .3-.2.2-.1-.1.1-.3.2-.2zM6.2 67.4V67c.3-.1.2.3 0 .3zM7 67.2c.2-.1.3.2.1.2l-.1-.2zM15.4 67.6l-.2-.1.1-.2c.2 0 .3.2.1.3zM6 67.7c-.3.1-.3-.4-.1-.3l.1.3zM14.8 67.5c.2-.1.3.3.1.3-.2 0-.2-.3-.1-.3zM4.2 67.5v.2l-.2.1v-.2-.1h.2zM6.6 67.9l-.1-.2.1-.2c.2.1.1.3 0 .4zM4.9 67.8c0-.2.1-.3.2-.2.1.1-.1.4-.2.2zM7.2 67.9c-.1-.1-.2-.2-.1-.3h.2l.1.2c-.1.2-.2.1-.2.1zM2.6 68c-.1-.3.1-.4.2-.3.2.1-.1.3-.2.3zM11.2 67.8l-.2.2c0-.2 0-.4.2-.2zM5.6 67.7v.3h.1c.1.2-.1.4-.2.2l-.1-.2h.1-.1v-.3h.2zM17.4 67.8c.1.1 0 .3-.1.3-.3 0-.3-.4.1-.3zM15.8 67.9c.2.1 0 .4-.2.3-.2-.2 0-.3.2-.3zM6.7 68v.2c0 .1-.1.1-.2 0l-.1-.2h.3zM17.7 68c.3 0 .3.2.1.3 0 0-.2.1-.2 0-.1-.1 0-.3.1-.3zM7.3 68.2c-.1.1-.3-.1-.2-.2.2 0 .3 0 .2.2zM16.9 68c.1.1-.1.4-.2.2s0-.2.2-.2zM6 68.1c.3-.1.3.3.1.3l-.1-.3zM3 68.2c.3-.1.3.3 0 .3v-.3zM9.8 68.4v-.2c.2-.1.2.4 0 .2zM13.9 68.6c-.2.1-.4-.1-.2-.3h.3l-.1.3zM16.3 68.5v-.1l.1-.1.1.1-.1.2h-.1v-.1M7 68.5c-.1.1-.3 0-.2-.1l.2-.1v.2zM12.7 68.3c.3-.1.3.3 0 .3-.1 0-.2-.3 0-.3zM5 68.7c0-.1 0-.4.2-.4.1 0 .2.1.1.2 0 .1-.1.2-.3.2zM18.3 68.4l.1.3c-.1 0-.2.1-.4 0v-.2l.1-.1c.1-.1.2 0 .2 0zM11.9 68.7l-.1-.1v-.1l.2-.1c.1.1.2.2.1.3 0 .1-.1.1-.2 0M14.3 68.7c-.1-.1.1-.4.2-.2.1 0 .1.1 0 .2 0 .1-.1 0-.2 0zM4.2 68.5c.2-.2.4.3.1.2l-.1-.2zM15.4 68.5v.3h-.2c-.2-.1 0-.4.2-.3zM6.6 68.7c-.1.1-.2.1-.2-.1l.2-.1v.2zM18.5 69l-.2-.2.1-.1.3-.1c.2.1 0 .4-.2.4zM17.7 68.6c.3 0 .3.4.1.4-.2 0-.3-.3-.1-.4zM6 69v-.3l.2.1-.2.2zM13.4 69h-.2v-.2c0-.2.3 0 .2.2zM6.8 68.8c.2-.1.2.2.2.2-.2.1-.3-.1-.2-.2zM14.7 68.8c.1.2 0 .3-.1.3-.3-.1-.2-.4.1-.3zM16.2 69.1L16 69l.2-.1c.2.1.2.3 0 .3zM8.4 69.1c-.1 0-.2-.1-.1-.3.2-.1.3.2.1.3zM5.1 69.2L5 69c0-.2.2-.2.3-.1.1.1 0 .4-.2.3zM7.5 68.9c0 .2-.2.2-.3.1 0-.2.2-.2.3-.1zM12.7 69.1c-.1-.1-.1-.1 0-.1 0-.1.1-.1.1 0h.1c-.1.2-.2.2-.2.1zM17 69v.3l-.3-.1.1-.2c.1-.1.2-.1.2 0zM4.5 69c.3 0 .2.3-.1.1l.1-.1zM15.9 69c.1 0 0 .4-.2.3-.1 0-.2-.2-.1-.3h.3zM7.8 69c.2 0 .2.4-.1.3l.1-.3zM11.6 69.4V69c.1-.1.2-.1.2 0v.3c0 .1-.1 0-.2 0zM17.6 69.4h-.3c-.1 0 0-.1 0-.2s.1-.2.2-.1l.1.3zM5.8 69.4c0 .1-.3.1-.4 0l.1-.2c.1-.1.2.1.3.2zM8.7 69.2v.3c-.3 0-.2-.4 0-.3zM6.7 69.5v-.3c.3-.2.3.3 0 .3zM3.8 69.3c.2-.1.3-.1.3.1s-.3.2-.3-.1zM12.3 69.5l.1-.2c0-.1.1-.1.2 0 .1.2-.2.3-.3.2zM18.6 69.3h.2c.2 0 .2.2 0 .3-.2.2-.5-.2-.2-.3zM14.4 69.5c-.1-.3.3-.3.3 0h-.3zM13.3 69.6s-.1.1-.2 0l-.1-.2c.2-.2.4 0 .3.2zM16.4 69.4v.3c-.1.1-.2.1-.2 0-.2 0-.2-.1-.1-.2l.3-.1zM9.3 69.7c-.1-.1 0-.3.1-.2l.1.1-.2.1zM17.6 69.5c.2-.1.3.3 0 .3-.2 0-.2-.3 0-.3zM8.7 69.6c.3-.1.3.2.1.2l-.1-.2zM6.3 69.9l-.1-.3h.2l.1.1-.2.2zM7.5 69.9c-.1-.1-.2-.3 0-.3.1-.1.2.2 0 .3zM11.8 69.7c.2-.1.2.2.1.3-.2 0-.3-.3-.1-.3zM14.2 69.7c.2 0 .2.3 0 .3s-.2-.3 0-.3zM7.9 70c-.1-.1.1-.3.2 0 0 0-.1.1-.2 0zM16.8 70c.2-.1.2 0 .2.2-.2.2-.4-.2-.2-.2zM11.3 70c.3-.1.3.3 0 .2-.1-.1-.1-.2 0-.2zM7 70c.2-.1.3.2.1.2L7 70zM15.2 70c.3 0 .3.2.1.3-.3 0-.3-.3-.1-.3zM13.3 70.3c-.1-.1-.2-.3.1-.3.2 0 .1.2-.1.3zM16.4 70v.3c-.3 0-.3-.3 0-.3zM6.6 70v.3c-.1.1-.3-.3 0-.3zM8.6 70l.1.2-.2.1c-.2-.1 0-.3.1-.3zM5 70.1v.2c0 .1-.2.1-.2 0-.1-.1 0-.3.2-.2zM12.8 70.2c.2-.1.2.3 0 .3s-.3-.3 0-.3zM12 70.5c-.2 0-.4-.1-.3-.2.2-.2.3 0 .3.2zM13.8 70.5l-.1-.1.1-.2.2.2-.2.1zM5.5 70.3c.1.1 0 .3-.2.2v-.2l.1-.1.1.1zM8 70.3c.3-.1.3.3 0 .2v-.2zM4.4 70.5l-.1.1-.2-.1c-.1 0-.1-.1 0-.2.2-.1.3.1.3.2M11 70.3v.2h-.2c-.2-.1 0-.3.2-.2zM15.8 70.4c0-.1.2-.2.2 0v.2c-.2 0-.2-.1-.2-.2zM17.1 70.5c-.1-.1-.1-.2.1-.2l.2.1c0 .1-.2.3-.3.1zM10.3 70.6l-.1-.1.1-.2.1.1-.1.2zM15.4 70.4c.1.1 0 .4-.1.4-.3 0-.3-.4.1-.4zM14.2 70.5c.2.1 0 .3-.1.2-.1-.1 0-.2.1-.2zM7.7 70.5c.3 0 .2.3 0 .3-.1-.1-.2-.3 0-.3zM12 70.6c.3-.1.3.2.1.2l-.1-.2zM7.2 70.8c-.2.2-.2 0-.2-.2.1-.1.3.1.2.2zM10.5 70.7c.2 0 .2.3.1.3h-.3c-.1 0 0-.3.2-.3zM11.6 70.8c.1.2-.2.2-.2.1l.2-.1zM3.5 71c-.1.1-.3-.1-.2-.2.1-.1.2.1.2.2zM13.5 71l-.2.1-.1-.1.1-.2h.1l.1.2zM16.2 70.8c.2-.1.3.2 0 .2-.2.1-.2-.2 0-.2zM4.4 71h-.1c-.1.1-.1 0-.1 0-.1 0-.1-.2 0-.2s.2 0 .2.2zM8.6 71v-.2h.2c.2.2-.1.4-.2.2zM13.8 70.8l.2.2h-.1c-.2.1-.2-.1-.1-.2zM5.3 71c-.2.2-.3 0-.2-.1.1-.1.1-.1.2 0v.1M17.2 71.2c-.1 0-.2 0-.2-.2v-.1c.1-.1.2.1.3.1l-.1.2zM12.3 70.9c.3-.1.3.3.1.3-.1 0-.2-.2-.1-.3zM10.9 71c.2-.3.3.2.1.2l-.1-.2zM3 71c.1 0 .1.2 0 .2-.2.1-.2-.3 0-.2zM3.8 71.2h-.1c0-.4.3-.1.1 0zM8 71.3c-.1.1-.3-.1-.1-.3.1 0 .2.2.1.3zM4.5 71c.2 0 .3.3.1.3l-.1-.3zM9 71.3v-.1c0-.1.1-.2.2-.1.1 0 .1.2 0 .2l-.1.1-.1-.1zM11.7 71c.3 0 .3.4.1.4-.2 0-.2-.3-.1-.4zM13.3 71.6l-.3-.1.2-.3.2.2-.1.2zM12.4 71.5c-.1-.1.1-.4.2-.2l.1.2h-.3zM16.8 71.3c.2-.1.2.4-.1.3-.2 0-.1-.3.1-.3zM5 71.5v.4c-.2.1-.3-.3-.1-.3-.1-.1-.1-.3.1-.3l.1.1-.1.1zM2.8 71.7l-.3-.1.1-.2c0-.1.1 0 .2 0 .2 0 0 .2 0 .3M4.2 71.5c0 .1-.2.1-.2 0 0-.2.3-.2.2 0zM14.9 71.4l.1.3c-.2.1-.4-.3-.1-.3zM5.4 71.4c.2 0 .2.2.1.3-.1.1-.3-.2-.1-.3zM9 71.7v-.2c.3-.1.2.4 0 .2zM8.5 71.8l.1-.3.1.1v.2h-.2zM11.4 71.6c.1-.1.4-.1.4.1l-.2.2c-.2 0-.2-.2-.2-.3zM15.5 71.7l-.2.2-.1-.2c0-.2.2-.2.3 0zM8 71.9c-.2.1-.4-.2-.2-.3H8v.3zM5.8 71.9v-.3l.2.1-.2.2zM12.1 72c-.1-.2-.1-.5.2-.3v.1c0 .2-.1.2-.2.2zM13.6 71.7c0 .2-.1.3-.3.3v-.3h.3zM3.8 71.7c.1 0 .2.2 0 .3-.2 0-.2-.4 0-.3zM14.5 72h-.2v-.3l.2.1v.2zM7.2 71.9c0 .3-.4.2-.2-.1l.2.1zM13.8 71.8c.3 0 .1.6-.1.2l.1-.2zM2.8 72c.2 0 .1.3-.1.2-.2-.1-.1-.3.1-.2zM3.3 72.2c-.2 0-.2-.2-.1-.2.2-.2.3.1.1.2zM9.3 72c.1 0 0 .3-.1.1-.1-.1 0-.3.1-.1zM9 72l-.1.2-.2-.1c0-.1.1-.2.3-.1zM9.5 72.1l.2-.1h.1l-.1.2-.2-.1zM6.2 72c.2 0 .1.3 0 .3-.2 0-.2-.3 0-.3zM16 72h.3v.3c-.3.2-.3-.1-.3-.3zM11.3 72c.2 0 .3.3.1.3-.2 0-.2-.3-.1-.3zM15.4 72.4l-.1-.2.2-.2.1.3-.2.1zM12.5 72.1c.3 0 .3.5 0 .4-.2-.1-.1-.4 0-.4zM7.4 72.1c.2-.1.2.3 0 .3-.1 0-.2-.2 0-.3zM11.9 72.4c0-.1-.1-.2.1-.2 0-.1 0-.1.1 0 .1 0 .1.1 0 .2s-.1.1-.2 0zM18.2 72.5l.1-.3c.1-.1.2 0 .2.1.1.1.1.2 0 .2h-.3zM4 72.2c.1.1 0 .2 0 .2-.2 0-.2-.1-.2-.2H4zM4.4 72.2c.1-.1.2.2 0 .2-.1 0-.2-.2 0-.2zM8.3 72.3c0 .2-.3.2-.3-.1.1-.1.3 0 .3.1zM5 72.2c.2-.1.3.2.2.3-.2 0-.2-.2-.2-.3zM14.5 72.2l.1.2c-.2.2-.3-.2-.1-.2zM18.9 72.7c-.1-.1-.2-.2-.1-.3l.2-.1c.1.1.2.2.1.3l-.2.1zM3.5 72.6h-.2v-.3l.2.1c.1.1 0 .2 0 .2zM7.8 72.4c.2.1 0 .4-.1.3-.2-.1-.1-.4.1-.3zM8.7 72.6c-.2.1-.2-.2-.1-.2s.2.1.1.2zM17.8 72.4c.2 0 .2.6-.1.4-.2-.1-.2-.4.1-.4zM9.6 72.5h.3c0 .2-.4.3-.3 0zM13 72.4c.2 0 .1.3 0 .3-.2 0-.2-.3 0-.3zM5.7 72.7H5.4l.1-.2c.1-.1.2 0 .2.2zM15 72.8c-.2.1-.3-.2 0-.3v.3zM14.2 72.5c0 .1 0 .3-.2.3 0 0 0-.3.2-.3zM16 72.6c.1.2 0 .3-.2.2-.1 0-.1-.1 0-.2s.2-.1.2 0zM11.4 72.6c.1.1.1.2 0 .2 0 .1-.1.1-.1 0-.3-.1 0-.3.1-.2zM4.8 72.6c.2.1.1.4-.1.3-.1-.1-.1-.4.1-.3zM4.4 72.6c.2 0 .2.4 0 .3-.1 0-.2-.2 0-.3zM17 72.7c.2 0 .3.3.2.3H17v-.2-.1zM9.2 72.9c0-.2.2-.2.2-.1.1.1 0 .2-.1.2l-.1-.1M2.7 73c-.1 0-.1-.2 0-.2.1-.1.3.2 0 .2zM11.9 72.9l.2-.1v.2l-.1.1c-.1 0-.1-.1 0-.2M19.3 72.8c.3 0 .2.4-.1.4-.2 0-.2-.1-.2-.2s.1-.2.3-.2zM6.7 72.9c.1-.1.3.1.1.2-.2.1-.3-.1-.1-.2zM8.9 72.8c.1.2.1.2-.1.2h-.1l.2-.2zM12.6 73l-.1.2c-.3.1-.2-.5.1-.2zM13.1 73.2L13 73c-.1-.1-.2-.1 0-.1 0-.1 0-.1.1 0 .1 0 0 0 0 .2M14.5 72.9l.2.1-.2.2v-.3zM13.6 73s.1-.1.2 0c.2 0-.1.3-.2 0zM18.5 73l-.1.2c-.1.1-.2 0-.2 0-.2-.2.1-.4.3-.2zM11.5 73c.1-.1.3 0 .2.1l-.1.1-.1-.2zM2.2 73.3c-.1-.1 0-.3.2-.3l.1.3h-.3zM15.4 73.2l.1-.2c.1 0 .2 0 .2.2 0 .1-.2.2-.3 0zM10 73.3c-.1.1-.3 0-.3-.2.1-.1.3 0 .3.2zM5.2 73c.1.2-.2.4-.2.3-.2-.2 0-.3.2-.3zM6 73.2v.2l-.2-.1.2-.1zM9.4 73.4c-.1-.1-.1-.3.1-.2 0 0 .1.1 0 .1l-.1.1zM18.5 73.3c.1-.2.4-.1.3.1-.1.3-.4.1-.3-.1zM5.6 73.2l.1.2-.1.1c-.2 0-.2-.3 0-.3zM16.7 73.5l.1-.3.2.1c.2.2-.2.3-.3.2zM4.2 73.3c.1 0 0 .3-.2.2-.2 0 0-.3.2-.2zM14.2 73.3c.1-.2.4.1.3.2-.2.1-.4 0-.3-.2zM6.5 73.4l-.1.2-.2-.1c0-.1.2-.2.3-.1M8.8 73.4c.2-.1.3.2.2.2-.2.1-.3-.2-.2-.2zM12.8 73.4c.1.1 0 .3-.2.3-.1-.1 0-.5.2-.3zM12.2 73.5c.1.1 0 .4-.2.2-.1-.1 0-.4.2-.2zM13.5 73.5c.1-.1.3 0 .3.1s-.3.1-.3-.1zM3.3 73.5c0 .1-.1.3-.3.2v-.1-.1h.3M10 73.5c.2 0 .1.3 0 .3l-.1-.2.1-.1zM19.5 73.5c0 .1.1.3-.1.3l-.2-.1v-.1l.1-.1h.2zM14.6 73.8l-.1-.1v-.1l.1-.1c.2.1.1.3 0 .3M15.8 73.5c.2.1.1.5-.1.3-.1-.1 0-.3.1-.3zM3.7 73.8h-.2l.1-.2c.2-.1.2.2.1.2zM2.3 73.6c.2-.1.2.3 0 .4-.1 0-.3-.3 0-.4zM15.1 73.6c.1.1.1.3-.1.3-.2.1-.1-.4.1-.3zM18.1 74H18c0 .1-.2 0-.2 0l.2-.2.1-.1h.3v.3h-.3zM8.1 73.8L8 74c-.2 0-.2-.4.1-.2zM8.8 74h-.2l.1-.2c.1-.1.2.2.1.2zM17 73.8c.1.2-.2.2-.2.1l.2-.1zM11.6 74.1c-.1-.1-.1-.3.1-.3l.1.2-.2.1zM16.4 74.2c-.1 0-.3-.2-.1-.4l.2.1c.1.1 0 .1-.1.3zM5.4 74l.1-.1.1.1s-.1.2-.2 0zM12.4 73.9c.1.1.1.3-.1.3l-.1-.2c.1-.1.1-.2.2-.1M14.1 74h-.2c-.2-.2.2-.2.2 0zM19 73.9c.1.1.1.1 0 .2 0 .1 0 .1-.1 0l-.1-.1c.1-.2.2-.2.2-.1zM15.4 74l-.1.2c-.1-.1 0-.4.1-.2zM6.5 74.2c-.2.1-.3 0-.2-.2.2-.1.4.1.2.2zM10.3 74.2c-.2.2-.4 0-.3-.2.2 0 .3 0 .3.2zM14.6 74s-.1.3-.2.2c0-.2.1-.2.2-.2zM4 74.3V74h.2c.1.2 0 .3-.2.3zM18.5 74.3V74l.2.1v.2h-.2zM3.1 74c.1.1.1.4-.1.3v-.1l.1-.2zM17.2 74c.2.1.1.3-.1.3-.1 0-.1-.3.1-.3zM12.9 74.1c.3-.1.3.4.1.4-.2 0-.2-.3-.1-.4zM7.4 74.4c-.1-.1-.1-.2.1-.2.1-.1.1.2-.1.2zM3.6 74.2c.3-.1.3.4 0 .3v-.3zM8.7 74.2c.3-.1.2.3 0 .3-.1 0-.2-.3 0-.3zM5.7 74.3c.1-.1.3 0 .3.1s-.3.1-.3-.1zM16.5 74.5c-.1.1-.3-.1-.2-.2.2-.1.3.1.2.2zM12 74.6v-.3c.2 0 .2.3 0 .3zM9.8 74.4c0 .2 0 .3-.2.2-.1-.1.1-.3.2-.2zM13.3 74.6c0-.3.4-.2.3 0h-.3zM11.7 74.5l-.1.2-.2-.1c-.1 0 0-.2 0-.2.1-.1.3 0 .3.1zM18.6 74.6c0 .1-.2.1-.2 0-.1-.2.3-.3.2 0zM8 74.7c-.1-.1 0-.4.1-.3.1.1.1.3-.1.3zM5 74.7c0-.2.2-.3.3-.2.1.1-.1.3-.3.2zM9.2 74.7c-.2.1-.2-.2-.1-.2.1-.1.2.1.1.2zM15.3 74.5c.1.2 0 .3-.2.2-.1-.2.2-.3.2-.2zM7.3 74.7c.1.1-.1.3-.3.2 0-.2.2-.3.3-.2zM12.6 75l-.1-.3.2-.1.1.2-.2.2zM18 74.7l-.1.3c-.1 0-.2-.3.1-.3zM12 74.7c.2.1.1.3 0 .3-.2 0-.2-.4 0-.3zM7.7 75c0 .1.1.2 0 .2-.1.1-.2 0-.2 0-.1-.2 0-.2.1-.2v-.2l.2-.1.1.1c0 .2-.1.2-.2.2M15.9 75l.1-.2c0-.1.1-.1.2 0l-.1.2c-.1.1-.1 0-.2 0zM5.5 74.9c.2-.1.3.1.1.2-.1 0-.2-.1-.1-.2zM18.3 74.9c.2 0 .2.3 0 .2-.3-.1 0-.2 0-.2zM5.2 75.2c-.2.1-.4-.1-.2-.2.1-.2.3 0 .2.2zM13.4 75c.2 0 .1.3 0 .3-.2-.1-.2-.3 0-.3z"/><path d="M12.6 75c.4-.1.3.3.1.3-.2 0-.2-.3-.1-.3zM14.9 75c.1.1 0 .3-.2.2-.1-.1 0-.2.2-.2zM7.2 75.6l-.2-.1v-.2h.3l-.1.3zM15.8 75.3c.1.1-.1.3-.3.2v-.2h.3M5.2 75.3c.2 0 .2.3 0 .3s-.2-.2 0-.3zM13.2 75.7c-.2 0-.2-.1-.2-.2v-.1c.2-.1.3.1.2.3M13.9 75.6l-.2-.1.1-.1c.1-.1.2.2.1.2zM12.5 75.5c.1.1 0 .3-.2.3l-.1-.2.3-.1zM14.9 75.6c0 .1.1.1 0 .2h-.2l-.1-.1.3-.1zM7.6 75.6c.2 0 .2.3 0 .4-.2 0-.2-.3 0-.4zM5.6 75.7c.2 0 .3.3.1.3-.2 0-.3-.2-.1-.3zM12.8 75.7l.1.3h-.2c-.2 0 0-.3.1-.3zM13.8 76c-.1-.1 0-.3.2-.3 0 0 0 .4-.2.3zM15.9 75.8c0 .2-.1.2-.2.2-.1-.1.1-.3.2-.2zM14.3 75.9c.1.1 0 .2-.1.1l.1-.1zM12.4 76.1l.3.2c0 .3-.3.1-.4 0v.3l-.1.1h-.1l-.1-.1v-.2-.1-.1c0-.2.3-.2.4-.1M15 76.1c.1.2-.2.2-.2.1 0-.2.2-.2.2-.1zM16 76c.2.1.1.3 0 .3s-.2 0-.1-.1l.1-.2zM7.6 76.2l.1.2-.3.1c0-.1-.1-.2 0-.2l.2-.1zM14.5 76.2l-.1.2h-.1c-.1-.1.1-.2.2-.2zM5.6 76.4s-.1-.1 0-.1c.1-.1.2-.1.2 0v.1c0 .1-.1.1-.2 0zM16.1 76.7c-.1-.2.2-.3.3-.1 0 .2-.2.2-.3.1zM14.1 76.9l.1.1-.2.2V77v-.1l.1-.4.2.2-.1.1-.1.1zM7.4 76.7h.3c.1.3-.4.3-.3 0zM5.3 76.9c0-.2.1-.2.2-.3l.1.2c.1.2-.2.2-.3.1M14.8 76.7h.2v.2c-.3.1-.4-.2-.2-.2M16 77.1l.3-.1c.2.1-.1.3-.3.1zM5.5 77.1l.2-.1.1.1-.1.2-.2-.2zM7.6 77.4c.1.1.2.2.1.3h-.2s-.1-.1 0-.2c0 0 .1 0 0-.1v-.1c-.1-.2.2-.3.3-.2.2.2-.1.2-.2.3zM14.6 77.1c.1.1.1.3-.1.2-.1 0 0-.3.1-.2zM5.6 77.6c0-.3.4-.3.4-.1 0 .2-.3.2-.4.1zM16 77.4c.1 0 .2.2 0 .3 0 0-.2-.2 0-.3zM14.8 77.5l-.1.2-.1-.1c0-.1.1-.2.2-.1zM16 77.8c.3-.1.3.2 0 .2v-.2zM5.7 77.9c.2 0 .1.3 0 .3s-.2-.2 0-.3zM16.1 78.2c.2 0 .2.3 0 .3v-.3zM5.7 78.6c-.1 0-.2-.3 0-.3.1 0 .2.2 0 .3zM11.2 78.6c.2-.1.3.1.2.3-.2.1-.4-.2-.2-.3zM12.6 78.9c.2-.4.4.2.1.1l-.1-.1zM9.7 78.8c.3-.1.2.3 0 .3s-.2-.3 0-.3zM8.4 79c.1 0 .2.2 0 .2-.1 0-.2-.2 0-.2zM13.8 79.3c0-.2.2-.3.2-.2 0 .2-.1.3-.2.2zM11.2 79.3l.2.3c.1.1-.1.3-.2.3-.4 0-.4-.6 0-.6zM15.5 79.4c.1.3-.3.3-.3.2-.1-.3.2-.2.3-.2zM9.5 79.5c0 .1.2.2.1.4l-.4.1c-.2-.1-.2-.2-.2-.4.2-.1.3-.2.5-.1zM8 79.5l.2.1c0 .2-.2.3-.2.3l-.3-.2c0-.1.1-.2.3-.2zM5.2 79.7l.1-.2.2.1-.1.2-.2-.1zM6.4 79.5c.3 0 .3.3.1.3-.1.1-.2 0-.2-.1-.1-.1 0-.2.1-.2zM14.3 79.5l.1.3c0 .1-.1.2-.2.1l-.2-.2.3-.2zM12.7 79.7l.3-.1c.2 0 .3.2.1.4-.1 0-.4 0-.4-.3M11 84.9l-.1.1h-.4c0-.2.1-.2.2-.2l.3.1zM16.3 68l-.2-.2.2-.1c.2 0 .1.3 0 .3zM13.4 62c.2 0 .2.2 0 .2s-.2-.2 0-.2zM13.2 62.4c.1.1 0 .2-.1.3-.1-.1-.1-.3.1-.3zM12 62.8l.1-.3c.2.1.1.4-.1.3zM14.1 63h-.3c0-.2.1-.2.2-.2 0-.1 0 0 .1 0 .1.1 0 .2-.1.2M12.6 63.4c.1 0 .2.1.1.2l-.1.1c-.2.1-.2-.2 0-.3zM9.9 64l.1-.3.1.1c.1.1.1.2 0 .2h-.2zM10.2 64.7c-.1-.3.3-.2.2 0 0 0-.1.1-.2 0zM15.6 65.8l-.1-.1.1-.2.2.1c.1.2-.1.4-.2.2zM6.3 66.8c.1.2 0 .2-.2.2-.1-.2.1-.4.2-.2zM14.5 67.2l.1-.2.2.1-.1.2-.2-.1zM11 67.4l-.1-.1.1-.2.1.1c.1.1 0 .2-.1.2M10.4 68.3c-.1-.1 0-.3.1-.3.1.1.1.4-.1.3zM3.8 68.6c0 .2-.1.2-.2.3-.2-.1 0-.4.2-.3zM9.4 68.8c.2 0 .2.2 0 .2s-.2-.2 0-.2zM9.7 70c-.1-.2 0-.4.1-.4.2.1.2.4-.1.4zM12.4 70c-.2 0-.3-.2-.1-.3l.2.2-.1.1zM18.2 70.3l.1-.3c0-.1.1-.1.2 0 .2.1-.1.4-.3.3zM17.5 70.2l.1-.2h.1c.1.2 0 .4-.2.2zM9.7 70.4c-.1-.2.2-.4.3-.2l-.3.2zM18 70.5c0 .1-.1.5-.2.2-.1-.1.1-.4.2-.2zM7 71.2c.1.1 0 .4-.2.3l-.1-.2.3-.1zM13.8 71.6s-.1-.1 0-.2h.1c.1 0 .1.2-.1.2zM17.7 73.4h-.1l.1.1-.1.2c-.2.1-.2-.2-.2-.3l.1-.1s-.1-.1 0-.1l.2-.2.1.1-.1.3zM2.7 74l-.1.4c-.3 0-.2-.6.1-.4zM17.5 74.4c.3-.1.3.2.1.3-.2.1-.2-.2-.1-.3zM14.7 74.4l-.1.2c-.1-.1 0-.2.1-.2zM14.3 74.8v.2c-.3 0-.1-.4 0-.2z"/><path d="M14.5 85l-.3.2.3.1h.2l.1-.1.2-.2h-.5zm-.6 0h-.7c0 .2.1.2.2.2s.2.1.4 0l.2-.1-.1-.1zm-7.2-.1l-.4-.1c-.1.2 0 .2.1.2l.3.1c.1 0 .4 0 .3-.1 0-.2-.2-.2-.3-.1zm1.3-.1c-.1 0-.2-.1-.4 0l-.2.2H8l.2-.1-.2-.1m6.3 0c0 .2.3.1.3.1l.3-.1.1-.1c-.2-.1-.5 0-.7.1zm-1.7.1l-.1-.1h-.1l-.1-.1c0-.1-.1-.1-.2 0l.1.2.1.1h.5l-.2-.1m1.2-.2l.2-.1h-.3c0-.1-.3 0-.2.1h.3zm-5-.1l-.1.2.3-.2c.2-.1-.1 0-.2 0zm-3 .1c-.1 0-.3-.3-.4-.1-.1.1.1.2.2.2.1.2.2.2.4.2l-.2-.3zm7.2-.1l-.4-.1s-.2 0-.1.1.4.3.5.2v-.2zm-5-.1c0 .2.4.1.5 0H8zm-.6-.1l-.4-.1-.3.1.1.1.5.1h.2l-.1-.2zm7.3 0c-.1 0-.4 0-.2.1.1.1.3-.1.5-.1 0-.1 0 0 0 0h-.3zm1.3-.1c0 .1-.1.3-.3.3l-.2.2v.1h.2l.3-.3v-.1l.1-.1.1-.1H16zm1.7.4s.1.3.2.1l.1-.1v-.2l-.2-.2-.1.4zm-11.4-.3l-.3-.1s-.4-.1-.4 0l.3.2.5.1-.1-.2zm9.2-.2c0 .1-.2.2-.1.3l.1-.1.1-.1.1-.1h.1c0-.1-.1 0-.1 0h-.2m-6.3-.1l-.3.2c.1.1.4 0 .5-.1l-.2-.1zm-4.2.1c-.1-.1-.2-.2-.2 0l.1.2c.1.1.1 0 .2 0 .1-.1-.1-.2-.1-.2zm13.4-.2v.6s.1.2.2 0v-.3l-.2-.3zm-6.8 0h-.2l.2.2.4.1c0-.3-.3-.2-.4-.3M3 84v.3l.1.2.1-.3L3 84zm7 0h-.2l-.1.2h.3l.3-.2-.1-.1-.2.1zm6.8-.2l-.3.4v.2c0 .1-.1.2.1.2l.2-.3V84s.1-.2 0-.2m-5.8.5v-.2-.1l-.1-.2c-.1-.1-.1 0-.2 0l-.2.1v.1l-.2.5c-.1.3-.3.5-.6.7l-.5.4-.5.2c-.1.2-.3.2-.5.2H8l-.2.1-.1.2H8l.2.1h.5l.3.1H10.9l.4-.1h.8l.9-.2h.3l.2-.1h.1c.1-.1.1-.1 0-.1h-.8l-.8-.4-.4-.3-.1-.1-.1-.2-.1-.1-.1-.2-.2-.4m-5.8-.6c-.1 0-.4-.1-.3.1l.1.2h.5l-.3-.3zm11.3-.1c-.1.1-.2.1-.2.3l.3-.2.1-.1h-.2zm1.6-.3l-.1.2v.6c.2-.1.3-.2.3-.4l-.1-.2v-.1l-.1-.1m-14.9.2v.4l.1.1.1.1.1-.1.1-.2v-.3-.2h-.1l.1-.1c0-.1-.1 0-.1 0l-.1.1-.2.2zm1.1-.4l.1.2.2.1c0-.1-.2-.4-.3-.3m14.1.5l.2.3c.1.1.2-.2.2-.3l-.1-.3c-.1-.2-.1-.3-.3-.3v.6m-.8-.5v.4l.1.2.2-.2c.1-.2.1-.3-.1-.5h-.1l-.1.1M4 82.8l.1-.1-.1.1zm13 0l-.3.2v.1s-.1.1 0 .1c.2-.1.3-.2.3-.4zm-14.1-.1l-.2.1V83.1c-.1.2-.1.5.1.6l.1-.1v-.4L3 83c0-.1 0-.4-.1-.3m14.5.1c-.1 0-.2 0-.2.2l-.2.2.1.3.2-.1.1-.1V83h.1v-.2-.1l.1-.1-.2.2zM4 82.6v.1s0-.1 0 0v-.2.1zm-.5 0l-.2-.2-.3-.1c.1.1.2.2.1.4v.2l.1.1h.2l.1-.4zm13.8-.1l.3-.3v-.1l-.1.1h-.1l-.1.3zm1.4.2l-.1-.5-.1-.2-.1.2.1.3v.2l.1.1c.2.1.1-.1.1-.1m-.5-.1l-.1-.6-.1.2v.2c-.1.2-.1.3 0 .4v.2c.2.2.2 0 .2 0v-.4zm-.8-.8l-.4.2-.2.1-.2.2-.2.1-.4.1-.4.3-.5.2h-.2l-.3.2h-.2l-.2.2-.6.1-.4.1h-.5c0 .1-.1.1-.1 0l-.1.1-.3.1H12v.1s0-.1-.1 0l.1.1.2.1.1.2h.3l.4.2s.1.1.2 0l.2-.1.3-.1.3.1c.2.1.2 0 .3-.1l.3-.1.4-.1h.3l.2-.1c.2-.2.3 0 .5-.2 0-.1 0-.2.2-.2l.1-.1v-.2l.1-.1.1-.2.2-.3.3-.2.1-.2.1-.1c0-.2.1-.2.2-.2l.1-.1-.1-.1zm-14.5.3l.1-.3v-.1c-.1-.1-.2 0-.2 0l-.1.2-.1.1v.5c.2-.1.2-.2.3-.4zm14.9-.5v.3l.2-.1v-.2c0-.1-.2-.1-.2 0zm-14 .4l-.1-.3-.1-.2c0-.1-.1.1 0 .1l-.1.2.1.4c.1.2.1-.2.2-.2zm-.5-.2l.1-.5-.1-.1-.2.2c-.1.2-.1.3.1.5l.1.1v-.2zm.5-.6l.2.5v.5l.1.2.2.2.1.2.3.3.3.4h.2l.2.1.2.2.1.2H6l.2.1.3.1.2-.1c.2-.1.3 0 .4 0l.2.1.2.1c.1.1.3 0 .5-.1H8.6l.1-.1.3-.1H9.6c.1-.1.1-.2 0-.2l-.2-.1h-.2l-.2-.1-.4-.1h-.7l-.2-.1-.2-.1h-.3l-.2-.1-.2-.2-.5-.1-.3-.2h-.2l-.2-.2h-.1l-.2-.2c-.2 0-.3-.2-.3-.3l-.5-.2-.2-.2-.1-.1-.2-.2-.2-.1m14.4-.1l-.2.2.2.1.1.2c.1.1.1-.2.1-.2-.1-.1 0-.4-.2-.3M3 81.1V81s.2-.1 0-.1v.2zm15-.1h.1c.1-.1-.1-.1-.1 0zm-14.5-.3c-.1-.1-.2 0-.2.1l.2.2.2-.1-.2-.2m-.5-.2s-.2.2 0 .2l.2-.1c0-.1.2-.2 0-.3l-.2.2zm7.3.5h-.6-.5H9h-.2l-.3-.1h-.3l-.2-.1H7l-.2-.1s-.1.1-.1 0h-.2c0 .1-.1 0-.1 0H6h-.3-.1l-.1-.1H5l-.2-.1h-.5l-.3-.1h-.2l-.2-.1.1.3c.1.1.3.2.3.4l.1.1.1.1.5.4.3.2.2.2h.1l.1.2.2.1.2.1.2.1.1.1.2.1.3.1.2.2h.4l.5.2.3.1.1.1h.8l.2.1.5.1c.1 0 .3.1.4 0H10.3l.1-.1c.1-.1.1 0 .2 0h.2c.2 0 .2.1.2.2l.2-.1.2.1h.2l.3-.1h.1l.3-.1h.3l.3-.1h.3l.2-.1h.2l.4-.1.3-.1.1-.1h.1l.3-.1.2-.1.2-.1.5-.2.3-.1.1-.1.5-.3h.1l.3-.2.4-.2.4-.4v-.1-.1l.1-.3c0-.1.2-.2.1-.3l-.2-.1c-.1-.1-.2 0-.2 0l-.6.1h-.5l-.5.1h-.1l-.3.1H15l-.5.1-.5.1H13.1l-.2.1-.6.1h-1.1-.9m6.9-1.2l-.2-.2-.2-.2-.2-.1-.2-.1h-.1l.3.2.1.2.2.1.1.2.2.1c.1 0 .2 0 .1-.1l-.1-.1M5 79.2l-.7.3-.2.2-.1.1.2.1.1.1h.1l.1-.2.3-.3.2-.2.3-.3-.3.2zm11.3 0c-.1-.2-.1-.2-.3-.2l.3.2zm-1.1-.3l.4.3.2.3.2.1c0 .1.1.4.3.4h.4l-.2-.5-.5-.3-.4-.2h-.2l-.1-.1c-.1-.1-.1-.1-.1 0m.8 0l-.3-.1-.1-.1h-.1l-.2-.1.1.1.1.1h.2l.3.2v-.1m-9.5-.2l-.3.1-.2.2h-.3l-.2.2-.2.2-.3.1c0 .2-.2.2-.3.5H5l.3.2.2-.2.1-.2h.1l.1-.1.2-.2.3-.4.3-.2.3-.3-.4.1zm11.8 1.5V80l.1-.3.1-.5v-.6l-.2-.1-.1.1c-.2.1-.2.3-.2.4v1.1l.1.1c.1.1.1 0 .2 0M3.4 78.4l-.2.3v.5l.1.4.1.2.2-.2c.1-.1.1-.3 0-.4v-.4l-.1-.3-.1-.1zm12.3 1.3l-.2-.3-.2-.2-.3-.2-.2-.2h-.1l-.1-.1-.3-.2h-.1l-.1-.1H14l-.3-.1v.2l.3.1v.1h.1l.1.1c.1.2.3.2.3.4l.1.1.2.2.3.5h.7c.2 0 0-.3-.1-.3m-7.8-1.4l-.3.2-.2.1-.2.1-.3.2-.2.1-.2.2c-.2.2-.5.4-.7.8h.3l.2.2.1.1c.1.1.2 0 .2-.1l.4-.4c0-.1 0-.2.2-.3v-.1h.1l.1-.2c.1-.2.2-.2.3-.2l.2-.2.1-.2.2-.2.1-.1c-.1-.1-.3 0-.4 0zm4.7-.1l.1.1h.1l.1.1.1.2.2.2.1.2.1.1.2.4.1.3.2.2.1.3.2-.1.2-.1.6-.1-.3-.2-.3-.4-.1-.1-.1-.1-.2-.2-.4-.3-.3-.3-.4-.1h-.1v-.1c-.1-.1-.1-.1-.2 0M9.2 78l-.2.1c-.2 0-.2.1-.2.2l-.1.1-.2.1-.2.1-.3.3-.5.6-.3.3-.2.2h.6l.1.1.1.1.2.1v.1c.1.1.2 0 .2-.1l.3-.5.2-.5.2-.2.1-.2c0-.2.2-.3.3-.4l.2-.4-.3-.1m4.5 2.2l-.2-.5-.3-.4-.2-.3v-.2l-.2-.1-.3-.3-.2-.2-.1-.1-.2-.1h-.2c-.2.1 0 .3.1.3l.1.2v.2l.1.2.1.2.2.5v.5c.1.1 0 .1 0 .2l.1.1c0 .1 0 0 .1 0l.2-.1h.2l.4-.1h.2l.1.1c.1-.1 0-.1 0-.1zm-1.5 0v-.3l-.2-.4v-.3l-.1-.3-.2-.3v-.1l-.2-.2-.1-.3H11h-.2l-.2.4-.3.7-.1.3v.4l-.1.2-.1.2v.4l.2-.1.3-.2.7-.1h.4l.1.1h.3l.2.2v-.3M10.3 78H10l-.2.2-.1.2-.2.1v.1l-.1.1-.1.2-.1.1-.2.4-.2.2-.1.2c0 .1-.2.3-.1.4.1.1.4-.1.4-.1l.5.2.1.1.2.2v-.4c.1-.1.1-.2 0-.2l.1-.3.1-.5.1-.2.1-.2.2-.5.1-.1-.2-.2m8.5 1.3v-.2l.1-.2c0-.2.1-.3 0-.4l-.2-.5h-.4-.1l-.2.2v.2l-.2.1v.2l-.1.3.1.3.2-.6c0-.1 0-.2.2-.3l.2-.1.2.1.1.4v.7l.1-.2M4 78.8l-.1-.3-.1-.3c-.2-.2-.3-.2-.6-.2l-.2.2v.2l-.1.2v.4l.1.2V79v-.4c0-.2.2-.6.4-.6l.2.3.1.2v.1l.1.2v.2H4v-.2m8.4-1.3c-.1.1-.2 0-.4 0l-.4-.1c-.2 0-.5-.1-.6-.4v-.4l.1-.4-.1-.2h-.5l-.1.1-.1.2.1.3c0 .1.1.2 0 .4l-.1.3-.3.2h-.2l-.2.1-.4.1-.3.2h.6c.2.1.5 0 .6-.1h.8l.3-.1c.2.1.4.3.6.2.2-.1.3-.2.5 0 0 .1.1.1.2 0l.2-.1c.2 0-.2-.2-.3-.3m.8.4l.3.1h.5l.3.1.2-.1.1.1.2.1.4.1.2.1.3.1.3.2.2.1.3.2.4.2.1.2.2.1.4.3c.1-.1.1-.1 0-.2v-.2-.4c-.1-.2 0-.4.1-.6l.5-.6.2-.1.2.1.4.2v.4l.1.2v.2l-.1.5c0 .2 0 .3-.2.5l-.1.2-.1.2c0 .1-.3.4-.2.5v.1l.1.2.1.5.1.5.2.3v.2l.1.2v.3l-.2.1.2.4v.2l-.1.3-.1.1v.5l-.1.3-.1.3c-.1 0-.1.1-.2 0V85l-.2-.3v-.1-.2c-.2 0-.2.2-.2.3V85l-.1.3c-.1.1-.2 0-.2-.1l-.1-.2v-.2-.3-.1c0-.1.1-.1 0-.2l.1-.2h-.1l-.2-.5-.4.3v.6l-.1.1-.2.2-.1.1c0 .2-.1.2-.2.2l-.2-.1c0-.1 0-.2-.1-.1l-.1.2h-.2l-.2.1h-.3l-.1.1-.2.2h-.2l-.3.1h-.2l-.3-.1h-.6l-.3-.1-.1-.1-.3.1c-.2 0-.4 0-.5-.2l-.4-.3v-.2l-.2-.2-.2-.1-.2-.1.2.4v.2l.2.2c.1.1.2.3.4.3l.4.3.2.1.2.1h1l.2.2c.2.2 0 .3 0 .3h-.3l-.2.1h-.2l-.3.1h-.2l-.3.1h-.2l-.3.1H8.7l-.3-.1h-.3l-.1-.1h-.5l-.3-.2.4-.3.2-.1.2-.1.3-.1h.3l.1-.1.3-.1.4-.3.4-.3.2-.4h-.3l-.1-.2h-.1v.2l-.3.3-.3.2h-.3-.2l-.2.1-.2.1c-.1 0-.3.1-.4 0h-.2c-.1-.1-.1-.1-.2 0l-.4.1-.3-.1h-.3s-.2.1-.2 0h-.2l-.5-.2-.1-.3H5l-.4-.3v-.2l-.1-.2h-.1-.1l-.2-.2-.1-.2v-.1l-.1-.2V83l-.1-.2h-.2l.1.2.1.4-.1.6-.1.1-.1.2-.1.1-.1.1v.1l-.1.2c0 .1 0 .2-.2.2l-.1-.3-.1-.1v-.2l-.1-.3-.2-.1v-.1l-.1-.2-.1-.3.1-.2V83l-.1-.1.1-.3-.1-.4.1-.2.1-.2v-.3-.2l.1-.2.1-.1-.1-.2s-.1-.1 0-.2v-.1h.1l.1-.2.2-.1c0-.2.2-.2 0-.3l-.1-.5-.1-.1-.1-.3v-.2-.2l.1-.4.1-.2.1-.1.2-.2h.2l.4.1.2.4.2.5v.5l.4-.2.4-.1.4-.1.2-.2h.2l.4-.1.4-.1.4-.1.5-.1c-.1-.1-.1 0-.2 0l.1-.2c0-.1.1-.1.1 0 .1 0 0 0 0 .1l.1-.1h1v-.2l.1-.1.2-.2.4-.1.2-.1h.3l.3-.3c.1 0 .1-.2 0-.4l-.1-.4c0-.2.2-.3.4-.4l.4-.1.5.1v.1l.1.1.1.2-.1.5v.3l.2.1.1.1c0-.1.1-.1.2 0 .2 0 .5-.1.8.1l.3.2.2.4M28.6 129.5h-2l-.5.1h-1.7l-1.4.1h-3.6H17h-1.4c-.1.1-.2 0-.2 0l-.4.1-.2-.1-.3.1h-2.3l-.4-.1H8.5c-.1-.1-.2 0-.4 0H5.2c-.1.1-.2 0-.2 0h-.9l-.5.1H2c-.2 0-.3.1-.4 0H-.8l-.7-.1-.6.1H-4.3l-1.3.1H-6h-.3H-7.1l-1.4-.1-.3.1c-.1-.1-.2 0-.2 0h-1l-1.5-.1h-.3l-.2-.1h-1l-.6.1H-15.3h-.2-.5-4.8-.2-1.2l-.6-.1h-.2-4-.3l.6-.1h3.1l.8-.1h1.4c.1 0 .3.1.4 0h1l1.1-.1H-17.4l.6.1h.4c.1-.1.2 0 .4 0 0 0 .1-.1.2 0h.1l.5-.1H-2.2l1.5-.1h2.2l.5.1h2l.4-.1H11l.3-.1.3.1.7.1h.7l.3-.1h2.2l.3.1.2-.1.5.1.5-.1h8.6c.2 0 .4.1.4 0h.1l.9.1h2.5c.1 0 .1 0 0 0h-1l.1.1zM0 35.7h.8l.7-.1h.3l.4-.1h1l1-.1 1.6-.1.5.1H8.1c.2 0 .3.1.4 0 0-.1.1 0 .1 0H9l.5-.1c.1 0 .2.1.2 0h1.1l.4-.1h.5l.3.1c.1 0 .3-.1.4 0l.6.1H15.7l.2-.1.3.1c.1 0 .1.1.2 0h.3l.5-.1h.2l.2.1.4-.1h.8c.2-.1.2 0 .4 0 .1 0 .3-.1.4 0 .1 0 .1-.2.2-.1s.2 0 .2 0h.3l1.3.1h.6l.4-.1H24.2l.9-.1h2.2s.1.1.2 0c0 .1.1 0 .1 0h.8l1 .1h.2l.3.1h.1l.5-.1.5-.1h.2c.2 0 .5.1.8 0 0 .1.1 0 .2 0s.2.1.2 0h.1c.1 0 .1.1.2 0h1.5l.4-.1.4-.2c0-.2.2-.3.3-.5l.1-.2V34c-.1 0 0 0 0 0-.1-.2.1-.3-.1-.4l-.1-.3-.2-.3v-.2l-.1-.2-.2-.2-.7-.6-.3-.3-.3-.3-.2-.1-.2-.1-.3-.2.4.2.9.5.4.4.6.4.4.5.3.4.1.6v.3c.1.3 0 .5-.1.7l-.7.7-.6.2h-.5l-.2.1-.4-.1H33h-.2c-.1 0-.2.1-.2 0h-.1c-.1.1-.3 0-.4 0h-.8c-.3 0-.4.2-.6.1l-.5.1-.3-.1H29s-.1.1-.2 0h-1.3l-.3-.1-.3.1h-1.2l-.3-.1-.9.1c-.1.1-.2 0-.2 0H24v.1h-.8c-.2-.1-.2.1-.4 0h-.1-.1l-1.1.1H20l-.5-.1h-1-.4-.1l-.2.1h-1.1-.2-3H12.9l-.2.1c0 .1-.1 0-.2 0L12 36h-1.4-1-1.4-.1l-.3.1h-.1c-.1-.1-.3-.1-.4 0l-.5-.1H3.3 2 1 0-.6h.4l.3-.1-.1-.2z"/><path d="M31 33.3h-1l-1 .1h-1l-1.3.1h-1.4l-2.2.1-.7-.1h-.7-.1-1-2l-.6.1h-3.9-.1l-.9-.1H11h-.1c-.2 0-.3.1-.4 0h-.9l-.3.1-.3-.1h-.4c-.1.1-.2 0-.4 0l-.6.1h-.3l-.3-.1-.5.1H6 .3l-.3.1h-4c-.3-.1-.5 0-.8 0h-4.3l-.3-.1h-1.9c0 .1-.2 0-.2 0l-1 .1-.4-.1-.3.1h-.1l-.3-.1-.4.1-1.2-.1H-17l-1.1.1-.3-.1h-.2c0 .1-.1 0-.2 0H-20.7h-.3-.4l-1.2-.1H-25h.6l1.4-.1h4.4l.9-.1h1.2l.6-.1.3.1h.4s.2-.1.2 0h.6c.1 0 .3.1.4 0h2.2l1-.1h2.2l.3.1h.1l.5-.1.7.1h1l.3-.1H-4l.4.1 1.2-.1H1.7l.2-.1h1.3c.2-.1.4 0 .6.1h2.1c.1 0 .3-.1.4 0 .2-.1.3 0 .4 0l1.5-.1h4c.1 0 .3.1.4 0h.8l.3-.1h.3l.6.2H18.2c.1-.1.1 0 .2 0h.9l.5-.1.1.1.5-.1h.6l.7.1c.3 0 .5-.1.8 0h2.4l.5-.1h.6l.6.1h.4c0-.1.2 0 .4 0h4.5c.1 0 .1 0 0 0h-.5l-.5.1h.1zM94 141.8l.1-.1.1-.1h.1l.4-.2H95l.2-.1.2-.1h.1c.1-.2.3-.2.4-.2h.1s0-.2.2-.1v-.1h.1l.1-.1h.1l.1-.1.4-.2h.2l.2-.1h.1l.1-.1s.1-.1.1 0l.1-.1.2-.1h.5l.2-.2H99l.1-.1.3-.2.3-.1.1-.1h.2v-.1h.1c.1 0 .1-.1.2 0l.1-.1.1-.1h.2l.3-.2.3-.1.1-.1.2-.1h.2l.2-.2.3-.1.3-.2.4-.1.1-.1h-.1l-.1.1h-.1l-.2.1h-.2l-.4.1v.1h-.2-.2l-.2.1h-.1l-.1.1h-.2l-.2.1-.2.1-.2.2h-.2l-.3.1-.1.1h-.1-.2l-.3.2h-.1l-.1.1-.3.1s0 .1 0 0h-.1-.1l-.5.2s0 .1-.1 0l-.2.1h-.1l-.4.2-.2.1h-.2l-.4.2-.5.2-.1.1-.2.1-.2.1-.5.1-.1.1c-.1 0-.1.1-.1 0l-.1.1h-.2-.1l-.2.1-.1.1-.1.1v.4l.1-.1v.2zM94 139h.2v-.1l.2-.1.3-.1.3-.1.2-.1.2-.1h.1s0-.1.1 0l.1-.1.4-.2.1-.1h.2l.5-.2.1-.1c.1 0 .2.1.2 0l.2-.1h.1l.1-.1h.1l.5-.3h.1c.1 0 .1-.1.2 0l.1-.2H98.9l.1-.1.4-.2.1-.1h.2l.1-.1h.1l.1-.1h.1l.2-.1h.2l.2-.1.1-.1s0-.1.1 0l.1-.1h.5c.1 0 .2 0 .2-.2l.3-.1.3-.2.2-.1c0 .1.1 0 .1 0h.1c0-.1.1 0 .1 0l.2-.1.2-.1h.1l.2-.1.4-.1.2-.2.2-.1.2-.1.2-.1.3-.1.3-.1.2-.2.5-.1v-.2h.1l-.1.1h-.1l-.1.1h-.1-.2-.2l-.4.2-.1.1h-.4l-.2.1c0 .1-.1 0-.2 0v.1c-.1-.1-.1 0-.2 0l-.3.1-.2.1-.3.1v.1l-.5.1h-.1c0 .1-.1 0-.1 0l-.1.2h-.2l-.3.1v.1l-.2.1-.3.1h-.2l-.5.2h-.1l-.1.1h-.1l-.2.1-.4.1c-.1.1-.1.2-.3.1v.1H99l-.3.2-.7.3-.2.2h-.2l-.6.2-.1.1h-.2l-.2.1-.1.1c-.1 0-.2.1-.2 0l-.2.1-.1.2h-.2-.1l-.2.1-.1.1h-.1-.2l-.1.1-.2.1c-.1-.1 0 0-.1 0h-.1l-.1.1-.5.2h-.1v.5h.2zM109.2 129.4h-.2v.1h-.3l-.2.1-.5.2-.2.1h-.1l-.1.1h-.4l-.2.1-.1.1h-.1-.1l-.4.2-.3.1-.2.1-.2.1-.6.2v.1h-.2-.1l-.2.1-.3.2h-.2l-.2.2-.2.1h-.4l-.5.3-.2.1H102.2l-.2.1-.5.2-.3.1-.2.1-.6.3-.7.2-.1.2-.2.1-.4.1-.6.2-.2.1h-.1l-.1.1-.2.1-.2.1h-.2l-.2.1-.2.1-.1.1h-.2l-.2.1-.2.1-.1.1H96v.1h-.3l-.1.1-.2.1-.2.1-.7.2-.3.1-.2.1h-.2v.4l.2-.1h.5l.1-.1.1-.1h.2l.1-.1.5-.2.4-.1.1-.1.4-.1.1-.1h.1l.6-.3.1-.1h.2v-.1c.2 0 .4-.1.5-.3h.5l.2-.1.1-.1h.2l.1-.1.6-.3h.1l.2-.1h.2l.1-.1h.1l.1-.1.1-.1h.1l.5-.2h.1l.2-.1.2-.1.1-.1h.2l.1-.1h.2l.2-.1.3-.1.2-.2c0 .1 0 0 .1 0h.3l.2-.1.2-.1.2-.1.3-.2.4-.1.2-.1s.1-.1.1 0v-.1h.2l.1-.1.3-.1h.4l.2-.2.4-.2.4-.2.3-.2.3-.1.4-.1.3-.2.3-.2.5-.2.2-.1-.1.1h-.1.1zM110.1 126.3h-.1-.1l-.1.1h-.2l-.3.1-.1.1H108.9l-.2.1h-.1v.1h-.1c0-.1 0 0 0 0l-.3.1-.2.1h-.2s0 .1-.1 0l-.3.2h-.1c0 .1 0 0-.1 0v.1h-.2l-.2.1v.1l-.2.1-.2.1c-.1-.1-.1 0-.1 0h-.1l-.4.1h-.2l-.1.1v.1h-.4c-.1 0-.1.1-.1 0h-.1l-.1.1-.1.1-.3.1-.4.2-.2.1-.1.1c-.1-.1-.1 0-.2 0l-.5.2-.1.1c-.1-.1 0 0-.1 0h-.1-.1l-.2.1-.1.1-.1.1h-.2l-.1.1-.1.1h-.1-.1-.1l-.1.1h-.1l-.1.1c-.1-.1-.1 0-.2 0l-.3.1-.3.2h-.4l-.1.1-.2.1h-.1-.1v.1h-.1l-.1.1h-.2-.1v.1l-.2.1h-.2l-.1.1c-.1-.1-.1 0-.2 0l-.1.1-.6.2-.3.2-.3.1-.1.1-.1.1-.3.1-.2.1-.1.1-.2.1.2-.1h.2l.1-.1h.2l.2-.1h.1l.1-.1H97.4l.1-.1h.2l.1-.1.3-.1.3-.2h.4l.1-.1.1-.1.2-.1h.2v-.1h.1l.3-.1h.1l.1-.1h.1l.1-.1.2-.1H100.7v-.1h.2l.1-.1h.2l.3-.1.1-.1.2-.1h.2l.3-.2.1-.1h.1l.4-.2H103.2l.1-.1h.1l.1-.1h.1l.4-.2.2-.1h.1l.1-.1h.1l.1-.1.3-.1h.1l.1-.1h.1l.1-.1h.1l.1-.1h.1l.2-.1h.2l.2-.1.1-.1H106.6l.1-.1.3-.1.2-.1.1-.1h.2v-.1H107.8l.2-.1.2-.1.2-.1c.1 0 .2 0 .2-.2h.1l.3-.1v-.1l.3-.1.2-.1.2-.1.3-.1.2-.2-.1.1v.2zM99.2 128.2h.2c.1 0 .1-.1.1 0l.1-.1.1-.1h.5l.2-.1h.2l.1-.1.1-.1h.2l.2-.1v-.1h.2c.1-.1.1 0 .1 0h.1l.1-.1h.1l.2-.1.1-.1h.2l.2-.1.1-.1h.4v-.1h.2v-.1l.2-.1s0-.1.1 0v-.1h.2l.1-.1h.2v-.1l.1-.1h.4l.1-.1h.2l.1-.1.1-.1H105.3l.1-.1.1-.1h.2l.1-.1c0-.1 0 0 0 0l.2-.1.1-.1h.1l.2-.1.1-.1.1-.1h-.2-.1-.1l-.2.1H105.7c0 .1 0 0 0 0v.1h-.1c0-.1 0 0 0 0h-.2l-.1.1c-.1 0-.1.1-.1 0l-.2.1h-.1v.1h-.1l-.1.1h-.1v.1l-.1.1h-.1c0-.1 0 0 0 0h-.1-.2-.1H103.7s0 .2-.1.1l-.1.1-.2.1-.3.1v.1c0-.1-.1 0-.1 0h-.3v.1h-.1c0-.1 0 0 0 0h-.1l-.1.1-.1.1h-.1-.1v.2h-.2-.1-.1-.1l-.2.1-.1.1h-.2-.1l-.1.1h-.1v.1s-.1-.1-.1 0h-.1l-.1.1h-.1l-.1.1h-.2l-.3.2-.2.1-.2.1-.1.1-.2.1v.1h-.1.1l.2-.1zM93.9 144.7h.1v-.1l.4-.1.1-.1h.1l.1-.1h.1l.2-.1h.1l.2-.1.2-.1h.2l.2-.1.1-.1h.1l.2-.1.2-.1.3-.1.2-.1c0 .1 0 0 0 0h.2l.2-.1h.1l.1-.1h.2l.3-.2.2-.1.2-.1.1-.1h.2l.2-.2.3-.1.2-.1.3-.1.2-.2-.1.1h-.1-.1v.1h-.2-.1l-.4.1-.1.1h-.1l-.2.1h-.2l-.1.1h-.1-.1l-.3.2h-.1l-.2.2H97v.1h-.2v.1h-.1l-.3.1-.1.1-.1.1-.2.1h-.2-.1l-.4.1-.1.1H95s0 .1 0 0v.1l-.4.1c-.1 0-.1.1-.2 0v.1l-.1.1h-.1l-.3.1v.4zM93.9 147.9l.1-.1h.2l.1-.1h.1l.1-.1.3-.1.2-.2h.1l.2-.1.2-.1.2-.1h.3l.1-.2.4-.2h.1-.1-.1-.1l-.1.1H96l-.3.1-.1.1-.1.1h-.4-.1-.1l-.3.2-.2.1-.2.1h-.1l-.3.1v.3l.1.1zM82.6 152.3l-.1.1h-.1l-.1.1.2-.1h.1l.1-.1h.2-.2-.1z"/><path d="M94.2 107.7l.1-.9.1-4.4v-1l.1-1v-1.6c-.2-.3-.1-.6-.1-.8l.1-4.1c0-.7-.2-1.4 0-2.2v-.2l-.1-1.2.1-1.1-.1-3.7v-2.9c0-.4 0-1.1-.3-1.6-.3-.6-.8-1-1.4-1.1-.3-.2-.7-.2-1.1-.1H91h-.2l-.3.1h-.7c-.7-.2-1.4-.1-2.1-.1-1.7-.1-3.5.1-5.3-.1h-2.2c-.5 0-.6.3-1 .6-.6.4-.9 1.2-.9 1.9v3.3l.1.7v2.5V90.5c-.1.5.1.9.1 1.4v.4.7l.1.5-.1.9c-.1.4.1.9-.1 1.2l.1.8v1.4l-.1 1.2c-.1.4.2.8.1 1.2v.4l-.1 1.4v4.9l-.1 2.8v.1l-.1 1.4-.1 1.4v1.8l.1 1.8v1.8l.1.8-.1.8.1.9-.1.8c.2.7.1 1.3.1 1.9v2.2c.2.5.1 1.1.1 1.6v1.7l-.1.5v2.3l.1.7v.2l-.1 2v2.1c0 2.3-.2 4.5 0 6.7v4.1l-.1 1.7c0 .7.1 1.5.5 2.1l.1.2c.5.4.9.9 1.4 1.1l1.8.3h3c1 0 2 .2 2.8.1h1.5l1-.2.6-.2c.1-.1.1-.3 0-.4-.2-.2-1.1-.3-1.8-.3H85l-1 .1h-2.2c-.4 0-.8 0-1-.3l-.2-.1c-.3 0-.6-.4-.8-.6-.2-.2-.5-.5-.5-.9v-.4-1.5-.2c.1-.2 0-.5 0-.8v-8.6-3.6-2.1c0-.7.2-1.3.1-1.9 0-.6-.2-1.2 0-1.8v-.2l-.1-1.6.1-.4-.1-1.4v-2.5c0-.2.1-.6 0-.8.1-.2 0-.5 0-.8v-3.6-2.2-1.1l-.1-.8v-2.1c0-.8.1-1.5.3-2l.1-.9-.1-.7-.1-.9.1-1v-.4c-.2-.4-.1-.9-.1-1.3v-3.1-1.9h.2l.2.1h.2l.2.1h.5l.3.1.2.1h.2l.1.1h.5c.1 0 .1.1.2 0l.4.1c.1-.1.1-.1.2 0 0 .1 0 .1.1 0l.1-.1h.2l.1.2H85c.1.1.2 0 .4 0h.1c0 .1.1 0 .1 0H86.2s.1.2.2.1l.1-.1h.8c.1 0 .1-.2.2 0 0-.1 0 0 .1 0 .1-.1.1 0 .1 0l.1-.1c0-.1 0-.1.1 0 0 0 .1.1.1 0l.3-.1h1.2s.1.1.1 0h.4l.2.1.1-.1.3-.1h.3l.1-.1.1.1.1-.1H91.5c.1 0 .1-.1.2 0l.3-.1.2-.1h.3c0-.1 0 0 .1 0l.2-.1h.2l.2-.1h.2v3.2c-.1.5-.1 1.1 0 1.6v.2l-.1 1.1v1.9l-.1 1.4v3.2l.1 2.7v3.3l.1 1.4v.4l-.1.7.1 1.1-.1 1c0 .6.1 1.3-.1 1.8l.1.6v1.2l-.1.9.1 1.9.1 3.5.1 2.7-.1 1.2V145.6l-.1 2.6-.1 1.8c-.2.5-.5.9-.9 1.2l-1.2.8-.1.2c-.2.2.3.5 1.1.2.3 0 .6-.1.9-.4l.6-.6.4-.7v-.2c.4-.5.2-1.3.3-1.8v-5.5-1.2c-.1-.3-.1-.7 0-.8.1-.3 0-.6 0-.8V137c-.3-.4.1-1 0-1.4v-.6l-.1-.5c.2-.2.1-.5.1-.8 0-1.1.1-2.3-.1-3.4v-2-2.1-1.2l.1-3.8-.1-1 .1-1V118c0-.3-.1-.7.1-1-.2-1-.1-2-.1-3v-.7c-.2-.6-.1-1.3-.2-1.9v-2.2-.6l.1-.9zm-.9-8.7h-.2-.4c-.1.2-.1 0-.2 0v.1h-.1c0-.1 0-.1 0 0H92c0 .1 0 .1-.1 0l-.2.1h-.2l-.3-.1-.1.1H90.5l-.2.1c-.1.1-.1 0-.2 0H90c0-.1 0 0 0 0l-.1-.1h-.6c0-.1-.1-.1-.1 0h-.1c0 .1-.1 0-.1 0h-.3c-.1 0-.1.1-.2 0h-1.1l-.1.1h-.2c-.1-.1-.1 0-.1 0-.3-.1-.4.1-.6-.1h-.1-.1c0-.1 0 .1 0 0H86h-.1c-.1.1-.1.1-.2 0-.1.2-.1 0-.2.1l-.1.1-.1-.1h-.1l-.2.1s0-.1 0 0-.1 0-.2 0l-.1-.1v.1h-.2l-.1-.1-.1.1-.2-.1h-.7l-.1-.1H83h-.2-.2-.1-.1c-.1.1-.2 0-.2 0H82l-.2.1h-.1l-.1-.1c-.1.1-.1.1-.2 0h-.1-.2c-.1-.1-.1 0-.1 0-.3 0-.5-.2-.7 0l-.3-.1-.4-.1h-.1v-1c.1-.4 0-1 0-1.6v-2-.7-.7h.7l.5.2.6.1.5-.1H82.7l1.5-.1h.1l.2.1c.1 0 .3-.2.5 0 0-.2.2-.1.3-.1h.7l.3-.1H91l.6.1c.1 0 .3.1.4-.1h.1c.1.2.3.1.4.1h.5l.5.1V99h-.2zM79.8 75.7s.2.1 0 .1v.2l.1.8.1.2v.1c-.2.1-.1.2 0 .3v.4h1.3c.1 0 .2.2.3.1l.4-.1h2c.1-.1.2 0 .2 0h.2c.1-.1.2 0 .2 0h.1c.1-.1.1-.1.2 0h.1l.8-.1.2.1h1.1l.3-.1.2.1H89.6l.4.1s.2.1.3-.1H92.8v-.2l.1-.4v-.1c-.1-.1-.1-.1 0-.2v-.2-.4l-.1-.7V75c-.1 0 0-.1 0-.2v-.4-.4-1.2l-.3-.6-.8-.5c-.2-.1-.2-.1-.4.1v0l-.3-.1h-.1l-.2-.1-.4.1H90h-.1c-.1 0-.2-.1-.2 0h-.6c-.1.1-.1 0-.2 0l-.3.1h-.4l-.2-.1h-.7l-.3.1h-.8l-.7-.1H85s-.2-.1-.4 0h-.4c-.1.1-.2 0-.2 0h-.5l-.3.1-.2-.1-.2.1-.1-.1H82h-.2c-.1.1-.2.1-.4 0l-.2.1-.2.1-.4.2-.5.3-.1.2v.4l-.1.2v.1l.1.3v.6l-.1.6.1.4-.1.4v.1h-.1zM95.7 74.7l.4-.2.5-.2.2-.2.2-.1.6-.2.6-.3 1-.5h.3l.3-.1v-.1h.2l.3-.1h.1l.2-.2.2-.1h.2l.2-.1.2-.2h.2l.1-.1H102l.2-.2.3-.1.2-.1.3-.1s0-.1.2 0l.4-.2.7-.3H104.6l.2-.1.2-.1.2-.1.1-.1c0 .1.1 0 .2 0h.1l.2-.1.2-.2H106.3l.3-.2.2-.1h.2l.3-.2.2-.1.2-.1h.1l.2-.1.8-.2c.1-.1.2-.2.3-.1l.2-.2h.2l.8-.4.6-.3h.1l.2-.1h.1l.3-.2c.2 0 .4 0 .6-.2h.1l.1-.1h.2l.1-.1h.2l.7-.2.1-.1H114l.3-.2.2-.1h.1l.4-.3h.2l.2-.1h.2l.1-.1.6-.2.2-.1.3-.2h.2c.2-.2.4-.2.6-.2l.1-.1h.1l.1-.1c.1 0 .1.1.1 0l.3-.1.3-.1h.1l.1-.1.2-.1.6-.2h.3l.3-.1h.1l.1-.1h.1l.2-.1-.3.2-.5.2-.4.2-.5.2-.3.2-.3.1-.4.2h-.1l-.4.2-.5.2-.3.2h-.1l-.2.1h-.1l-.3.1h-.1l-.2.2h-.1-.1-.2l-.5.3-.3.2-.3.1-.2.1h-.2l-.3.1c-.1 0-.1.1-.2 0v.1l-.3.1h-.3l-.2.2h-.2l-.1.1-.2.1-.2.1h-.2l-.2.1-.2.1c-.2 0-.3.2-.5.3H110.4l-.2.1-.1.1-.1.1c-.2-.1-.2.1-.3.1h-.1l-.7.3h-.1l-.3.2-.3.1h-.2l-.3.1-.7.3-.2.1-.1.1-.7.3-.1.1c-.1-.1-.1 0-.1 0h-.1l-.3.1-.3.1-.4.2-.5.2-.2.1h-.2l-.1.1-.1.1-.2.1h-.6l-.1.1-.2.1-.2.1-.1.1-.5.2h-.2l-.1.1h-.2l-.2.1-.2.1-.3.1-.3.1-.2.1-.4.1-.6.2-.5.2-.2.1-.3.2h-.2-.2l-.2.1h-.1l-.1.1-.2.1-.5.1h-.1l-.1.1-.2.1-.3.1h-.2l-.2.1.2-.1.2-.1-.1.1zM117.2 70.8l.2-.1h.2l.1-.1h.1l.2-.1h.2l.4-.1c.1 0 .1-.1.2 0 0 0 0-.1.1 0l.1-.1H119.3l.2-.1h.2l.1-.1.1-.1H121.3v-.1l.2-.1H121.8l.2-.1h.2c.1.1.3 0 .4 0 0 0 0-.1.1 0l.1-.1h.4l.2-.1h.2l.1-.1h.9s0-.1 0 0l.2-.1h.2v-.1H125.3v-.1h.3c0 .1 0 0 .1 0l.1-.1h1.6-.1l-.3.1h-.1l-.2.1H126.4l-.1.1h-.3l-.1.1h-.1-.1l-.1.1c0-.1-.1 0-.1 0s-.1-.1-.1 0h-.1c0 .1-.1 0-.1 0l-.2.1h-.1l-.1.1h-.4H123.7h-.1-.1l-.2.1c0 .1 0 0 0 0h-.1-.1c0 .1-.1 0-.1 0v.1c0-.1 0 .1 0 0h-.1l-.3.1h-.1-.1-.1-.1-.2-.2c0 .1 0 .2-.1 0v.1l-.3.1c-.1-.1-.1 0-.1 0-.1-.1-.1 0-.1 0h-.2H120.7l-.1.1h-.1-.1c0 .1 0 0 0 0h-.2-.2c0 .1 0 .1 0 0l-.1.1H119.6h-.1l-.1.1h-.2-.1l-.1.1h-.7l-.1.1h-.2-.1-.1-.1H117.4h-.1-.1-.1-.1l.1-.1h.1v.2z"/><path d="M95.6 74.8l.4-.1.3-.1.1-.1.2-.1.4-.1.5-.1c.2-.2.5-.2.8-.2h.6l.2-.1H99.4l.2-.1h.2l.2-.1h.1l.1-.1.1.1.1-.1.2-.1h.2l.2-.1H101.7l.6-.1h.2s0-.1.1 0h.2l.2-.1c0 .1.1 0 .2 0 0 0 .1.1.1 0l.1-.1.2-.1h.8l.2-.1.2-.1s0-.1.1 0h.2l.6-.1h.3l.2-.1h.1l.7-.2.4-.1h.2l.1-.1c.1.1.1 0 .2 0h.5l.1-.1c0 .1 0 0 0 0l.2-.1c0 .1.1 0 .1 0H110l.2-.1h.1l.3-.1h.2v-.1h.2l.1-.1h.6l.3-.1h.2l.4-.1s0-.1.1 0l.1-.1s.2.1.2 0h.7l.4-.1H115l-.3.1-.4.1-.3.1-.4.1-.3.1h-.2l-.2.1c-.1 0-.1-.1-.2 0l-.2.1-.5.1h-.2-.1l-.1.1h-.1c-.1-.1-.1 0-.2 0h-.1l-.2.1h-.1l-.2.1h-.4l-.3.1-.2.1H109.5h-.2s-.1.1-.1 0h-.1l-.1.1h-.3-.2s0 .1-.1 0l-.1.1H108l-.1.1h-.2-.2l-.4.2h-.1-.2-.2l-.2.1h-.1l-.6.2H105.4l-.2.1c-.1.1-.2 0-.2 0h-.2l-.5.1h-.1s0 .1-.1 0h-.1l-.5.2h-.1c-.1-.1-.1 0-.1 0H103l-.2.1c-.1-.1-.3 0-.4 0l-.4.1v.1h-.4c0 .1-.1 0-.1 0h-.7l-.1.1c0-.1-.1 0-.2 0v.1h-.5s0 .1 0 0l-.1.1h-.2-.2l-.1.1h-.1l-.1.1h-.1-.4l-.3.1c-.1-.1-.2 0-.4 0l-.4.1H97s0 .1 0 0h-.1c-.1.1-.1.1-.2 0l-.2.1H96c0 .1 0 0 0 0h-.2-.1l-.2.1h-.2-.2.1l.1-.1H95.6zM95.7 75l.5.2.4.2h.3l.2.1.6.2.6.3c.4 0 .7.2 1 .3l.3.1.4.2.4.2h.1l.2.2h.3l.3.1.3.1.1.1h.2l.1.1h.1l.3.1.3.1.3.1.2.1.1.2.5.1.7.3.2.1v.1h.3l.1.1.2.1h.2l.1.2h.4l.2.1.2.1.1.1.2.1h.3l.2.1.3.1.2.1h.2l.1.1.2.1.8.3.3.2s.1.1.2 0l.2.1.8.3.6.2.1.1.2.1h.1l.3.1.6.3h.2l.2.1.2.1.7.3.1.1.2.1.4.2h.3l.1.1.4.1.2.1s.1.1.1 0h.1l.1.2h.2l.5.2.2.1.4.1.2.1.5.2.1.1h.2l.2.2h.3l.2.2.1.1h.2l.1.1.6.2.3.2.2.1.1.1h.2l.2.1-.3-.1-.6-.2-.4-.1-.4-.2-.4-.1-.3-.1-.3-.1-.2-.2h-.4l-.5-.2-.3-.1-.1-.1h-.2l-.1-.1-.2-.1-.2-.1h-.2l-.1-.1-.3-.1-.5-.1-.4-.2-.3-.1-.2-.1-.1-.1-.3-.1-.2-.1-.2-.1-.3-.2h-.3l-.2-.1-.2-.1h-.1l-.2-.1-.2-.1-.2-.1-.1-.1-.6-.2c-.1.1-.1 0-.1 0-.1 0-.1-.1-.2 0-.1 0-.1-.2-.2-.1l-.1-.1h-.2-.2l-.1-.1-.7-.3h-.1l-.3-.1h-.1l-.3-.1-.2-.1-.2-.2-.6-.2-.2-.1h-.1l-.2-.1-.6-.2-.1-.1h-.2l-.3-.2-.3-.1-.4-.1-.5-.3h-.2-.1l-.1-.1-.1-.1h-.2l-.1-.1-.3-.2-.2-.1-.2-.1h-.4l-.1-.1-.5-.2-.1-.1c-.1.1-.1 0-.1 0l-.2-.1-.2-.1h-.2l-.1-.1c-.1 0-.1-.1-.2 0h-.1l-.2-.1-.3-.2-.3-.1-.6-.3-.5-.2-.2-.1-.3-.1-.2-.1-.1-.1H97.4l-.2-.2H97v-.1l-.4-.1-.1-.1h-.2l-.1-.1-.3-.1-.2-.1-.2-.2.2.1.3.1-.3-.2zM121.6 79.7h.8l.1.1h.2l.1.1h.2c0-.1 0 0 0 0v0s0 .1.1 0h.2v.1H123.6v.1s.1-.1.1 0h.1l.1.1h.2s.1.1.1 0h.2l.2.1h.5l.1.1h.4l.1.1h.1v.1h.1l.1-.1s0 .1 0 0v.1l.1-.1.1.1v-.1l.1.1h.4v.1H127v.1h.1l.1.1h.1-.1-.2-.1-.1-.1-.1v-.1l-.1.1h-.1-.1v-.1h-.1s0 .1 0 0c0 0-.1-.1-.1 0h-.1v-.1c0 .1 0 0 0 0h-.1s-.1.1-.1 0c0 .1-.1 0-.1 0h-.1v-.1s-.1.1-.1 0h-.1-.1c0-.1 0 0 0 0h-.1-.1l-.1-.1s0 .1 0 0c0 .1 0 0 0 0h-.1-.1s-.1.1-.1 0h-.1-.2l-.1-.1h-.1-.1c0 .1 0 .1 0 0h-.1s0 .1-.1 0h-.1-.1l-.1-.1h-.1-.1-.1v-.1h-.1-.1-.1-.1l-.1-.1c0 .1-.1 0-.1 0s0-.1 0 0h-.1-.1V80h-.2H122h-.1l-.1-.1h-.1-.1l-.1-.1h.1v-.1z"/><path d="M95.7 75H97l.6.1.6.1c.3-.1.6.1.9.1l.3.1.3.1h.2l.3.1H100.5c.1 0 .2.1.2 0h.1l.2.1H101.6l.1.1h.1c.1 0 .2.1.2 0l.3.1.3.1h.4l.4.2.6.1.3.1c.1 0 .2-.1.2 0h.2l.2.1H105.2l.1.1c0-.1.1 0 .2 0h.5c0 .1.2.1.2 0h.3l.2.1h.3l.2.1s.1-.1.1 0h.2l.1.1.7.1.4.1c0-.1.1 0 .2 0h.1l.8.2.6.1h.1c.1 0 .2.1.2 0h.1l.2.1.6.1c.1 0 .1.1.2 0 0 .1 0 .1 0 0l.2.1h.1l.2.1.6.2h1.1s.2.2.4.1l.1.1h.2l.1.1c.1 0 .2-.1.2 0l.5.1.2.1h.6l.5.1.1.1h.1c0-.1 0 0 0 0h.3l.2.1h.2l.1.1.2.1h.1l.6.1.3.1.2.1H119.5l.2.1H119.4l-.6-.1-.4-.1h-.4l-.4-.1-.2-.1h-.4-.5l-.5-.1h-.3l-.1-.1h-.2-.1l-.3-.1H114.7l-.1-.1c-.1.1-.2 0-.2 0l-.5-.1h-.7l-.2-.1h-.2l-.2-.1-.2-.1c-.1.1-.2 0-.2 0l-.3-.1-.2-.1h-.4-.5l-.2-.1-.2-.1h-.5l-.1-.1h-.4-.1s-.1-.1-.1 0c-.1-.1-.2 0-.2 0l-.2-.1-.6-.1h-.2-.2-.1c-.1 0-.1-.1-.2 0l-.3-.1-.2-.1-.6-.1h-.1s-.1.1-.1-.1h-.2l-.7-.1h-.1-.2-.5l-.5-.2-.4-.1h-.2-.1-.1-.2l-.2-.1-.2-.1-.3-.1H102l-.2-.1h-.1l-.5-.1h-.2l-.2-.1c-.1-.1-.1-.1-.2 0-.1 0-.1-.1-.2 0l-.1-.1h-.3-.5l-.3-.1-.5-.2-.5-.1H98l-.3-.1h-.2l-.1-.1h-.1c-.1.1-.1 0-.2 0H97l-.1-.1h-.2l-.4-.1H96l-.1-.1-.3-.1h-.4.5z"/><path d="M96 74.9l.7-.1h1l.3-.1h2l1.5-.1.5.1h2.7l.4-.1.2.1.2-.1.2.1.2-.1h1.6l.3.1H111.4c.1.1.2.1.2 0h1.5l.4-.1h.1c.1.1.2.1.4 0H114.9c.1.1.1 0 .2 0h.3l1.2.1h.5l.4-.1h4.5s.1.1.2 0c.1.1.1 0 .2 0H123l1.1.1h.4c0 .1.1 0 .1 0h5c.3-.1.5 0 .8 0h1.6l.2.1H134l.4.1h.8-.5l-.9.1H131h-2.2-.5s-.1.1-.1 0h-4.7-4.2-.4H117.7h-.1H115.8l-.4.1c-.1.1-.3-.1-.4-.1h-1.4H111.7s-.1.1-.1 0h-2.8H108.2l-.2.1-.1-.1H105 103.8 99 98.4 97 96.4l-.4-.1h-.7c-.1 0-.1 0 0 0H96zM79.4 103.7v-.1l.1-.1v-.1-.1l.1-.1v-.2l.2-.1.1-.1c.1.1.1 0 .1 0v-.1h.1l.1-.1.1-.1s0 .1 0 0h.1v-.1-.1H80.7l.3-.1v-.1c0 .1 0 0 0 0v-.1c.1.1.1 0 .1 0 .1 0 .1.1.1 0h.1v-.1l.1-.1h.1s0-.1 0 0l.1-.1c.1.1.1 0 .2 0s.1-.1.2 0v-.1l.2-.1.1-.1h.1v-.1h.2s0-.1 0 0h.1l.2-.1.1.1s0-.1 0 0v-.1s.1 0 0-.1h.1l.1-.1c0 .1 0 0 0 0s.1 0 0 0h.4v-.1l.1-.1.1.1v-.1s0 .2 0 0h.7l-.1.1-.1.1h-.1-.1l-.1.1v.1s-.1-.1-.1 0l-.1.1-.1.1h-.1s0 .1 0 0h-.1-.1v.1c0 .1 0 0-.1 0l-.1.1v.1h-.1-.1s0 .1-.1 0l-.1.1c0-.1 0 0 0 0h-.2l-.1.1h-.1l-.1.1h-.1s-.1 0 0 .1c-.1-.1 0 .1-.1.1H82v.1l-.1.1h-.1l-.1-.1-.1.1c0 .1 0 .1 0 0l-.1.1-.1.1h-.1v.1c-.1-.1-.1 0-.1 0H81v.2c0 .1 0 0 0 0l-.1-.1-.1.1v.1h-.2v.1h-.1v.1l-.1.1h-.1v.1h-.2l-.1.1v.1h-.1l-.1.1-.1.1h-.1v.1h-.1v.1-.1-.1l-.1-.1zM79 107.1l.1-.1.1-.1v-.1s.1 0 0-.1l.1-.1.1-.2.2-.2.1-.1c.1 0 0-.1.1 0v-.1h.2v-.1-.1-.1h.2v-.1l.1-.1v-.1H80.6l.2-.2h.2v-.1-.1h.2l.1-.1v-.1h.1v-.1h.1s0-.1 0 0h.1v-.1l.2-.1h.2v-.1l.2-.1.1-.2h.1c.1.1 0-.1.1-.1h.1s.1 0 0 0h.2l.2-.1s0-.1.1 0l.1-.1v-.1h.1l.1-.1s.1 0 0 0h.1v-.1H83.8v-.1h.2v-.1h.1s.1.1.1 0H85h-.1l-.2.1-.1.1h-.1l-.1.1h-.1v.1h-.1l-.1.1-.1.1v.1h-.2-.1-.1c0 .1 0 0 0 0l-.1.2h-.1l-.1.1h-.1-.1s0 .1-.1 0v.1l-.1.1h-.1-.1l-.1.1h-.1l-.1.1c0 .1 0 0 0 0l-.1.1-.1.1c0-.1 0 .1 0 0l-.2.1v.2h-.2-.1l-.1.1v.1h-.1l-.1.1s0 .1 0 0c-.1 0 0 .1 0 .1h-.1c0-.1 0 0-.1 0v.1H81V106H80.7h-.1v.1l-.2.2h-.1v.1l-.1.1-.2.1v.1h-.1l-.1.1-.1.2h-.1-.1l-.1.1-.1.1h-.1l-.1.1H79v-.2zM79 110.3v-.1-.1-.1-.2l.2-.1c-.1-.1.1-.1.1-.2h.1s0-.1 0 0v-.1h.2v-.1s.1 0 0 0v-.1h.1c0-.1 0 0 0 0v-.1h.1v-.1l.1-.1h.1s0-.1 0 0l.1-.1.1-.1h.1c.1.1 0-.1 0 0h.1v-.1h.1l.1-.1s.1 0 0-.1c0 0 .1 0 0-.1h.1l.1-.1s-.1-.1 0 0h.1l.1-.1s0-.1.1 0c0-.1.1-.1 0-.1l.2-.1.1-.2c0 .1.1 0 0 0 .1.1.1 0 .1 0l.1-.1s.1 0 0 0h.1c0-.1 0-.1 0 0h.1l.2-.1h.1c0-.1.1 0 0-.1h.1v-.1h.1v-.1s0 .1 0 0h.2l.1-.1v-.1h.2s.1.1 0 0h.7l-.1.1-.1.1-.1.1h-.1l-.1.1v.1l-.2.1h-.1v.1c0-.1 0 0-.1 0 0 0 0-.1 0 0 0 0 0 .1 0 0l-.1.1h-.1v.2h-.1-.1-.1-.1v.1h-.1l-.1.1h-.1l-.1.1c0 .1 0 0 0 0v.1h-.1v.1c0-.1 0 0 0 0l-.1.1v.1h-.1v.1l-.1-.1h-.1l-.1.1c0 .1 0 .2 0 0v.2h-.2v.1c-.1-.1-.1 0-.1 0l-.1.1s-.1 0 0 .1h-.1v.1l-.2-.1v.1h-.1v.1l-.1.1H80c.1 0 0 0 0 0v.2c0 .1-.1 0-.1 0l-.1.1-.1.1h-.1v.1l-.1.1h-.1v.1h-.1l-.1.1h-.1-.1v-.1zM79.5 100.4v-.1l.1-.1v-.2-.1l.1-.1c0-.2.1-.2.2-.2l.1-.1c0 .1 0 0 0 0l.1-.1h.1s.1 0 0 0l.1-.1v-.1s.1.1 0 0h.1v-.1l.1-.1h.5s0-.1 0 0v-.1-.1h.2s0 .1 0 0c0 0 .1 0 0-.1h.1l.1-.1.1-.1s0-.1 0 0h.1l.2-.1s0-.1.1 0c0-.1.1 0 0-.1l.1-.1.2-.1c0 .1.1.1.1 0V98h.7v-.1-.1c0 .1 0 .1.1 0 0 0 0 .1 0 0H83.4v-.1h.1l.1-.1s.1.1.1 0h.6l-.1.1-.1.1H84v.2h-.1-.1-.1l-.1.1v.1h-.1s0 .1 0 0h-.1v.1h-.1l-.1.1s0 .1-.1 0l-.1.1h-.1c0 .1 0 .1-.1 0h-.1v.1h-.2v.1s-.1-.1-.1 0l-.1.1h-.1c0 .1 0 0 0 0v.2h-.1-.1v.2l-.2-.1s0-.1 0 0l-.2.1c.1 0 .1.1 0 0 0 0 0 .2-.1.1 0 0 0 .1 0 0-.1 0 0 .1 0 .1-.1-.1-.1-.1-.1 0h-.2v.1s-.1 0 0 0h-.1v.1H81v-.1l-.1.1c0 .1 0 .1 0 0l-.1.1h-.1s0 .1 0 0v.1h-.1v.1c0 .1-.1 0 0 .1h-.1-.2l-.1.2H80s0 .1 0 0v.1l-.2.1h-.1l-.1.1v-.1h-.1zM79.4 113.5v-.1l.1-.2v-.1l.1-.1.1-.2.1-.2c.1 0 .1-.1.2 0v-.1-.1h.2v-.1l.1-.1c0-.1.1 0 0 0v-.1h.1v-.1h.1v-.1h.1s0-.1.1 0l.1-.1.2-.1s0-.1 0 0h.1l.1-.1h.1v-.1l.1-.1h.1l.1-.1v-.1h.1v-.1c0 .1.1 0 .1 0l.2-.1h.2l.2-.2.1-.1h.1l.1-.1.2-.1s.1 0 0 0c.1 0 0 0 0 0h.1l.2-.1h.2v-.1c0-.1.1 0 .1 0l.1-.1v-.1s.1.1.1 0v-.1H84l.2-.1c0-.1 0 0 0 0 0-.1.1.1.1 0h.1v-.1h.6l-.2.2h-.1-.1v.1l-.1.1h-.1l-.1.1-.1.1-.1.1H84h-.1s0 .1-.1 0v.1l-.1.1-.1.1h-.1-.1l-.1.1h-.1v.1c0-.1-.1 0-.1 0H82.8h-.1l-.1.2h-.1v.1s0-.1 0 0h-.1v.1h-.1l-.1.1-.1.1-.1.1s0-.1 0 0h-.2l-.1.1-.1.2c-.1 0 0 0 0 0h-.1-.1l-.1.1-.1.1h-.1-.1v.1h-.2v.1h-.1l-.1.1s0 .1 0 0v.1h-.1v.1h-.1v.1h-.1l-.1.1-.2.1v.1l-.1.1h-.2v.1l-.1.1h-.1l-.1.1-.1.1v-.1-.1l.1.1zM79 117.2v-.2-.1c0-.1.1-.1 0-.1l.1-.1.2-.2c-.1-.2.1-.2.1-.3h.1c.1 0 0-.1.1 0v-.1l.1-.1h.1v-.1l.1-.1s.1 0 0 0c0-.1.1 0 .1 0v-.1-.1-.1h.1c0-.1.1 0 .1 0s0-.1.1 0l.1-.1.2-.1s0-.1.1 0c0 0-.1-.1 0-.1h.1v-.1c0 .1 0 0 .1 0 0 0 .1 0 0 0l.1-.1v-.1l.1-.1h.1v-.1h.1v-.1c.1.1.1 0 .1 0l.2-.1h.1l.1-.1.2-.2.1-.1s0-.1.1 0v-.1c.1.1.1 0 .1 0h.2v-.1c0 .1 0 0 0 0h.1l.2-.1h.1s0-.1.1 0v-.1-.1l.2-.1c0 .1 0 0 .1 0v-.1H83.6l.1-.1v-.1l.2-.1h.1c0-.1 0 .1 0 0l.1-.1h.7-.1l-.1.2h-.1l-.1.1-.1.1H84v.2l-.2.1h-.1v.1c-.1-.1-.1 0-.1 0s0-.1 0 0h-.1s0 .1 0 0c0 .2 0 .1-.1.1l-.1.1h-.1v.1H83v.1h-.2l-.1.1h-.1l-.1.1h-.1-.1l-.1.2-.1.1-.1.1c0-.1 0 0 0 0l-.1.2h-.1l-.1.1c0 .1 0 0 0 0h-.1l-.2.1c0 .1.1.1 0 .1l-.2.2-.2.1v.1l-.2.1v.1h-.1v.1h-.1-.1-.1v.2l-.1.1h-.1c.1 0 0 0 0 0l-.1.1v.1H80v.1l-.1.1-.2.1-.1.2h-.1-.1v.1h-.1v.1l-.1.1h-.1-.1v.1l-.1.1v-.1h.1v-.2zM78.8 140.8l.2-.1v-.1-.1-.1-.1l.2-.2.2-.2v-.1c.1 0 .1-.1.1 0v-.1h.1l.1-.1v-.1h.1v-.1c0-.1.1 0 .1 0v-.1h.1v-.1-.1-.1H80.3l.2-.1s0-.1.1 0v-.1h.1v-.1c.1.1 0 0 .1 0l.1-.1h.1v-.1-.1h.1l.1-.1s0-.1 0 0h.1v-.1l.3-.1s0-.1.1 0v-.1l.3-.2v-.1h.1s.1 0 0 0l.1-.1h.2v-.1h.2l.1-.1h.2l.1-.1v-.1l.1-.1c.1.1.1 0 .1 0v-.1s.1.1.1 0h.2l.1-.1.1-.1h.1s0-.1.1 0v-.1s.1.1.1 0h.2l.2-.1H84.7l-.1.1-.1.1h-.1l-.1.1-.1.1H84l-.1.2-.1.1h-.1l-.1.1h-.1l-.1.1-.2.1v.1h-.1-.1s0 .1 0 0l-.1.1h-.2l-.1.1s0 .1 0 0l-.1.1h-.1-.1l-.1.2h-.1s-.1 0 0 0v.1H82v.1c0-.1 0 0 0 0l-.2.2-.1.1c0 .1-.1 0-.1 0h-.1l-.1.1c0 .1 0 .2-.1.1v.1l-.1.1h-.1c0-.1 0 0 0 0s0 .1 0 0l-.1.1v.1h-.1l-.2.1v.2h-.1s-.1-.1-.1 0h-.1v.1l-.1.1-.1.1s0 .1-.1 0c.1.1 0 .1 0 .1H80v.2l-.1.1h-.1l-.1.1-.1.1-.1.1-.1.1h-.1l-.1.1-.2.1v.1h-.1l-.1.1v-.1h.1l-.1-.2zM79.2 119.7l.1-.1.1-.1v-.1l.2-.2.1-.1.2-.2c.1 0 .1-.1.1 0v-.1l.2-.1h.1v-.1h.1v-.1h.1v-.1l.1-.1.1-.1H81l.2-.2h.2v-.1c0 .1 0 0 0 0h.1v-.1h.2v-.1-.1h.1v-.1h.2s-.1-.1 0 0c0 0 0-.1 0 0l.2-.1c.1 0 .1-.1.1 0l.1-.1v-.1l.2-.2h.2l.1-.1.1-.1s.1 0 0 0h.1c0-.1 0-.1 0 0h.1v-.1H83.5s0-.1 0 0h.1v-.1l.1-.1.1-.1h.1s.1 0 0-.1c0 0 .1.1.1 0l.1-.1c.1.1.1 0 .1 0l.1-.1.1-.1h.5l.1-.1h.4l-.1.1h-.1l-.2.1v.1l-.1.1h-.1l-.1.1-.1.1-.1.1-.1.1h-.1-.1v.1h-.1-.1v.1l-.1.1h-.1-.2s0 .1-.1 0v.1h-.1l-.1.1h-.1v.1H83v.1l-.2.1h-.1v.1s-.1 0 0 0l-.1.1-.2.1v.1l-.1.1h-.1-.1l-.1.1c0 .1 0 .1 0 0l-.1.1-.2.1v.1c-.1-.1-.1 0-.1 0s0 .1-.1 0l-.1.1-.1.1h-.1v.1c0 .1 0 0-.1 0H81v.1c0 .1 0 .1-.1 0l-.1.1-.1.1h-.1v.1l-.1.1s-.1 0 0 0l-.1.1h-.1-.1l-.2.1v.1l-.1.1h-.1-.1s0 .1 0 0v.1h-.1v.1h-.1-.1l-.1.1h-.1v.1-.1-.2zM79 150.8v-.1-.2-.1s.1 0 0 0l.1-.3.1-.1c-.1-.2.1-.3.1-.4l.1-.1.1-.1.1-.2h.1v-.2l.1-.1v-.1h.1l.1-.1v-.1-.1h.1c.1 0 0-.1.1 0l.2-.1.2-.2h.1s-.1-.1 0-.1c0 .1 0 0 .1 0v-.1h.2v-.2h.1l.1-.1v-.1h.1v-.1h.1v-.1h.1l.3-.1.2-.1c-.1 0 0 0 0-.1v-.1l.2-.1.2-.2c.1.1.1 0 .1 0l.1-.1.2-.1c0-.1 0-.1.1 0h.1v-.1l.2-.1h.2l.1-.1.1-.2h.2l.2-.1.1-.1.1-.1.2-.1h.1s.1.1 0 0H84.8l.1-.1h.2l.1-.1h.2l-.1.1-.1.2H85v.1l-.2.1-.1.1h-.1l-.1.1-.2.2h-.1v.1H84s0 .1-.1 0l-.1.1-.1.1-.1.1-.1.1h-.2c-.1 0 0 .1-.1 0 0 .2 0 .2-.1.1l-.1.1H82.7v.1h-.1l-.2.2v.1h-.1s-.1 0 0 .1c-.1-.1 0 .1-.1 0 0 .2-.2.1-.2.2v.1l-.1.1c0 .1-.1 0-.2 0h-.1l-.1.1c0 .1 0 .2-.1 0v.2l-.2.1s0 .1 0 0v.1c-.1-.1-.2 0-.2 0v.1l-.1.1-.1.1s-.1 0 0 .1h-.1v.1c-.1-.1-.2-.1-.2 0l-.1.1h-.1v.1l-.1.1s0 .1-.1 0c.1.1 0 .1 0 .1H80V149.6l-.1.1-.1.1-.1.2h-.1v.1l-.1.1v.1h-.1v.2l-.1.1V150.9h-.1v-.1H79zM84.3 149h.1l.1-.1v-.1l.1-.1.1-.1.1-.2s.1-.1.1 0c.1 0 .1-.1.1 0v-.1h.2v-.1s.1 0 0 0c0-.1.1 0 .1 0v-.1-.1H85.6s0-.1 0 0h.1l.2-.2h.1s0-.1 0 0v-.1c0 .1 0 0 .1 0 0 0 0 .1 0 0h.1v-.1h.1v-.1h.1v-.1s0-.1 0 0h.1l.2-.1h.1v-.1l.2-.1v-.1h.2l.1-.1s.1 0 0-.1c.1.1 0 .1 0 0h.1c0 .1 0 0 0 0H87.7v-.1s.1 0 0-.1h.1s.1 0 0 0h.1s.1 0 0-.1h.1v-.1s0 .1 0 0h.1l.1-.1.1-.1h.1s0 .1 0 0h.2v-.1h.4v.1l-.1.1h-.1l-.1.1v.1h-.1v.1s-.1-.1-.1 0v.1l-.1.1h-.1v.1s0 .1 0 0c-.1-.1-.1 0-.1 0v.1H88v.2h-.1-.1s0 .1-.1 0v.1c-.1-.1-.1 0-.1 0h-.1v.1h-.1-.1l-.1.1v.1h-.1v.1c-.1-.1 0 .1-.1 0v.2l-.1.1h-.2-.1s0 .1-.1 0l-.1.2h-.1v.1c-.1-.1-.1 0-.1 0H86v.2l-.1-.1-.1.1h-.1v.1h-.1v.1h-.1v.1s-.1 0 0 .1h-.1c0 .1 0 0-.1 0v.1h-.2-.1-.1s0 .1 0 0c0 0 0 .1-.1 0l-.1.1v.1h-.1-.1-.1-.1.1v-.1l-.1-.1zM79 123.6v-.1l.1-.1v-.1s.1 0 0-.1l.1-.2h.2c0-.2.1-.2.2-.3l.1-.1.1-.1h.2v-.1-.1c0-.1.1 0 .1 0v-.1h.1v-.1l.1-.1H80.6l.2-.2h.1s0-.1 0 0h.1v-.1h.1v-.1h.1v-.1h.1l.1-.1.1-.1c.1 0 0-.1.1 0v-.1h.3s0-.2.1-.1v-.1l.2-.1.2-.1s.1 0 0-.1c.1.1.1 0 .1 0l.2-.1s0-.1.1 0l.1-.1H83.2l.1-.1v-.1h.2l.1-.1.2-.1c0 .1.1 0 .1 0l.1-.1h.5c0-.1.1 0 .1 0l.2-.1h.2v.1h-.2l-.1.1-.1.1-.1.1h-.1l-.1.1-.2.1H84v.1c0-.1 0 0-.1 0 0 0-.1-.1-.1 0l-.1.1h-.1l-.1.1v.1h-.1s0 .1-.1 0l-.1.1H82.9h-.1v.1h-.1v.1h-.1l-.1.1h-.1v.1s0-.1 0 0h-.1c-.1 0 0 .1 0 .1h-.1l-.2.1v.2h-.1-.1l-.1.1c0 .1 0 .1-.1 0v.1h-.1s0 .1-.1 0v.1c-.1-.1-.1 0-.1.1h-.1l-.1.1-.1.1v.1h-.1c-.1 0-.2-.1-.2 0 0 0-.1 0 0 .1h-.1v.1l-.2.1h-.1v.2h-.1-.2v.1l-.1.1-.2.1v.1h-.1-.1v.1h-.1v.1h-.1-.1v.1H79v.1-.2zM79.5 126.7v-.1-.1s.1 0 0-.1l.1-.1v-.1l.1-.2H80v-.1-.1h.1v-.1l.1-.1h.2l.1-.1s0-.1.1 0c0 0-.1-.1 0-.1 0 .1 0 0 0 0h.1v-.1h.1v-.1-.1h.1v-.1H81.2c-.1 0 0 0 0 0v-.1l.1-.1.1-.1v-.1c.1.1 0 0 .1 0h.1v-.1c0 .1 0 0 0 0 0 .1 0 0 0 0h.4v-.1-.1-.1h.2l.1-.1.1-.1s.1.1.1 0h.5l-.1.1-.1.1-.1.1-.1.1s0-.1 0 0h-.1v.1l-.1.1h-.1v.1h-.1c.1 0 0 0 0 0v.1h-.1v.1H82v.1h-.1-.1c-.1 0 0 0 0 0h-.1-.1l-.1.2c.1 0 0 0 0 0s-.1 0 0 .1c-.1-.1 0 0-.1 0l-.1.1v.1s-.1 0 0 0c0 .1-.1 0-.1 0h-.1l-.1.1c0 .1.1.1 0 0v.2h-.1v.1h-.1l-.1.1h-.1-.1l-.1.1v.1h-.1v.1s-.1 0 0 0c0 0-.1 0 0 0h-.1v.1c0 .1-.1 0-.1 0l-.1.1v.1l-.1.1h-.1v.1s-.1 0 0 0h-.1-.1v.1l-.1.1v-.1-.2zM79.1 130.3l.1-.1v-.1-.1s.1 0 0 0l.1-.2.1-.1c0-.2.1-.2.2-.2v-.1h.1l.1-.1h.1l.1-.1v-.1-.1h.1l.1-.1v-.1h.1s0-.1.1 0l.1-.1.2-.1c.1 0 0-.1 0 0h.1l.1-.1h.1v-.1-.1h.1l.1-.1.1-.1v-.1H81.6s0-.1.1 0v-.1-.1l.2-.1.1-.1s.1 0 0 0l.2-.1h.1s.1 0 0-.1c.1 0 .1 0 0 0h.2l.1-.1h.2l.1-.1v-.1l.1-.1H83.3l.1-.2.1-.1h.1s.1.1.1 0H84v-.1H84.3v.1l-.1.1-.2.1v.1h-.2-.1l-.1.2-.1.1v.1h-.1-.1v.1h-.1l-.2.1v.2h-.2c0-.1 0 0 0 0h-.1c0 .1 0 .1 0 0h-.1l-.1.1-.1.1h-.1-.1l-.1.1c0 .1 0 0-.1 0v.2c0-.1 0 0 0 0l-.2.1-.1.1v.1h-.1-.1l-.1.1s0 .1 0 0l-.2.2v.1c-.1-.1-.1 0-.1 0H81l-.1.1s-.1 0 0 .1h-.1v.1l-.2-.1v.1c0 .1 0 .1 0 0l-.1.1-.1.1h-.1c.1 0 0 0 0 0v.2h-.1v.1H80v.1l-.1.1h-.1l-.1.1v.1h-.2v.1h-.1v.1h-.1v.1h-.1v-.1l-.1-.1zM79 144l.1-.1.1-.1v-.1l.1-.2v-.1c0-.2.1-.2.2-.3 0 0 0-.1.1 0l.1-.1h.1l.1-.1.1-.1v-.1-.1h.1v-.1h.1c0-.1.1 0 .1 0s0-.1 0 0l.1-.1.2-.1h.1s-.1-.1 0-.1c0 .1 0 0 0 0H81c-.1-.1 0-.1 0-.1v-.1l.1-.1.1-.1h.1s-.1-.1 0-.1c0 .1 0 0 0 0 .1.1.2-.1.2-.1h.1s.1 0 0-.1l.2-.1.2-.1v-.1c.1.1 0 0 .1 0l.2-.1v-.1c0 .1 0 0 0 0 .1.1.1 0 .1 0h.4v-.2l.2-.1c0 .1 0 0 0 0v-.1h.2l.1-.1h.1l.1-.1s.1.1.1 0h.2l.1-.1h.4l-.1.1-.1.1H84v.1l-.1.1h-.1l-.1.1s0-.1 0 0l-.1.1-.1.1h-.1v.1c-.1-.1-.1 0-.1 0s-.1-.1-.1 0v.1h-.1l-.1.1v.1h-.2l-.1.1h-.1-.1v.1h-.2v.1h-.1l-.2.1v.1s0-.1 0 0v.1c-.1-.1 0 0-.1 0h-.2v.2l-.1.1c-.1 0-.1-.1-.1 0h-.2c.1.1.1.2 0 .1l-.1.2c-.1-.1 0 0 0 0h-.1c-.1-.1-.1 0-.1 0v.1l-.2.1v.2h-.1l-.1-.1-.1.1h-.1l-.1.2h-.1v.1c0 .1-.1 0 0 .1l-.1.1H80l-.2.1-.1.1v.1h-.1l-.1.1v.1s-.1 0 0 0h-.1-.1l-.1.1-.1.1v-.1-.1H79zM79 133.9l.1-.1.1-.1v-.1-.1l.1-.1v-.2c0-.2.1-.2.2-.2l.1-.1s0-.1.1 0v-.1l.1-.1.1-.1.1-.1c0-.1 0 0 0 0v-.1l.1-.1v-.1h.1c0-.1.1 0 .1 0s0-.1 0 0l.1-.2H80.7v-.1c0 .1 0 0 0 0h.1v-.1h.2v-.1-.1l.1-.1h.1v-.1h.1s-.1-.1 0-.1c0 .1 0 0 .1 0l.2-.1h.1v-.1l.1-.1h.2l.1-.2h.1l.1-.1h.1s.1 0 0-.1c.1.1.1 0 .1 0h.1l.2-.1h.2v-.1l.2-.1s.1 0 0-.1h.1l.2-.1c0 .1.1 0 .1 0v-.1h.6c0-.1 0 0 0 0l.2-.1H84.7v.1h-.2l-.1.1-.1.1h-.1l-.1.1H84v.1l-.2.1h-.1v.1h-.1-.1s0 .1-.1 0v.1h-.1l-.1.1-.1.2H83h-.1-.1-.1-.1l-.1.1-.1.1h-.1l-.1.1c0 .1 0 0 0 0l-.1.1H82v.1c0-.1 0 0 0 0l-.2.1v.2h-.1c0 .1 0 0-.1 0l-.2.2-.2.2c0-.1 0 0 0 0H81v.2h-.2v.1c-.1 0 0 0 0 0v.1h-.1s-.1-.1-.1 0l-.1.1-.1.1-.1.1s0 .1 0 0v.1h-.1l-.1.1-.1.1v.1l-.2.1-.1.1v.1h-.1v.1h-.2v.1l-.1.1v.1h-.1-.1l-.1.1v-.2zM78.5 137.6v-.1l.1-.1v-.1l.1-.1.1-.1c-.1-.1 0-.1.1-.1l.1-.1s0-.1 0 0v-.1h.2s.1 0 0-.1h.1v-.1h.1v-.1-.1h.1c.1 0 0-.1.1 0l.1-.1.1-.1h.1s-.1 0 0 0h.1v-.1-.1h.2v-.1-.1l.1-.1s-.1 0 0 0h.1l.1-.1h.1v-.1l.2-.1.1-.1h.1v-.1h.1s.1 0 0-.1c.1.1 0 0 0 0h.1c0 .1 0 0 0 0l.2-.1h.2c0-.1 0 0 0 0v-.2c.1.1.1 0 .1 0v-.1H82v-.1l.1-.1s.1.1.1 0h.2l.1-.1h.2v.1l-.1.1-.1.1-.1.1h-.1l-.1.2h-.1-.1v.1c0-.1 0 0 0 0s0-.1 0 0v.1h-.1l-.1.1h-.1v.1h-.2l-.1.1c0-.1 0 0 0 0h-.2v.1h-.1-.1v.1c0 .1 0 0 0 0v.1s-.1 0 0 .1c-.1-.1 0 .1-.1 0l-.2.1v.1c0 .1-.1 0-.1 0l-.2.1c.1.1.1.1 0 0v.1l-.1.1h-.1v.1H80v.2c-.1 0-.2-.1-.2 0h-.1v.1s-.1 0 0 0l-.1.2h-.1c.1 0 0 0 0 0s-.1 0 0 0h-.1v.2h-.1l-.2.1H79v.2h-.2l-.1.1h-.1-.1v.1-.1zM78.5 147.2v-.2h.1v-.1l.1-.1.1-.1c-.1-.2 0-.2.1-.2l.1-.1.1-.1h.1s.1 0 0 0l.1-.1c0-.1 0 0 0 0v-.1h.1v-.1h.1c.1 0 0-.1.1 0l.1-.1.1-.1h.1s-.1-.1 0-.1c0 .1 0 0 .1 0v-.1l.1-.1h.1v-.1l.1-.1s-.1 0 0 0h.1l.1-.1s0-.1.1 0v-.1-.1h.2l.1-.1h.1v-.1c0 .1 0 0 0 0l.1-.1s.1 0 0 0c.1 0 0 0 0 0h.1l.2-.1h.1l.1-.1v-.1h.1v-.1H82v-.1l.1-.1s0-.1 0 0v-.1s.1.1.1 0h.5l-.1.2-.1.1h-.1v.1h-.1l-.1.1-.1.1H82v.1h-.1v.1h-.1c-.1 0 0 .2-.1.1v.1h-.2-.2l-.1.1v.1h-.1-.1v.2s0-.1 0 0c0 0-.1 0 0 0-.1 0 0 .1-.1 0l-.2.2v.1h-.1l-.2.1c.1 0 .1 0 0 0l-.1.2H80V146.3l-.2-.1-.1.1s0 .1 0 0c0 0-.1 0 0 .1l-.1.1h-.1c.1 0 0 0 0 0v.1s-.1 0 0 0h-.1v.1h-.1v.1h-.2l-.1.2h-.2v.1s0 .1-.1 0c0 .1 0 0 0 0l-.1.1h-.1z"/><path d="M82.7 149.1l.2-.1h.8c.1-.2.3-.1.3-.1h.1l.1.1.1-.1c.1.1.1.1.1 0l.1.1.1-.1h.1l.1-.1.1.1.1-.1v.1-.1h.4l.1.1h.5v.1s0-.1 0 0h.2l.1-.1.1.1c0-.1.1 0 .1 0l.1-.1.1.1.1-.1.1-.1c0 .1.1.1.1 0h.2c0 .1 0 0 0 0h.1l.3.1s.1-.1.1 0l.1-.1H88.5c0 .1.1 0 .1 0h.2s.1.1.1 0c0 .1 0 0 .1 0h.3l.1.1s0-.1 0 0l.2-.1h.1l.1-.1h.1s.1 0 0 0h.1v-.1l.1-.1c.1.1.1 0 .1 0l.1-.1.1-.2c0-.1.1 0 0-.1l.1-.1h.1v-.2-.2-.2-.1l.1.1.1.2v.4l-.1.2v.1l-.1.2-.1.2v.1h-.1v.1l-.2.1h-.1-.1l-.2.1-.2.1-.1.1-.1-.1h-.2s0 .1 0 0l-.2.1v-.1h-.1-.4-.1c-.1 0-.1.1-.2 0 0 .1 0 0 0 0l-.1.1H88s0-.1 0 0c0 0 0-.1 0 0-.1-.1-.1 0-.2 0h-.2-.1-.1l-.1.1-.1-.1-.1-.1h-.2c-.1.1-.1.2-.1 0l-.1.1c-.1 0-.1.1-.2 0h-.1c-.1-.1-.1 0-.1 0H86 85.7h-.1v.1l-.2-.2h-.1v.1h-.1c0-.1 0-.1-.1 0H85l-.1-.1-.1.1-.1-.1v.1h-.1s-.1-.1-.1 0h-.1-.2l-.2-.1h-.2l-.1.1h-.1-.1v-.1h-.2-.1-.4-.1.2l-.2-.1zM90.7 96.3v.7l.1.7v.4l.1.4v.9l.1 1.1v2.2l-.1.5.1.2v.6h-.1v.5c0 .1-.1.3.1.5v1s-.1.1 0 .2V108.8l-.1.8v1.2l-.1.3v.1c0 .1.2.2.1.3V112.4l-.1.3v.2l.1.3v1.3l.1.4v.1V116.9l-.1 1.3v.5l.1.4v2.9.3 1.6c0 .1-.1.1 0 .2-.1.1 0 .1 0 .2v.7l-.1 1.1-.1.2c0 .1.1.2 0 .2v.7l.1.5v.2c0 .2-.1.5.1.7l-.1.3c0 .1-.1.1.1.2v.1l-.1.2.1.3-.1.9c-.1.1 0 .2 0 .4v1l.1.8-.1.2v.1c.1.1 0 .1 0 .2s-.1.2 0 .4v.3l-.1.5v1.7l-.1.4v1.3-.1-.4l-.1-.9v-.7-.7-.6-.5-.5-.4-.6l-.1-.9v-.5-.1c.1-.1.1-.3 0-.4v-.1l.1-.5v-.2-.3c0-.1-.1-.1 0-.2V128l-.1-.6c-.1-.2 0-.4 0-.4v-.4l.1-.4v-.4-.3-.1c-.1-.1-.1-.2 0-.4v-.9-.3V122.6v-.3-.3-.9-.2-.3-.1-.2-.3-.2c0-.1-.1-.2 0-.4v-.1-1.3h-.1v-.2c.1-.2.1-.2 0-.4v-.1-.4c-.1-.2 0-.3 0-.4l.1-.5v-1c-.1-.2-.1-.3 0-.4v-.3l-.1-1.1v-.2c.1 0 0-.1 0-.2v-.1-.5-.5l.1-.7v-.8l-.1-.3v-.1l.1-.3-.1-.2v-.2-.2c.1-.2.2-.3.1-.5v-.5-.2-.3-.4-1-.3-.2-.3-.3-.4-.1-.4-.5-.5-.5-1.8-.4-.8l.1-.2v-.1c-.1-.2 0-.2 0-.4v-.1-.3-.3-.1-.6-.2-.2-.3-.5-.2-.5.4l.1.4h-.1zM58 90h8.5l3.5-.1 1 .1h5.8l1-.1c.2-.1.3.1.4.1l.5-.1.4.1.4-.1h.9l1-.1h.9l.7.1c.3 0 .6-.1.8.1h6.9l.3-.1.7.1h.5l.6-.1 1-.1h.5l.4.1.9-.1h9.5l.4-.1h3l1.9-.1.6.1.6-.1H112.8l2.1.1.4-.1c.2.1.2.1.4 0h.5l.5.1h3.3l.4.1h.3l1.1-.1h1.4l1.5-.1.6.1.4-.1h.1l.6.1.4-.1h2l.6.1 1.1-.1h2.8c.1 0 .3-.1.4 0h3.9l.6-.1h2l.8.1h2.2c.3 0 .6.1.5.3l-.1.1-.8.1-2-.1h-8.2l-1.8.1-1 .1-.4-.1h-1.9l-.5-.1-.6.1-.4-.1h-.1l-.8.1h-1.7l-1.4.1h-3.3l-.5-.1h-.2l-.7.1h-5.7l-.6-.1-1.9.1H107l-.5.1h-.9l-.3-.1h-.1l-2.4.1h-.3-1.3l-.8.1-.9-.1H95.7 95l-2.2.1h-.4c-.1-.1-.2 0-.4 0h-.3l-1-.1-.9.1c-.5-.1-1 0-1.6 0H86h-2l-1-.1h-3-4.3l-.7.1-.2-.1-.8.1h-3.1l-1.9-.1h-1.9l-.8.1h-2.1-2.4-1.4c-.2.1-.4 0-.4 0l-.6.1h-2-.1l-.9-.2v-.2l.3-.1H58zM7 129.2l.2-.1v-.1h.1l.1-.1.1-.1.2-.2h.1s0-.1.1 0v-.1H8v-.1h.1l.1-.1v-.1h.1v-.2h.5s0-.1 0 0v-.1h.1l.1-.1.1-.1h.1v-.1s.1 0 0-.1c.1 0 .1.1.1 0h.1v-.1h.1l.2-.1h.1v-.1l.2-.1.1-.1h.2l.1-.1s.1 0 0 0h.1c0-.1 0-.1 0 0h.1l.1-.1H11v-.1-.1h.1s.1 0 0 0h.1v-.1h.2l.1-.1.1-.1h.2v-.1h.2l.1-.1h.2v.1l-.1.1H12v.1l-.2.1h-.1l-.1.1-.1.1v.1h-.1-.1v.1l-.1.1h-.1-.1v.1s0 .1-.1 0l-.1.1h-.1l-.1.1h-.1l-.1.1h-.1l-.1.1c0 .1 0 0 0 0s-.1 0 0 .1h-.1s-.1 0 0 .1c-.1-.1 0 0-.1 0l-.1.1-.1.1v.1h-.1s-.1-.1-.1 0h-.1s0 .1 0 0h-.1l-.1.2c-.1 0 0 0 0 0h-.1-.1v.1H9l-.1.1h-.1v.1l-.2-.1v.1s-.1 0 0 0h-.1v.1h-.2s0 .1 0 0v.1h-.1v.1h-.1H8v.1l-.2.1h-.1-.2l-.1.1-.1.1h-.1-.1l-.1.1v-.1zM.1 128.2l.1-.1.1-.1h.1l.1-.1.1-.1.2-.2c.1 0 .1-.1.2 0v-.1-.1h.2v-.1-.1h.1v-.1l.1-.1h.4s0-.1 0 0v-.1c.1.1.1 0 .1 0H2v-.1c0 .1 0 0 0 0 0-.1.1 0 0-.1h.2v-.1-.1s.1.1.1 0v-.1h.1l.2-.1h.1v-.1l.2-.1.1-.1h.2l.1-.1c0-.1 0-.1 0 0h.1l.2-.1h.1l.1-.1.1-.1H4v-.1h.2v-.1h.1l.1-.1h.2v-.1h.1l.1-.1H5v.1l-.2.1-.1.1-.1.1h-.1v.1l-.1.1-.1.1h-.1l-.1.1-.1.1h-.1v.1h-.1s0 .1 0 0l-.1.1h-.1-.1v.1h-.1l-.1.1h-.1l-.1.1c0 .1 0 0 0 0l-.1.1v.1c0-.1 0 0 0 0l-.2.1v.1l-.1.1H2.4c.1 0 .1.1 0 0v.1l-.1.1c-.1 0 0 .1 0 0 0 0 0 .1 0 0l-.1.1-.2.1v.1h-.1-.1-.1s-.1 0 0 0c0 .1 0 .1-.1 0v.1l-.1.1h-.1l-.1.1h-.1v.1h-.1H1v.1H.7v.1H.6v.1H.5l-.1.1H.3.2l-.1.1.1-.1-.1-.1zM3.3 128.8v-.1l.2-.1v-.1l.2-.1.1-.1.2-.3h.2v-.1h.1c0-.1.1 0 0-.1l.1-.1h.1c0-.1 0 0 0 0v-.1l.1-.1.1-.1h.1s0-.1 0 0H5l.2-.2c.1 0 0-.1.1 0l.1-.1v-.1.1h.1v-.1h.1l.1-.1v-.1h.1v-.1h.1s-.1-.1 0 0H6v-.1c0 .1.1 0 .2 0 0 0 0-.1.1 0v-.1-.1l.2-.1.1-.1h.1v-.1c.1.1.1 0 .1-.1H7.1l.2-.1s0-.1.1 0l.1-.1v-.1l.1-.1c.1.1.1 0 .1 0h.1v-.1H8v-.1h.1l.1-.1h.1v-.1h.2l.1-.1.1-.1H9l-.2.2h-.1l-.1.1-.1.1-.1.1h-.1v.1l-.1.1-.1.1H8v.1l-.1.1h-.1-.1l-.1.2h-.1l-.1.1h-.1-.1v.1h-.1H7v.1h-.1l-.1.2h-.1v.1s0-.1 0 0h-.1v.1h-.1l-.1.1-.1.1v.1c0 .1-.1 0-.1 0h-.1l-.1.1c0 .1 0 .1 0 0v.1l-.2.1s0 .1 0 0l-.1.1c-.1-.1-.1 0-.1 0v.1c-.1-.1-.1 0-.2 0l-.1.1h-.1v.2l-.2-.1v.1H4.7s0 .1 0 0v.1h-.1v.1h-.1v.1h-.1-.1v.1h-.2l-.1.1-.2.1h-.1l-.1.1-.1.1h-.1-.1l-.1.1.1-.1zM11.1 129.2l.1-.1.1-.1h.1l.1-.1.1-.1.2-.2h.2v-.1h.1s.1 0 0-.1h.1l.1-.1.1-.1.1-.1h.2l.1-.1H13.1v-.1l.1-.1h.1v-.1h.1l.1-.1s0-.1 0 0h.1l.2-.1h.1v-.1h.1l.2-.1s0-.1 0 0l.1-.1c0 .1 0 0 0 0h.2v-.1c0 .1 0 0 0 0s0-.1 0 0h.1l.2-.1h.2s.1 0 0-.1h.1v-.1H15.4l.1-.1.1-.1h.1l.1-.1.2-.1v-.1h.2l-.1.1-.1.1v.1l-.2.1-.1.1-.1.1-.1.1h-.1l-.1.1s0 .1 0 0l-.1.1-.1.1-.1.1h-.1l-.1.1h-.1l-.1.1h-.1l-.1.1h-.1l-.1.1h-.1v.1s-.1 0 0 0c-.1-.1 0 .1-.1.1l-.1.1-.1.1-.1-.1-.2.1c0 .1.1.1 0 0v.1l-.1.1h-.1c0-.1 0 0 0 0 0-.1-.1 0-.1 0H13v.2s-.1-.1-.1 0h-.1s0-.1-.1 0h-.1c0 .1 0 .1 0 0v.1h-.2v.1h-.1l-.1.1c0 .1-.1 0-.2 0v.1h-.2-.2l-.1.1-.1.1h-.1-.1s.1 0 0 0h-.1l-.1.1.1-.1zM15.3 129.2l.1-.1.1-.1.1-.1.2-.1.2-.2h.1l.1-.1h.1v-.1h.1v-.1h.1v-.1l.1-.1h.1s0-.1.1 0l.1-.1h.2c.1 0 0-.1.1 0h.1v-.1c0 .1 0 0 0 0h.1v-.1h.1v-.1s0 .1.1 0v-.1h.1l.1-.1h.2c.1 0 .1-.1.2 0v-.1l.2-.2.1-.1h.1c0 .1 0 0 0 0 .1.1 0-.1.1-.1h.1s.1 0 0 0c.1 0 0 0 0 0h.5v-.1l.1-.1.1-.1s.1 0 0 0h.1v-.1h.2v-.1h.1l.1-.1.1-.1h.2l.1-.1h.2l.1-.1-.1.1-.1.1v.1h-.1l-.1.1h-.1v.1h-.1l-.1.1v.1l-.1.1h-.1v.1c0-.1 0 0 0 0h-.1-.1-.1l-.1.2c-.1 0-.1.1-.1 0l-.1.1s0 .1-.1 0l-.1.1h-.1l-.1.1h-.1l-.1.1c0 .1 0 0 0 0s-.1 0 0 .1h-.1s-.1 0 0 .1c-.1-.1 0 0-.1 0l-.1.2h-.1-.1-.1-.2c.1.1.1.2 0 0v.1l-.1.2h-.1c0-.1 0 0 0 0-.1-.1-.1 0-.1 0h-.1-.1l-.1.1h-.1l-.1.1c0 .1 0 0 0 0s0-.1 0 0h-.1-.1c0 .1 0 .1 0 0v.1h-.2v.1h-.1l-.1.1h-.2l-.2.1v.1h-.2-.1-.1l-.1.1h-.1l-.1.1h-.1l.1-.1v.1zM19.5 129.3l.1-.1.1-.1v-.1H20v-.2l.3-.2h.2v-.1h.1v-.1h.1v-.1h.1c0-.1 0 0 0 0v-.1h.1l.1-.1v-.1h.4l.1-.2h.1c0 .1 0 0 0 0h.2v-.1c0 .1 0 0 0 0h.1l.1-.1v-.1l.1-.1c0 .1.1.1.1 0l.1-.1s0-.1 0 0h.1l.2-.1s0-.1.1 0l.1-.1v-.1h.2l.1-.1s0-.1.1 0v-.1c.1.1.1 0 .1 0l.1-.1s.1 0 0 0h.1c0-.1 0-.1 0 0h.1v-.1h.4v-.1c0-.1 0 0 0 0l.1-.1h.1v-.1h.1l.1-.1h.2v-.1l.2-.1h.2l.1-.1.2-.1H25.6h-.1l-.1.2h-.1-.1l-.1.2H25v.1h-.2l-.1.2h-.1v.1h-.1l-.1.1-.1.1-.1.2h-.1-.1-.1-.1-.1v.1s-.1.1-.1 0v.1h-.1l-.1.1h-.1l-.1.1c0 .1 0 .1 0 0l-.1.1H23v.1c0-.1 0 0 0 0l-.2.1v.1l-.1.2-.1-.1h-.1l-.1.1h-.1c.1 0 .1 0 0 0l-.2.2c-.1-.1 0 0-.1 0 0-.1 0 0 0 0v.1c-.2-.1-.2 0-.2 0h-.2v.1h-.1v.1l-.2-.1v.1h-.1-.1l-.1.1c0 .1 0 0 0 0h-.1v.1h-.1l-.1.1h-.1l-.1.1-.2.1h-.1-.2v.1h-.1l-.1.1s0 .1-.1 0c0 .1 0 0 0 0h-.1v.1h-.1-.1.1zM23.5 129.4l.1-.1.2-.1.1-.1.1-.1h.1l.3-.3h.2v-.1h.2v-.1-.1h.1c0-.1.1 0 .1 0v-.1-.1l.1-.1.1-.1h.4s0-.1.1 0v-.1c.1.1.1 0 .1 0v-.1h.2v-.1-.1s.1.1.1 0h.1v-.1h.1v-.1h.1s-.1-.1 0-.1c0 .1 0 0 0 0h.1c.1.1.1-.1.2-.1 0 0 0-.1.1 0v-.1-.1h.2l.2-.2h.1c.1 0 0-.1 0-.1h.2s.1 0 0-.1h.2l.2-.1h.1l.1-.1v-.1h.2v-.1l.2-.1h.1v-.1h.2s0-.1.1 0v-.1s.1.1.1 0v-.1h.2l.2-.1v-.1h.2l-.2.2-.1.1-.1.1H29v.2l-.2.1v.1h-.1s0 .1 0 0l-.1.1h-.1s0 .1 0 0v.1l-.2.1v.1l-.1.1H28v.1h-.2-.1v.1l-.1.1h-.1-.1l-.1.2v.1s-.1-.1-.1 0c0 0-.1 0 0 .1-.1-.1 0 0-.1 0H27v.2h-.1v.1l-.1.1h-.1s0-.1-.1 0h-.1s0 .1-.1 0v.1l-.1.2h-.1c0-.1 0 0 0 0-.1-.1-.2 0-.2 0v.1c0-.1 0 0-.1 0l-.1.1h-.1v.1s-.1 0 0 0h-.1s-.1-.1-.1 0h-.1l-.1.1-.2.1H25v.2h-.1-.1-.4l-.1.2h-.1v.1H24l-.1.1h-.1-.1-.1v.1h-.1-.1.1v-.1h.1-.1zM27.8 129.3l.1-.1.1-.1v-.1h.2l.2-.1.2-.2s0-.1.1 0l.1-.1.1-.1h.1v-.1-.1s.1.1.1 0h.1l.1-.1v-.1l.1-.1h.4s.1-.1.2 0v-.1c0 .1 0 0 0 0v-.1h.2v-.1h.1l.1-.1v-.1h.1l.1-.1s0-.1 0 0h.1l.3-.1s0-.1 0 0v-.1l.3-.2h.2l.1-.1.1-.1s.1 0 0 0h.1v-.1c0 .1 0 0 .1 0h.2s0-.1.1 0l.1-.1v-.1l.1-.1c0 .1.1 0 .1 0v-.1h.2l.1-.1h.1l.1-.2H33.3l.2-.2h.2v-.1.1l-.1.2h-.2l-.1.2h-.1v.1h-.1l-.1.1v.1l-.1.1h-.1-.1v.1h-.1v.1h-.1l-.1.2h-.1-.1s0 .1-.1 0l-.1.1c0-.1 0 0 0 0v.1h-.1-.1l-.1.1h-.1l-.1.2h-.1l-.1.1v.1h-.1l-.1.1-.1.1v.1h-.1H30.6c.1.1.1.2 0 0v.1l-.2.2c0-.1 0 0 0 0-.1-.1-.1 0-.1 0h-.1l-.2.1s-.1 0 0 .1c-.1 0-.1-.1-.1 0h-.1v.1l-.2-.1v.1h-.1c0-.1-.1 0-.1 0l-.1.1h-.1v.1H29v.1h-.1l-.1.1h-.2-.1-.2-.1v.1h-.1l-.1.1-.1.1h-.1-.1.1v-.1.1z"/></g><path d="M61.7 175.7c-2.8-.1-5.7-.7-8.7-1.1l-4.7-.9-4.6-1.2-4.4-1.4-4.3-1.7-.5-.3c-3.5-1.7-6.8-3.7-9.6-6.1-3.3-2.8-6.3-5.8-8.7-9.2-1.2-1.4-2.1-2.8-3-4.3l-2.5-4.5c-1.5-3.1-2.7-6.4-3.8-9.7-.7-2-1.4-4.1-1.8-6.3-.4-1.8-1-4-1.2-6l-.2-.8-.4-2-1-7.2-.1-1.2-.5-5.4c-.2-1.6-.2-3.4-.5-4.9V100C1 98.2 1 96.5 1 94.8.8 93 1 91 .8 89v-2.5-2.7l.2-2.6V79l.1-5.8c0-1.9.2-3.7.3-5.5L2 62c0-1.5.3-2.9.6-4.2l.7-4.2.1-.3.8-4.3 1.1-4.2C6.5 40 8 35.1 10.2 30.6l1-2 1.1-1.8.6-1.1c.8-1.1 1.1-2.2 2.1-3.3l2.2-2.9 2.8-3.1 1.9-1.9c.9-.5 1.9-1.7 3.1-2.3l2.1-1.6c1.1-.8 2.2-1.5 3.4-2.1l2.6-1.4 2.7-1.3c.8-.3 1.8-.8 2.7-1L41 4l4.8-1.4c1.4-.3 3.2-.6 4.5-1l.9-.1c1.6-.2 3-.3 4.7-.7l4.8-.4 5.2-.3 2.9-.1h3l3.2.1c5.4.4 11 .6 16.3 1.5C93.5 2 96 2.3 98 3c1.6.2 3.5.8 5 1.2l2.7.8c5.6 2 10.9 5 15.4 8.8 3 2.6 5.7 5.5 8 8.6l1.9 2.8c.3.8 1.2 2.2 1.8 3.2.2.1.4.6.5.7.8 2.1 1.9 3.9 2.7 5.9 1.6 4 2.7 8 3.7 12.1.3.9.4 1.9.7 2.6 0 .7.2 1.2.4 2 .3.8.5 2.3.6 3l.4 3 .4 3.2c.6 4.4.9 8.9 1.2 13.4V81.5l.1 6.6.1 5.9-.1 2.3c0 3-.4 6-.3 9l-.4 3.5c-.1.9-.3 1.9-.2 2.7l-.1.5-.5 3.3c0 1-.1 1.8-.3 2.9-.6 3.9-1.5 7.8-2.5 11.7-.4 1-.6 2.2-1 3.4-.6 2.1-1.2 4.1-2 6.1l-1.2 3-1.3 2.9c-1.4 3.2-3.3 6.1-5.3 9l-1.7 2.1-1 1c-.3.6-.7 1-1.1 1.4-1.1 1.2-2.4 2-3.4 3.2-1.3 1.2-2.8 2.2-4.2 3.2l-4.4 2.6-2.2 1.1c-.6.1-1.8.7-2.3 1-1.1.6-2.4 1.1-3.7 1.5-3.8 1.3-7.7 2.3-11.6 3-1.8.3-3.5.6-5.2.6-1.8.3-3.6.5-5.4.5l-.4.1-2.1.2h-2.6c-1 .2-1.7 0-2.4.1-2.3 0-3.7-.3-3.4-.6l.7-.3c2-.3 2-.2 5.1-.4 4-.2 7.9-.3 11.9-.9 2.6-.2 5.3-.7 8-1.3l4-1c1.4-.4 2.7-.8 4-1.4 2.5-1 5-2 7.3-3.3l2.7-1.5 2.5-1.6c.9-.6 1.8-1.3 2.5-2l2.4-2.1 1.5-1.3 1.2-1.4c1.7-2.1 3.4-4.3 4.7-6.5 1.8-3.1 3.5-6.3 4.8-9.7.7-1.8 1.4-3.6 1.9-5.4l.9-2.6.9-3.5.4-1.7c.5-1.7.9-3.5 1.2-5.4.1-1 .6-2.3.6-3l.5-3.3c0-.7 0-1.7.3-2.3.1-.2.2-1 .1-1.2 0-1.3.3-2.8.4-4.2.2-3.4.5-6.7.6-10.1.2-2.9 0-5.5.1-8.4l-.1-5.5v-4.1l-.1-4.3c.1-1.8-.3-3.9-.3-5.9 0-1.1-.3-2.3-.2-3.3l-.1-.9c-.3-1.4-.5-3.2-.6-4.5-.1-2-.5-4-.8-6l-1-5-.8-3.6-.9-3.3-1.1-3.3-1.3-3.6c-.4-1.2-1-2.3-1.5-3.5L132 29l-2-3.4c-2-3-4.3-5.7-6.8-8.4l-2.2-2c-.7-.6-1.5-1.4-2.3-1.9l-1-.6c-.7-.5-1.3-1.1-2.2-1.6L113 9.7c-.8-.5-1.8-1.1-2.6-1.3-1.5-.9-3.2-1.4-4.8-2l-1.6-.7-.8-.3C98.7 4.2 94 3 89.4 2.5l-1.7-.2-.9-.1-5-.4-1.8-.1c-1.7-.1-3.3-.2-5-.1l-5.2-.2-4.8-.1c-4.3.2-8.6.6-12.8 1.2l-1.6.3c-1.2.3-2.2.7-3.4.7l-.6.1c-1 .4-2.3.6-3.4.9-4.4 1.2-8.5 3.1-12.4 5.2l-1.8 1c-.9.4-1.1.8-1.8 1.3-.6.3-1.2 1-1.8 1.2L23 15l-2.1 2.2-3.4 3.8c-1.9 2.4-3.5 5-5 7.8s-2.8 5.7-3.8 8.7c-.4 1.2-.9 2.5-1.1 3.7l-.3 1.2-.9 2.7-.6 2.9-.4 2.3c0 .6-.3 1.6-.5 2.5-.5 1.8-.9 3.7-1.2 6L3 65.2c-.2.8-.2 1.7-.2 2.6 0 .9-.1 2.3-.3 3.4l-.2 4.7v1.8l-.2 11.1c0 .9.1 1.9-.1 2.6.2.6.2 1.6.2 2.3v3.6l.3 4.2c.2 1.3.1 2.8.4 4.2L3 107c0 1.5.1 3.3.5 4.7l.1.7c0 1.8.4 3.6.7 5.4l.9 5.7 1.5 6.5c.8 3.6 2 7 3.3 10.3 1.4 3.5 3.1 6.7 5.1 9.9.9 1.4 1.9 2.6 2.9 3.9.5.7 1 1.4 1.7 2.1l1.8 2c1.1 1.2 2.5 2.3 3.7 3.5.6.4 1.3.9 1.8 1.5l.6.5c1.4.7 2.4 1.5 3.7 2.3l1.3.8c1.2.8 2.4 1.2 3.5 1.7s2.3 1.1 3.3 1.3c.2.1.7.2.9.4 2.1 1.1 4.9 1.4 7.1 2.2 1 .1 1.9.5 2.6.6l3.3.5 3.2.5 5.8.5c.7 0 1.9 0 2.7.2h.8c2.2.1 4.8.3 5.3.5.3.1.3.3 0 .5l-1.6.1-3.2.2-4.5-.2-.1-.1z" fill="#000"/></svg>