<svg width="145" height="250" fill="none" xmlns="http://www.w3.org/2000/svg"><path d="M46 198.1c-.5 0-1 .2-1.2.5-.3.3-.6.7-.8 1.4v-1.3-1.1l.1-.1.1.1c0 .2.2.3.7.3h4.7l.7-.1.2-.2.1-.1.1.1-.1 1.1v1.3h-.1-.1c-.1-.7-.2-1.2-.5-1.4-.3-.3-.7-.5-1.2-.5l-.5.1c-.2 0-.2.1-.2.2l-.1.4v5.6l.1.6.3.2h.7v.2l-.7-.1h-1.9l-.7.1-.1-.1.1-.1h.6l.3-.2.1-.6v-5.6-.4l-.2-.2-.5-.1zm9.4 7.2l-.1.1-.2-.1-3-6.5-.4-.6c-.1-.2-.3-.2-.5-.2h-.1l.1-.1h2.5v.1h-.5l-.1.3.2.7 2.4 5-.5.8 1.5-3.8.3.4-1.6 3.9zm6.8-7.4v.1c-.2 0-.6.1-.8.3l-.6 1-2.3 6-.2.1-.1-.1-3-6.5c-.2-.2-.2-.5-.4-.6-.1-.2-.3-.2-.5-.2v-.1H56.5v.1h-.3l-.1.2.1.3.2.5 2.4 5-.5.8 2.2-5.5.1-.6-.2-.5c-.2-.2-.4-.2-.6-.2v-.1h2.4zm-4.7 1.3l.2-.8c0-.3-.1-.4-.4-.4v-.1H59l.1.1H59l-.6.3-.6 1-.8 2.1-.2-.4.7-1.8zm8.7 6.3c-.8 0-1.4-.2-2-.5-.6-.4-1-.8-1.3-1.4-.4-.6-.5-1.3-.5-2 0-.8.2-1.6.6-2.1.4-.5 1-1 1.6-1.3.7-.3 1.4-.5 2-.5.8 0 1.4.2 2 .6.6.3 1 .7 1.4 1.4.2.6.4 1.2.4 1.8 0 .8-.2 1.5-.6 2-.4.6-.8 1.1-1.5 1.5-.7.3-1.3.5-2.1.5zm.4-.3c.4 0 .9-.2 1.3-.4s.7-.6.9-1.1c.2-.5.3-1.1.3-1.8 0-.8-.1-1.4-.4-2-.2-.6-.5-1-1-1.4-.4-.3-1-.5-1.6-.5-.8 0-1.4.3-1.8.9-.4.5-.6 1.3-.6 2.3 0 .8.1 1.4.3 2.1.3.6.6 1 1 1.4.5.3 1 .5 1.6.5zm7.6.2v-.1-.1h.7l.2-.2.1-.6v-5.6l-.1-.5-.2-.3h-.6v-.1h5l.1.1v1.6l-.1-.1c-.2-.9-.8-1.3-1.7-1.3h-.5l-.6.1-.1.5v6.1l.4.2.9.1v.2l-.7-.1h-2.1l-.7.1zm4.5-2.6c0-.8-.5-1-1.4-1h-1.5v-.4h1.5c.9 0 1.4-.3 1.4-.9h.1V202.8h-.1zm7.8 2.6c-.2 0-.5-.4-1.1-1.1l-1.9-2.8 1-.2 1.7 2.3c.4.6.8 1 1.2 1.2.3.2.6.4 1 .4v.2h-1.9zm-2.8-7.6c.7 0 1.3.2 1.6.4.4.3.7.7.7 1.2 0 .4-.2.8-.5 1.2-.2.4-.5.6-1 .8-.4.2-.8.3-1.3.3h-.6V205l.3.2h.6v.2l-.6-.1h-1.8l-.6.1v-.1-.1h.6l.3-.2V198.8v-.5l-.3-.3h-.6v-.1h2.4l.3-.1h.5zm1 2c0-.7-.1-1.1-.3-1.4-.2-.2-.5-.4-.9-.4s-.5.1-.7.2l-.2.6v2.6h.7c.5 0 .9-.1 1.1-.4.2-.2.3-.6.3-1.2zm4.1 5.6l-.1-.1.1-.1h.6l.2-.2.1-.6v-5.6l-.1-.5-.2-.3h-.6-.1l.1-.1h5l.1.1.1 1.5-.2.1v-.1c-.2-.9-.8-1.3-1.7-1.3h-.5l-.6.1-.2.5v5.5l.2.6.5.1h.6c1.1 0 1.8-.5 2-1.5h.2l-.1 1.7-.1.1-.1.1h-5.2zm4.5-2.8c0-.6-.4-1-1.3-1h-1.7v-.3H92c.9 0 1.3-.3 1.3-.9h.1v1.6l.1.6-.1.1-.1-.1zm2 2.8v-.1-.1h.7l.2-.2.1-.6v-5.6l-.1-.5-.2-.3h-.7v-.1h5l.2.1v1.5l-.1.1-.1-.1c-.2-.9-.7-1.3-1.6-1.3h-.5l-.6.1-.2.5v5.5l.1.6.5.1h.7c1 0 1.7-.5 2-1.5h.2l-.2 1.7v.1l-.1.1h-5.3zm4.6-2.8c0-.6-.5-1-1.4-1h-1.6v-.3h1.7c.8 0 1.3-.3 1.3-.9h.1V202.7l-.1-.1zm-68.1 15.5c0 .3 0 .6.2.9l.5.5.9.6 1 .7.6.6c.2.3.3.6.3 1s-.2.8-.3 1.1l-1 .7c-.4.2-.8.3-1.3.3l-1-.1c-.4-.1-.7-.2-.8-.4-.1 0-.2 0-.2-.2V222h.1c.2.6.6 1.2.9 1.6.3.4.8.6 1.3.6l.9-.2c.2-.2.3-.6.3-1l-.2-1-.6-.6-.9-.6-.9-.6-.6-.7-.2-.9c0-.4.2-.7.3-1 .3-.3.6-.6.9-.6l1.2-.3.8.1.7.2.3.2v1.6l-.1.2-.1-.1-.7-1.3c-.2-.4-.6-.6-1.1-.6-.4 0-.7 0-1 .3l-.2.8zm6.4 3h3.4v.3H38l.2-.3zm6.2 3.1l.1.1-.1.1-.7-.1h-1.5l-.6.1v-.1-.1l.5-.1.2-.2-.3-.6-2.4-5.1.4-.8-2.3 5.3-.2.7.3.6.9.2v.2l-.7-.1h-1.5l-.6.1-.1-.1.1-.1c.1 0 .4 0 .5-.2.2 0 .3-.2.5-.4l.5-1 2.6-5.8v-.1l.2.1 2.9 5.9.7 1.2.6.3zm1.6-7.1l.3.1-.2 5.7c0 .4.1.8.3 1 .2.2.4.3.8.3v.2l-.5-.1h-1.4l-.5.1v-.1-.1c.3 0 .6-.1.7-.3.2-.2.3-.6.3-1l.2-5.8zm8.3 7.1l.1.1-.1.1-.6-.1H52l-.6.1v-.1-.1h.6l.2-.2.1-.6-.3-5.5.5-.9-3 7.3h-.2l-3.3-6.5-.5-.6c-.2-.2-.4-.2-.6-.2h-.1l.1-.1h1.7l.3.1.3.5 2.7 5.3-.6.9 2.9-6.5.1-.2.2-.1h1.7v.1c-.4 0-.7 0-.8.2-.2.1-.3.4-.3.7l.3 5.5.1.6.2.2h.6zm2.8-.9l.1.6.3.2.9.1v.2l-.8-.1H55.7l-.7.1v-.1-.1h.6l.3-.2.1-.6v-5.6l-.1-.5-.3-.3H55v-.1h2.2l.4-.1h.6c.8 0 1.4.2 1.8.5.5.4.7.9.7 1.6 0 .5-.1.9-.4 1.3-.3.3-.5.6-.9.8l-1.3.2h-.6v-.2h.5c.4 0 .8-.1 1-.5.3-.3.5-.8.5-1.5 0-.6-.2-1-.5-1.4-.2-.4-.7-.6-1.2-.6l-.4.1-.2.2-.1.5v5.5zm6.5 0l.1.5c0 .1.1.2.3.2h1.1c.6 0 1.1-.1 1.5-.4.4-.3.6-.8.8-1.3h.1l-.1 1.9-.1.1-.1.1h-5.6v-.1-.1h.6l.2-.2.1-.6v-5.6l-.1-.5-.2-.3h-.6v-.1h2.9l.1.1H64l-.3.3-.1.5v5.5zm4.6 1.1v-.1-.1h.6l.2-.2.1-.6v-5.6l-.1-.5c0-.1 0-.2-.2-.3h-.6v-.1h5l.1.1v1.6l-.1-.1c-.2-.9-.8-1.3-1.7-1.3H71l-.6.1-.2.5v5.5l.2.6.6.1h.5c1.1 0 1.8-.5 2.1-1.5h.1l-.1 1.7-.1.1-.1.1h-5.2zm4.5-2.8c0-.6-.4-1-1.3-1h-1.7v-.3h1.7c.9 0 1.3-.3 1.3-.9h.2l-.1 1.1.1.5v.6l-.1.1-.1-.1zm3.5-3.5l.2.9.6.5.9.6.9.7.7.6.2 1c0 .4-.1.8-.3 1.1-.2.3-.5.5-.9.7-.5.2-.8.3-1.3.3l-1.1-.1-.8-.4-.1-.2-.1-1.8h.2c.2.6.5 1.2.9 1.6.3.4.8.6 1.2.6l.9-.2c.3-.2.4-.6.4-1 0-.3-.1-.7-.3-1l-.5-.6-.9-.6-1-.6-.5-.7c-.2-.2-.2-.5-.2-.9s.1-.7.3-1c.2-.3.5-.6.9-.6l1.2-.3.8.1.7.2.2.2v1.6l-.1.2-.1-.1c-.2-.5-.3-.9-.6-1.3s-.6-.6-1.2-.6c-.4 0-.6 0-.9.3-.2.2-.3.5-.3.8zm11.2 6.2l-.1.1-.1-.1-3.1-6.5-.4-.6c-.1-.2-.3-.2-.5-.2h-.1l.1-.1H85.7l.1.1h-.5l-.2.3.3.7 2.4 5-.5.8 1.4-3.8.3.4-1.6 3.9zm6.8-7.4v.1l-.8.3-.6 1-2.3 6-.1.1-.2-.1-3-6.5c-.2-.2-.2-.5-.4-.6-.1-.2-.3-.2-.4-.2h-.1l.1-.1h2.1v.1h-.3l-.1.2.1.3.2.5 2.4 5-.4.8 2.1-5.5.1-.6-.2-.5c-.1-.2-.4-.2-.6-.2v-.1h2.4zm-4.7 1.3l.2-.8c0-.3-.1-.4-.3-.4h-.1l.1-.1h1.7v.1c-.3 0-.5.1-.7.3l-.6 1-.8 2.1-.2-.4.7-1.8zm7.3 5.2v.6l.2.2h.7v.2l-.7-.1H95.3l-.6.1v-.1-.1h.6l.2-.2.1-.6v-5.6l-.1-.5-.2-.3h-.6v-.1h3v.1H97l-.2.3v6.1zm4-6.3c-.5 0-.9.2-1.2.5-.4.3-.6.7-.8 1.4h-.1l.1-1.3.1-1.1.1-.1v.1c0 .2.2.3.7.3h4.7l.6-.1c.2 0 .3-.1.3-.2l.1-.1.1.1-.1 1.1v1.3h-.2c-.1-.7-.2-1.2-.5-1.4-.3-.3-.7-.5-1.2-.5l-.5.1c-.2 0-.2.1-.3.2v6.6l.3.2h.7l.1.1-.1.1-.7-.1h-1.9l-.6.1-.1-.1.1-.1h.6l.3-.2.1-.6v-5.6-.4l-.3-.2-.4-.1zm11.7.7v-.5l-.3-.3h-.7v-.1h3.2v.1h-.7l-.3.3V224l.3.2h.7v.2l-.7-.1h-1.9l-.6.1v-.1-.1h.7l.3-.2V217.8zm-4.7 2.5h5.2v.3h-5.2v-.3zm-.5-2.5l-.1-.5-.2-.3h-.7v-.1h3.1v.1h-.6l-.3.3-.1.5v5.6l.1.6.3.2h.6v.2l-.6-.1H107l-.7.1v-.1-.1h.7l.2-.2.1-.6v-5.6zm-68 22.3h3.3l.1.3h-3.6l.2-.3zm6.2 3.1l.1.1-.1.1-.7-.1h-1.5l-.6.1v-.1-.1l.5-.1.2-.2-.2-.6-2.5-5.1.5-.8-2.4 5.3-.2.7c0 .2.1.4.4.6l.8.2v.2l-.7-.1h-1.5l-.6.1-.1-.1.1-.1c.2 0 .4 0 .5-.2.2 0 .3-.2.5-.4l.5-1 2.5-5.8.2-.1.1.1 2.9 5.9.7 1.2c.1.2.4.3.6.3zm2.5-.9v.5l.2.2h1.2c.6 0 1.1-.1 1.5-.4.4-.3.6-.8.8-1.3h.1l-.1 1.9v.1l-.2.1h-5.6v-.1-.1h.6l.2-.2.1-.6v-5.6l-.1-.5-.2-.3h-.6v-.1h3v.1h-.6l-.3.3v6zm6.4 0l.1.5.2.2H56c.5 0 1-.1 1.4-.4.4-.3.6-.8.8-1.3h.1l-.1 1.9-.1.1-.1.1h-5.6v-.1-.1h.6l.2-.2.1-.6v-5.6l-.1-.5-.2-.3h-.6v-.1h2.9l.1.1h-.6l-.3.3-.1.5v5.5zm11.3 1.2c-.7 0-1.4-.2-2-.5-.6-.4-1-.8-1.3-1.4-.4-.6-.5-1.3-.5-2 0-.8.2-1.6.6-2.1.5-.5 1-1 1.6-1.3.7-.3 1.3-.5 2-.5.8 0 1.4.2 2 .6.6.3 1 .7 1.3 1.4.4.6.6 1.2.6 1.8 0 .8-.3 1.5-.7 2-.3.6-.9 1.1-1.5 1.5-.7.3-1.4.5-2.1.5zm.4-.3c.5 0 .9-.2 1.3-.4s.6-.6.9-1.1c.2-.5.3-1.1.3-1.8 0-.8-.1-1.4-.3-2-.3-.6-.6-1-1.1-1.4-.4-.3-1-.5-1.6-.5-.8 0-1.4.3-1.8.9-.4.5-.6 1.3-.6 2.3 0 .8.1 1.4.3 2.1.3.6.6 1 1.1 1.4.4.3.9.5 1.5.5zm10.9.2c-.2 0-.6-.4-1.1-1.1l-1.9-2.8 1-.2 1.6 2.3c.5.6.9 1 1.3 1.2.3.2.7.4 1 .4v.2H77zm-2.8-7.6c.8 0 1.2.2 1.6.4.4.3.6.7.6 1.2 0 .4-.1.8-.4 1.2-.2.4-.6.6-1 .8-.4.2-.9.3-1.3.3H73v2.7l.1.6.3.2h.6v.2l-.6-.1h-1.8l-.6.1v-.1-.1h.6l.2-.2.2-.6v-5.6l-.2-.5-.2-.3H71v-.1h2.3l.4-.1h.5zm1 2c0-.7-.1-1.1-.3-1.4-.2-.2-.5-.4-.9-.4s-.6.1-.7.2c-.2.1-.3.3-.3.6v2.6h.8c.5 0 .9-.1 1.1-.4.2-.2.3-.6.3-1.2zm7.4 5.6h-.9l-.4-.1h-1.5l-.6.1-.1-.1.1-.1h.5l.3-.2V236.8v-.5l-.2-.3h-.7l.1-.1h2.4l.8-.1c.8 0 1.6.2 2.2.5.6.3 1.1.7 1.4 1.3.4.6.6 1.2.6 1.9 0 .8-.2 1.5-.6 2-.3.6-.8 1.1-1.4 1.5-.6.2-1.3.4-2 .4zm-.1-.2c.5 0 1-.2 1.5-.4.4-.3.7-.7 1-1.2.2-.6.3-1.1.3-1.9 0-.7-.1-1.3-.3-1.8-.3-.6-.6-1-1-1.3-.4-.4-1-.6-1.5-.6l-.8.1-.4.3-.1.4v5.5c0 .3.1.5.3.7l1 .2zm5.2.2l-.1-.1.1-.1h.6l.2-.2.1-.6v-5.6l-.1-.5-.2-.3h-.7l.1-.1h5l.1.1v1.5l-.1.1v-.1c-.2-.9-.7-1.3-1.7-1.3h-.5l-.6.1-.2.5v5.5l.2.6.5.1h.6c1 0 1.7-.5 2-1.5h.2l-.2 1.7v.1l-.1.1h-5.2zm4.5-2.8c0-.6-.4-1-1.3-1h-1.7v-.3h1.7c.9 0 1.3-.3 1.3-.9h.1v1.6l.1.6-.1.1-.1-.1zm8 2.8c-.2 0-.6-.4-1.1-1.1l-1.9-2.8 1-.2 1.7 2.3c.4.6.8 1 1.2 1.2.4.2.7.4 1 .4v.2h-1.9zm-2.7-7.6c.7 0 1.2.2 1.5.4.5.3.6.7.6 1.2l-.3 1.2c-.3.4-.6.6-1.1.8l-1.2.3h-.7v2.7l.1.6.2.2h.6v.2l-.6-.1H94.9l-.7.1v-.1-.1h.6l.2-.2.2-.6v-5.6l-.2-.5c0-.1 0-.2-.2-.3h-.6v-.1h2.4l.4-.1h.5zm1 2c0-.7-.2-1.1-.4-1.4-.1-.2-.5-.4-.9-.4l-.7.2-.2.6v2.6h.7c.5 0 .9-.1 1.1-.4.2-.2.4-.6.4-1.2zm5.3-.7c0 .3 0 .6.2.9l.5.5.9.6 1 .7.6.6c.2.3.2.6.2 1l-.2 1.1-1 .7c-.4.2-.8.3-1.3.3l-1-.1c-.4-.1-.7-.2-.9-.4l-.1-.2V241h.1c.2.6.6 1.2.9 1.6.3.4.8.6 1.3.6l.9-.2c.1-.2.3-.6.3-1l-.2-1-.6-.6-.9-.6-.9-.6-.6-.7-.2-.9c0-.4.2-.7.3-1 .3-.3.6-.6.9-.6l1.2-.3.8.1.7.2.2.2.1 1.6-.1.2-.1-.1-.7-1.3c-.2-.4-.6-.6-1.1-.6-.4 0-.7 0-1 .3l-.2.8z" fill="#000"/><path d="M71.3 177.7C21.7 177.7 1.5 152 1.5 89 1.5 25.6 20.1 2 70.3 2c45.1 0 73.1 14.6 73.1 87.1 0 32.7-5.6 55.2-16.9 68.9-11.1 13.4-28.6 19.7-55.2 19.7z" fill="#fff"/><mask id="a" style="mask-type:luminance" maskUnits="userSpaceOnUse" x="1" y="2" width="143" height="176"><path d="M71.3 177.7C21.7 177.7 1.5 152 1.5 89 1.5 25.6 20.1 2 70.3 2c45.1 0 73.1 14.6 73.1 87.1 0 32.7-5.6 55.2-16.9 68.9-11.1 13.4-28.6 19.7-55.2 19.7z" fill="#fff"/></mask><g mask="url(#a)"><path d="M97.2 111.5c0 .1 0 0 0 0H97v.1l-.1-.1h-.1c-.1.1-.2 0-.2 0-.1 0-.1.1-.1 0l-.1-.1v.1c0-.1 0-.1 0 0l-.1-.1-.1.1s-.1-.1-.1 0H96c0 .1 0 0 0 0h-.1c-.1.1-.1 0-.1 0v-.1h-.1-.1l-.1-.1v.1l-.1-.1v.1l-.1-.1s0-.1 0 0v.1l-.1-.1v.1s0-.1 0 0l-.1-.1H95s.3-.1.2 0c0 0 .1-.1 0 0H95.5v.1h.1c0 .1 0 0 0 0l.1.1.1-.1v.1c0-.1 0-.1 0 0h.1l.1.1v.1s0 .1 0 0c0 0 0 .1.1 0 .1 0 .1.1.1 0h.1s0 .1 0 0v.1l.1-.1v.1l.1.1v-.1l.1.1c.1-.1.1 0 .1 0v.1l.1-.1c0-.1-.1.1 0 0v.1H97.1v.1h.1s0 .1 0 0v.1l-.1.3-.1.1v.1l-.1-.1-.1-.1s0-.1 0 0h-.1l-.1-.1v-.1c-.1.1-.1 0-.1 0l-.1.1h-.1v-.1h-.1s0 .1 0 0v-.1l-.1.1v-.1c-.1.1-.1 0-.1 0h-.1c-.1.1-.1 0-.1 0v-.1l-.1-.1s0 .1 0 0c-.1.1-.1 0-.1 0h-.2v-.1h-.1v-.1s-.1.1-.1 0c0 .1 0 0 0 0H95c0-.1 0 .1 0 0v-.1c-.2.1-.2 0-.2-.1h-.1l-.1-.1-.1-.2.1-.1.2-.2h.2v-.1c0-.1 0-.1 0 0v-.1l.2-.1h.1c0 .1 0 0 0 0l.1.1.1-.1v.1h.1l.1-.1v.1l.1-.1c0 .1 0 .3.1.2h.1c0-.1 0-.1 0 0s0 .1 0 0h.1s.1-.1.1.1v-.1.1l.1-.1v-.1.1s.1.1.1-.1c0 .2 0 .1 0 0l.1.1.2.1h.1c0-.1 0 0 .1 0h.1s0-.1 0 0c0-.1 0-.1 0 0v-.1c0 .1.1-.1.1.1.1-.2.1 0 .1 0v-.1c.1 0 .1.1.1-.1v.1l.1.1v.3l-.1.1v.1h-.1z" fill="#000"/><path d="M64 47.5l39.7 3.4v64.3H64V47.5z" fill="#fff"/><path d="M67.6 47.6c1.1 0 2.4.2 3.6.4l3.8.2 1.8.1c.6 0 1.3.2 1.8.1h.3l4.6.4 5.1.5c2.8.1 5.6.4 8.4.7.9 0 1.8 0 2.7.2.7.1 1.7.1 2.5.3h1.1l.4.1h.3V67.2l.1 2.3v4.6c.1.6 0 1.1-.1 1.7v13.6c-.1.6 0 1 0 1.6V95.2v1.5l-.1 1.1.1 1.6v16.2h-.3l-1.1-.1H94.7l-2.7-.1-2.1.1h-8.3l-4.6.1h-1.4c-.4-.1-1-.1-1.6 0h-3l-5-.1-1.1.1h-1.3v-.4-1.2l.1-1.2V106l.1-1v-1-.8-2.7l-.1-2.5v-.9-3.6V92v-1-.3-1.3-1.2-4.8l.1-1.4-.1-2.7v-2.5-4.2-1.1-.5-.8-6l.1-1v-.9l-.1-1.6v-4.8l.1-2.1v-2.1-.2-.8-1.1-.9l.2-1.1.1.4c.2.9.2.9.2 2.1l-.1 4.8v19.6l.1 4.5v3.4V84.5v2.3l-.1 1.2.1 1.4-.1.9v.5l.1 1.7v7.5l.1 2.2-.1 1.7v1.7 2.4l-.1 1.4v.3l.1 1.8-.1 2.5v1.2l-.2-.2h21.3l1.2-.1h2.1l.7.1h.4c1.9-.2 3.8 0 5.7-.1l.7-.1h5.2c.7-.1 1.4 0 2.1.1h.3l-.3.3V108.4v-2-1.7l-.1-5.5v-.8-.9-.9-2.5V92l.1-3.7v-3.9l-.1-1.6v-.5l.1-1.2-.1-1.1v-2l.2-2.6v-2.5l-.1-1.1v-1.4-1.9-5.3l.1-1-.1-.9.1-1.5-.1-1.7v-1.7-.5V54v-.3-2.3-.5l.3.3-1.8-.2-2.7-.2-4.5-.4-4.5-.4-1.9-.2-2.3-.1-2-.2-1-.1-.3-.1-1.7-.1-.7-.1-1.6-.1h-1.4l-.3-.1c-1-.2-2-.1-3.1-.3l-1.1-.1-1.3-.1-1.3-.1-2.3-.2-1.1-.1h-.4c-.8 0-1.9-.2-2.2-.4l-.2-.1.6-.1h1.2l1.8.2z" fill="#000"/><path d="M69.6 86.9V71.6l1.4 4.3s4.2.5 4.3 3.3c.2 2.8 0 2 0 2s.2 1-2.3.8c-2.4-.1-3.4 4.9-3.4 4.9z" fill="#000"/><path d="M69.5 86.5V86v-.7-.2-.4l-.1-.8v-.9-1.5c0-.1-.1-.3 0-.4v-.6-.1l-.1-.6.1-.1v-.4l-.1-.3v-.1-.4-.4c-.1 0 0-.2 0-.2v-.2-.2-.1l-.1-.5v-.4-.4-.3l.1-.3v-1.8-.3l.1-.1-.1-.2v-.3l.1-.3-.1-.2.1-.2v-.3-.1c0-.1 0-.2.2-.2l.2.1v.1l.2.4v.4l.2.3c.1.1 0 .3.2.3l.1.3.1.4.1.3.1.2v.2l.2.2.2 1.1.1.1-.3-.2.4.2c.2-.1.3 0 .4 0h.2l1.3.4.7.4.2.2.3.2c.1.2.3.2.4.3l.5.9.1.2v.1l.1.3V80.6c-.1 0 0 .1 0 .1v.6l-.2.2-.2-.1v-.1l-.1-.1.2-.2.2.1v.1l.1.2-.1.2c-.2.4-.5.4-.6.6h-.3l-.2.1h-.1-.3l-.1.1-.9-.1h-.2l-.4.1-.4.2c0 .2-.3.3-.4.4l-.2.2v.1l-.1.1c0 .1-.2.1-.1.2l-.2.4-.2.2-.1.2-.1.1v.3l-.3.7-.2.4-.1.3v.2s-.2.1-.1.2l-.1.1-.1.2c-.2.1-.1 0-.1-.1 0 0-.1-.1-.2 0l-.1-.4c.1-.3.3-.5.3-.8l.3-.6.2-.5.2-.5.3-.4.3-.4.1-.2.4-.5.6-.5.5-.2h.5c.1 0 .2-.1.2 0h.4l.2.1.2-.1h.2l.3-.1.5-.2v-.2l.6-.1s.1 0 0-.2c-.2 0-.4 0-.5.2-.1.1 0 0 0 0L75 81l.1-.4v-.3c.1-.1 0-.3 0-.4 0-.1-.1-.2 0-.2.1-.1 0-.1 0-.1l-.1-.3c.1-.2 0-.3 0-.4v-.4-.2l-.2-.2-.1-.1-.2-.3-.2-.2-.2-.2-.1-.1-.7-.4-.2-.1-.2-.1c0 .1-.1 0-.1 0s-.1-.1-.2 0l-.1-.1c-.1 0-.2-.1-.2 0-.1-.2-.3 0-.4-.1l-.1-.1h-.1l-.7-.1-.2-.2-.1-.2-.1-.1v-.1l-.1-.3-.1-.2-.1-.3-.1-.3v-.4l-.3-.9-.1-.1c-.1-.1-.1-.1 0-.1l-.1-.1-.1-.3-.3-.8-.1-.1.8-.1h-.1c-.1.1.1.1.1.2l-.1.2v.3c0 .2.1.3 0 .4V74.3c.1 0 0 0 0 .1v.4l.1.2-.1.1c-.1.1-.2.3-.1.5v.4s-.1.1 0 .2v.2c-.1.2-.1.3 0 .4V77.6l-.1.2.1.2-.1.3.1.2v.5s-.1.2 0 .2v.1.3l-.1.4V83.2l-.1.2V87h-.1v-.2-.3z" fill="#000"/><path d="M67.3 47.9V55l7.2 57.5V48.6l-7.2-.7z" fill="#000"/><path d="M68.3 50.9c.1.7-.2 1.1-.1 1.9l.1 2.2-.1-.1.4 1.1c.1.4-.1.9.3 1.2.1 0 0 .1 0 .1.1 1 .4 2 .3 2.9l.3 3.3c.5 1.7.5 3.5.8 5.3.1.5.2 1.1.1 1.7-.1.5.3 1 0 1.5l.1.3.2.5c-.1.7 0 1.3.2 1.9.1.1-.1.3-.1.3l.2 1.4c0 .4 0 .9.3 1.3v.3l.2 1.4c.1.5 0 1 .3 1.5.2.2-.1.5 0 .7.2.2.2.4.2.6v.8l.2.5c.1.5 0 1 .2 1.5l.3 1.4.3 1.5-.1 1.1c-.1.4.2.7-.1 1.1v.1l.2 2.3.4 3.8c.1.4.2.7 0 1.2l.1.3c-.1.4.4.6.2 1-.2.2 0 .6 0 .9l.1 1.1.2.6c-.2.4 0 .7 0 1.1v.7c.2.3.2.6.3 1 .1.5 0 1 .3 1.5l.1.7-.1.6c.1.5.1 1 .4 1.3.1.4-.1.9.3 1.2v.2c-.1.4-.1.8.1 1.3.2.3.1.7.2 1.1v.2l-2.2.2.1-1.2c0-.3-.5-.4-.1-.7.1-.2 0-.6 0-.8v-.8c.4-1.4.1-2.9.2-4.2.1-.6-.2-1.3.2-1.8-.3-.4-.1-1-.3-1.3l-.1-.7v-4.6l-.1-3c0-.4-.1-.6.1-.9.1-.2.1-.6-.1-.9v-.3c.4-.5 0-1.1-.1-1.7 0-1.1.3-2.1.2-3.2 0-.3.1-.5-.1-.7.2-.2.1-.3 0-.5v-.9c.2-.3.1-.5.1-.7v-.9l.2-3.5.2-.7c0-.2-.1-.5.2-.7v-.4l-.1-1.8c-.2-.5.1-1.1-.3-1.6v-.5c-.1-.8.2-1.6-.2-2.4.3-.2.2-.6.2-.9 0-.2.1-.5-.1-.7l-.1-.1c.1-.4.3-.6.2-.9l-.2-.8c0-1 .3-2 .2-3.1.2-.2.2-.6.2-.9 0-.5-.3-1.1-.2-1.7 0-.5.1-1.1 0-1.6-.3-.9-.1-1.8-.2-2.7 0-.2-.1-.5.2-.7l-.1-.4-.1-.4c-.1-.4.5-.8 0-1.2v-2.7c0-.3 0-.4.2-.6V51c-.3-.3-.2-.6-.2-1v-1.4l1 1.1-1.4-.2-1.2-.3-1.3-.3H70c-.3-.1-.7-.3-.8-.2-.1.1-.4-.1-.6-.2-.6-.1-1.2-.5-1.5-.9l-.1-.2c.2-.4.3-.4 1.2-.4 1.1 0 2.4.3 3.5.2.9.4 1.6.3 2.4.4l.5.1.2.1c.4.1.6.4.6.8-.1.5-.2 1.1-.1 1.7.2.7.1 1.4.1 2.1l-.1 1.6v1.6c-.1.4-.3.7-.2 1.1.3.7.1 1.3.2 2.1.2.9.1 1.9.2 2.8l.1 1.5-.1.7v1c.1.1.2.3.1.4-.2.5-.1 1-.1 1.5 0 .3-.3.6-.2.8.2.3.1.5.1.9.1.2.1.4-.1.6v.3c.3.3.1.7.2 1.1V73c-.1.8.2 1.5.1 2.2.4.5.2 1 .2 1.5l-.2 1.1-.1 1.1c-.2.5 0 1.1 0 1.6-.1.2.1.5-.2.8v.2c.3.5.2.9.1 1.2-.2.6-.1 1.1-.1 1.6v1.4l-.1.9c-.1.3.1.6.1.9v4l-.2 1c-.1 1 .3 1.9.2 2.9.2.3 0 .6 0 .8 0 .2-.1.5.1.8l.1.3c0 .2-.2.4-.1.7l.1.7c0 .3-.2.6.1.8-.4.5.2.9 0 1.3l-.1.5c0 .1-.1.2 0 .2.3 1.2 0 2.5.1 3.7l.2.5v.2c-.2.6-.2.6 0 1.3v.5c0 .3 0 .8.2 1.3.1.4-.2.9-.3 1.3-.1.4-.3.8-.3 1.3l.1.9c0 .5-.5.9-.9.9-.6 0-.9-.4-1-.8l-.3-2.5v-.4c-.3-.2-.6-.5-.1-.9l-.1-.1c-.3-.2-.2-.7-.2-.9-.2-1.2-.6-2.3-.7-3.5v-.5c.2-.3-.2-.4-.1-.6l-.1-.6c.3-.6.1-1.1 0-1.6-.2-.4-.4-.9-.3-1.3.1-.8-.1-1.7-.2-2.4l-.3-2.5c0-.3 0-.8-.2-1l-.1-.3.1-.8c0-.3-.2-.5-.3-.7-.1-.2 0-.4-.2-.6v-.7c.2-.5.5-1.1.3-1.7l-.2-1.6c0-.3 0-.5-.2-.7l-.1-.9c.1-.4.1-.8-.1-1.2l-.2-.5-.3-2.9c0-.2-.1-.5.1-.7-.3-.1-.3-.4-.3-.5l.1-1c0-.4-.1-.7-.3-1-.2-.4 0-.8-.3-1.2v-.3c0-.5.2-.9-.2-1.2-.1-.1-.1-.2 0-.2.2-.5-.1-1-.2-1.4-.2-.5 0-1.1 0-1.6-.1-.5-.3-1.1-.2-1.7.1-1-.2-1.9-.3-2.9-.1-.9-.1-1.9-.3-2.8l-.3-1.3-.2-1.4-.2-1.3c0-.2-.1-.4.1-.7v-.2c-.3-.3-.3-.7-.2-1.1v-.4l-.3-1c-.1-.3.1-.7-.3-.9v-.2c.2-.4.1-.7-.1-1.1V55c-.1-.3-.1-.7.1-1-.3-.3 0-.6 0-.8l-.1-1v-.9c0-.6.2-1.1 0-1.8-.1-.2-.1-.6.1-.7l.1-.2c-.1-.7.2-1.3.5-1.1l.5.6.3.7.4 1 .1 1.1z" fill="#000"/><path d="M71 75.9s-3-6.5-3.2-14.3c-.2-7.8-.3-10.6 2.9-10.3l5.6.4s2.3.1 1.7 4.9c-.6 4.8-4 20.4-4 20.4l-3-1.1z" fill="#000"/><path d="M70.1 75l-.2-1-.4-1-.2-.5c-.1-.2-.1-.4-.3-.5l-.3-1.4-.3-1.5c-.4-.7-.4-1.6-.6-2.4l-.1-.7c.1-.3-.1-.5 0-.8v-.1l-.1-.2-.1-.9.1-.1-.1-.7c0-.2.1-.4-.1-.6v-.8l-.1-.7v-.3l-.1-.3.1-.3-.1-.2c0-.3.1-.5 0-.8l-.1-.6v-.7c-.1-.2 0-.3.1-.5v-.5c.1 0 0 0 0 0l.1-1.1.2-1.8.1-.5.1-.2c.1-.1-.1-.3 0-.4l.3-.5.2-.4.2-.4c.2 0 .3-.2.5-.3l.3-.1c.1-.2.3-.2.5-.2.3 0 .5 0 .8-.2h.3l.3.2h.6l.6-.1h.1l.6.1h1.1c.1 0 .2-.1.4 0h.3l.4.1.9.2c.4 0 .9.1 1.2.4.2.2.5.4.5.7l.4.6.2.3c.2.7.2 1.5.2 2.2l-.1 1.5-.1.4c-.1.1-.1.2 0 .4v.1c-.2.2-.1.5-.1.8-.1.5-.3.9-.3 1.4 0 .1-.2.2 0 .3-.2.1-.1.2-.1.3.1.1 0 .3-.1.3l-.1.4-.1.4-.3 1.5-.2.3-.1.4v.1l-.2.9V65.9c-.1.3-.3.7-.2 1.1l-.1.4v.3l-.2.4c0 .1.1.2 0 .4l-.3 1.3-.2.4-.1.8-.1.7-.2 1.3-.1.3-.1.1c.1.1 0 .2 0 .2.1.2-.2.4-.1.6l-.1.6-.1.6-.1.2-.1.3v.5l-.2.7c0 .3-.3.5-.5.4h-.2l-.6-.3-.6-.2-.6-.3v-.1h-.3l-.3-.2-.2-.1c-.2-.1-.2-.3-.1-.5l.2-.1h.7l1.2.5.8.4h.2l-.6.4c.1-.3.3-.6.3-1-.1-.3.1-.6.1-.9l.2-.7.2-.7c0-.2.2-.3.1-.4l.2-1 .1-1.3.2-.7V70c.1 0 .2-.2.1-.4-.1-.1-.1-.2 0-.2.2-.2.2-.4.2-.6 0-.2.2-.3.1-.4l.1-.4.1-.3v-.1c-.1-.2 0-.3.1-.5l.2-1.1.1-1v-.7l.2-.5.2-.5.1-.7c.1-.1 0-.3.2-.4v-.6c.2-.2.2-.5.3-.7v-.6c0-.1 0-.3.2-.4v-.4l.1-.5v-.4l.1-.4.1-.5.1-.5.1-1.2c-.1-.2 0-.3 0-.4v-.3-.2-.3l-.1-.3c0-.1.1-.2-.1-.3.2-.2-.1-.4-.1-.6v-.2c-.3-.4-.4-.9-.8-1.1h-.2l-.2-.1h-1.1c-.2.1-.4-.1-.6-.2H74l-1.6-.2h-.2c-.2.2-.2.2-.4 0 0-.1-.1-.1-.1 0-.1.1-.3 0-.4 0-.6-.1-1.1 0-1.5.1 0 0-.1.1-.2 0s0 .1-.1.1h-.2c-.2 0-.3.2-.3.4l-.3.5c-.2.2-.2.6-.3.9l-.1 1.1v.5c.1 0 .1.1 0 .1v.7l.1.3-.1.3c-.1.2-.3.4-.3.7l.1.7.1.4v.4.7l.1 1.3-.1.4.1.2-.1.4.1.6.1.4c0 .1-.1.2 0 .2 0 .2-.1.4.1.6-.1.2 0 .5.1.7v.7l.1.8c-.1.4 0 .8.1 1.2l.2 1.3.3.5.1.7.2.6v.4c.2.1.2.3.1.5l.1.1.2.4c0 .2 0 .3.2.4v.1c-.2.4.3.6.2.8.2.2.1.3.1.4l.2.3.1.3.3.7c.1.1.2.2.1.3v.1c.2.2.2.6 0 .6l-.2.3c-.2 0-.3-.2-.3-.2l-.4-.3-.2-.5zM68.3 103.6V116l7-.2v-11.9l-7-.3z" fill="#000"/><path d="M68.5 104.4v2c0 .3.1.6 0 .8v.9l.1 1.5-.1.4v2c.1.1 0 .2 0 .2v.4l.1.4-.1.2.1.2-.1.1.1.2v1.5l-.1.3v.5l-.2-.3h3.1c.1 0 .2.1.2 0h.8l.2-.1.2.1.3-.1c.1 0 .3.1.4 0h1.1c.1 0 .1-.1.2 0h.5l-.2.2.1-1.1v-.5l-.1-.4v-1.5l-.1-.8.1-.3-.1-.2c.2-.2 0-.4 0-.6l.1-.9-.1-.2c.1 0 .1-.1 0-.1v-.2l.1-.3v-.2-1l.1-.2v-.2-.1-.5-.5l-.1-.1v-.7c.1 0 .1-.2 0-.2 0 0 .1-.2 0-.2v-.1l.1-.2-.1-.2v-.4l.2.1H73h-.2-.2c-.1 0-.3-.1-.4 0h-.7l-.2-.1s-.1-.1-.2 0-.1 0-.2 0l-.9-.1h-.4l-.4-.1c-.1 0-.1.1-.2 0h-.2-.1l-.4-.2.3-.1h.9l.6.1h1.2l.5.1H75l.3.1.2.1v.7s.1.1 0 .1V105.8l.1.6v.7l-.1.3v.5c0 .1.1.1 0 .2V112.8c.1 0 0 .2 0 .2l.1.2c-.1.1 0 .3 0 .4l-.1.1v.1l.1 1v1c0 .1 0 .2-.2.2h-.1c-.1.1-.3 0-.4 0h-1.3H73l-1 .1h-.2c-.1-.1-.1 0-.2 0h-.2c-.1-.1-.3-.1-.4 0-.1 0-.3.1-.4 0h-1.4l-.2.1h-.2l-.2-.1-.2.1h-.1l-.3-.2v-.2-.2l.2-.4v-.5l-.1-.2v-.3-.3-.9l.1-.3-.1-.1.1-.3-.1-.3v-.3-.1c0-.1.1-.3 0-.4-.1 0-.1 0 0 0v-.5c-.1-.1 0-.2 0-.4v-.5l.1-.8v-.8l-.1-.4v-.8l.1-.1v-.4-.1-.4l-.1-.2v-.1c.1-.1-.1-.4.1-.5-.1-.2 0-.2 0-.2l-.1-.3v-.2-.5-.1-.1l.1-.3.2.1v.2l.1.2v.4z" fill="#000"/><path d="M72 82.2s-4.4 8.3-4.6 15.6c-.1 7.4-.1 8.7 4.1 9.9 4.2 1.3 5.1 1.5 5.5-4.2.3-5.7-.2-11.6-1.2-15.5l-1.5-6.2s-1.8-.5-2.3.4z" fill="#000"/><path d="M72 83.4l-.5.9-.5 1-.1.5-.2.6-.5 1.3-.5 1.3c-.1.8-.5 1.6-.7 2.4 0 .2 0 .5-.2.6-.2.3-.1.6-.3.8v.1c0 .1.1.1 0 .2-.1.4-.2.4-.1.9h-.1l-.1.7c-.1.2-.2.3-.1.6.1 0 0 .1 0 .2l-.1.5v5c-.1 0 0 0 0 0l-.2 1 .2 1.7v.6l.2.4c-.2.2 0 .3 0 .4l.2.4.2.2c0 .2.2.3.2.3 0 .2.2.3.2.3l.4.2.6.3.3.1.3.1.5.2.5.1c.1-.1.1 0 .2 0 .2.1.2.2.5.2.2-.1.3 0 .5.1l.6.2c.1 0 .2-.2.3 0l.3.1.4.1c.6.2 1.1 0 1.3-.4l.4-.6c-.1-.2.1-.4.1-.5v-.4l.2-2v-1.3l.1-.4c.1-.1.1-.4 0-.4v-.2c.2-.2 0-.5 0-.8l.1-1.4-.1-.3V99v-.3l.1-.4V96.4 96l.1-.3v-.2l-.1-.8c-.1-.2 0-.5-.2-.7v-.2c-.1-.4 0-.8-.2-1.1.1-.1 0-.3 0-.4l-.1-.3H76l.1-.5-.1-.3c-.1-.4 0-.9-.2-1.4.1-.1 0-.3 0-.4l-.2-.7-.2-.7-.4-1.2v-.4-.1l-.2-.3c-.1 0 .2-.3-.1-.4l-.1-.6-.2-.6V84c.1 0 0-.1 0-.2-.2-.1-.2-.3-.2-.4l-.3-1.4.3.3-.5-.2c-.2-.1-.4.1-.6-.1l-.2.1c-.1 0-.2-.1-.2 0l-.2.1h-.6l-.1-.2c0-.4.1-.5.5-.7.7-.3 1.2 0 1.7 0l.5.1.2.4.2.5.1 1 .3.9.1.8.2.7.1.4c.1.3.1.7.3.9l.3 1.3.3.7v.3c-.1.1 0 .3.1.4l.1.3v.6c0 .1-.1.3 0 .4l.2.4-.1.2.1.2v.5l.2 1.2.2 1 .1.6v.6l-.1.5v.7c0 .1.1.3 0 .4v.1l.1.6-.1.7v.6c0 .1.1.3 0 .4v2.3l-.1.4v1.3c.1.2 0 .3 0 .4 0 .1-.1.2 0 .4v.1c0 .1-.1.2 0 .4v.6c-.3.2 0 .4-.1.7l-.2.2v.1c0 .6-.2 1.2-.7 1.8l-.2.2-.1.1-.7.3h-1c-.3.1-.5 0-.7-.2l-.6-.2-1.4-.4-.2-.1c-.2.1-.4.2-.4-.1h-.5c-.5-.3-1.1-.4-1.6-.8l-.3-.2-.2-.1-.2-.2-.5-.7-.4-.7-.2-1.1-.1-1.2-.1-.5c-.1 0 0-.1 0-.2l.1-.3-.2-.4v-.2c-.1-.1 0-.2 0-.4.2-.2.2-.4.2-.7v-.8-.3-.4-.5-.3-1.3c0-.1 0-.2.2-.3-.2-.1-.1-.2-.1-.4l.1-.3v-.5l.1-.6v-.1c0-.2.2-.4.1-.6v-.1c.2-.2.1-.4.1-.6l.2-.7.3-.8.3-1.2.4-1.3.2-.6.1-.6.3-.6.1-.2.1-.2c-.1-.1 0-.3.2-.4v-.2l.1-.4.2-.5v-.1c.3-.1 0-.6.4-.8-.1-.1.1-.2.1-.3l.1-.3.2-.4.2-.6c0-.2 0-.3.2-.3l.1-.1c.1-.3.3-.5.5-.5l.3.2.1.2v.5l-.2.4zM92.2 93.6l.1-.1.1-.1.2-.3.1-.3.3-.4v-.1-.3l.2-.3.4-1.3.1-.2V90l.1-.2v-.2-.1l.1-.2.1-.5v-.7-.6l.1-.1v-.2-.2-.1-.1-.1-.1l.1-.1v-.1-.1-.3-.4-.1-.1-.3-.1-1l.1-.1v-.5-.4-.2-.2-.5-.1-.3-.1-.4-.9-.2-.1l-.1-.2.1-.1-.1-.1v-.4-.2-.3-.1-.1-.3l-.1-.5v-.2l-.1-.4V77v-.8-.2l-.1-.4v-.1l-.1-.1v-.1-.1l-.1-.5-.3-.9-.1-.3v-.1l-.1-.3-.3-.8-.8-1.3H92v-.1-.1l-.2-.1-.1-.1-.1-.1v-.1l-.1-.1-.1-.1-.2-.2h-.1-.1v-.2.1l-.4-.3-.3-.3h-.1l-.2-.1-.4-.2-.6-.3v-.1h-.2l-.1-.1-.5-.1-.1-.1h-.3l-.2-.1h-.4l-.2-.1-.6-.1h-1.1-.1-.2l-.3.1h-.2l-.2.1H84c0 .1 0 0 0 0l-.1.1h-.1l-.1.1h-.2-.1v.1l-.2.1-.4.1-.1.1-.3.2h-.1l-.3.3-.5.4-.3.4-.2.2-.4.7-.3.4v.2h-.1v.2l-.1.1v.1H80v.4l-.1.2-.1.2-.1.2V73.3l-.2.4V74l-.1.4-.1.5v.1l-.2 1v.2l-.1.2V78l-.1.6v.1l-.1.3.1.2-.1.2V85.5l.1.2V86.3l.1.3v1.3l.1.3v.2l.1.3v.1l.1.2v.4l.1.3.1.5v.1l.1.1v.2l.1.3.1.1v.3l.1.1.1.1v.3l.2.4.1.2.2.4.1.1v.1h.1v.1l.1.1.1.2.1.1.3.4v.1l.2.1.1.1.4.3v.1l.2.1.1.2.4.3.3.1v.1l.3.1.4.2.3.1v.1l.2.1h.2l.3.1.1.1h.5l.2.1H85.8l.3.1H88l.2-.1h.1l.3-.1h.2l.1-.1h.1l.1-.1h.4l.1-.2h.2v-.1h.2l.2-.2h.1l.1-.1.4-.2v-.1l.2-.1.6-.5.4-.7h.1v-.1h.1v-.1s0 .1 0 0M81 69.6l.1-.2.1-.1v-.1h.1l.2-.2.2-.1v-.1l.1-.1h.1l.3-.3h.1l.4-.3.1-.1h.4l.3-.2h.2l.4-.2h.5v-.1H86.7l.1.1h.5l.1.1h.4l.2.1h.2l.2.1.1.1h.2l.3.1.1.1.3.1.6.3.2.1.1.1h.1c.1.2.2.2.4.2l.2.3.4.3.3.2.2.2.1.1.2.3.4.6h.1l.2.4.1.1v.2l.2.3.1.1h-.1l.1.1v.1l.1.1v.1l.1.3s0-.1 0 0l.1.2.1.2v.1l.1.2.1.3.1.4v.3l.2.5v.4l.1.6v.1l.1.8.1.6v.5h.1V81.1l.1.5v.7c0 .1-.1.2 0 .4v.2l-.1.3v3l-.1.4v.2l-.1 1.5v.5l-.1.1v.5l-.1.1V89.8l-.1.2-.1.3v.5l-.2.4v.2l-.1.3v.1l-.1.1-.2.5-.2.6h-.1c-.1.2-.1.4-.3.5v.2l-.3.3-.1.2-.1.1v.1l-.1.1-.2.2v.1h-.1l-.1.1-.2.2-.6.5-.6.4h-.1l-.3.2v.1h-.1l-.1.1h-.1-.1l-.1.1h-.1l-.2.1H89v.1h-.2l-.2.1H88.3l-.3.1h-.2-.1-.1l-.6.1h-.7v-.1l-.1.1H86v-.1h-.2-.1c0-.1-.1 0-.1 0v-.1h-.3-.1c-.1-.1-.2 0-.2 0v-.1h-.2l-.7-.3-.5-.2-.4-.2H83l-.1-.2h-.2l-.1-.1-.2-.1v-.1l-.1-.1h-.1l-.1-.1H82v-.1l-.2-.2-.2-.1-.3-.4-.4-.5-.4-.5-.5-.7-.5-1.3-.2-.6-.2-.7-.1-.4v-.2l-.1-.6-.1-.4v-.1l-.1-.5v-.3-.4l-.1-.3v-.4-.2-.3l-.1-.2v-.3-.3V84v-1.1-.1l-.1-.5.1-.5v-.2-.1c-.1 0 0-.1 0-.1V81v-.5-.1V79v-.5l.1-.5v-.3-.2-.2l.1-.6v-.2-.1-.1-.3l.1-.4v-.3l.1-.2.1-.4v-.3-.2-.2l.1-.2.1-.3v-.1l.1-.4.1-.2.1-.6.2-.5.2-.5.1-.2v-.1h.1l.1-.2v-.1l.1-.2h.1l.2-.4h.1v-.1l.1-.1v-.1l.1-.1h.1" fill="#000"/><path d="M92.2 93.6l.1-.1.1-.1.2-.3.1-.3.3-.4v-.1-.3l.2-.3.4-1.3.1-.2V90l.1-.2v-.2-.1l.1-.2.1-.5v-.7-.6l.1-.1v-.2-.2-.1-.1-.1-.1l.1-.1v-.1-.1-.3-.4-.1-.1-.3-.1-1l.1-.1v-.5-.4-.2-.2-.5-.1-.3-.1-.4-.9-.2-.1l-.1-.2.1-.1-.1-.1v-.4-.2-.3-.1-.1-.3l-.1-.5v-.2l-.1-.4V77v-.8-.2l-.1-.4v-.1l-.1-.1v-.1-.1l-.1-.5-.3-.9-.1-.3v-.1l-.1-.3-.3-.8-.8-1.3H92v-.1-.1l-.2-.1-.1-.1-.1-.1v-.1l-.1-.1-.1-.1-.2-.2h-.1-.1v-.2.1l-.4-.3-.3-.3h-.1l-.2-.1-.4-.2-.6-.3v-.1h-.2l-.1-.1-.5-.1-.1-.1h-.3l-.2-.1h-.4l-.2-.1-.6-.1h-1.1-.1-.2l-.3.1h-.2l-.2.1H84c0 .1 0 0 0 0l-.1.1h-.1l-.1.1h-.2-.1v.1l-.2.1-.4.1-.1.1-.3.2h-.1l-.3.3-.5.4-.3.4-.2.2-.4.7-.3.4v.2h-.1v.2l-.1.1v.1H80v.4l-.1.2-.1.2-.1.2V73.3l-.2.4V74l-.1.4-.1.5v.1l-.2 1v.2l-.1.2V78l-.1.6v.1l-.1.3.1.2-.1.2V85.5l.1.2V86.3l.1.3v1.3l.1.3v.2l.1.3v.1l.1.2v.4l.1.3.1.5v.1l.1.1v.2l.1.3.1.1v.3l.1.1.1.1v.3l.2.4.1.2.2.4.1.1v.1h.1v.1l.1.1.1.2.1.1.3.4v.1l.2.1.1.1.4.3v.1l.2.1.1.2.4.3.3.1v.1l.3.1.4.2.3.1v.1l.2.1h.2l.3.1.1.1h.5l.2.1H85.8l.3.1H88l.2-.1h.1l.3-.1h.2l.1-.1h.1l.1-.1h.4l.1-.2h.2v-.1h.2l.2-.2h.1l.1-.1.4-.2v-.1l.2-.1.6-.5.4-.7h.1v-.1h.1v-.1s0 .1 0 0M81 69.6l.1-.2.1-.1v-.1h.1l.2-.2.2-.1v-.1l.1-.1h.1l.3-.3h.1l.4-.3.1-.1h.4l.3-.2h.2l.4-.2h.5v-.1H86.7l.1.1h.5l.1.1h.4l.2.1h.2l.2.1.1.1h.2l.3.1.1.1.3.1.6.3.2.1.1.1h.1c.1.2.2.2.4.2l.2.3.4.3.3.2.2.2.1.1.2.3.4.6h.1l.2.4.1.1v.2l.2.3.1.1h-.1l.1.1v.1l.1.1v.1l.1.3s0-.1 0 0l.1.2.1.2v.1l.1.2.1.3.1.4v.3l.2.5v.4l.1.6v.1l.1.8.1.6v.5h.1V81.1l.1.5v.7c0 .1-.1.2 0 .4v.2l-.1.3v3l-.1.4v.2l-.1 1.5v.5l-.1.1v.5l-.1.1V89.8l-.1.2-.1.3v.5l-.2.4v.2l-.1.3v.1l-.1.1-.2.5-.2.6h-.1c-.1.2-.1.4-.3.5v.2l-.3.3-.1.2-.1.1v.1l-.1.1-.2.2v.1h-.1l-.1.1-.2.2-.6.5-.6.4h-.1l-.3.2v.1h-.1l-.1.1h-.1-.1l-.1.1h-.1l-.2.1H89v.1h-.2l-.2.1H88.3l-.3.1h-.2-.1-.1l-.6.1h-.7v-.1l-.1.1H86v-.1h-.2-.1c0-.1-.1 0-.1 0v-.1h-.3-.1c-.1-.1-.2 0-.2 0v-.1h-.2l-.7-.3-.5-.2-.4-.2H83l-.1-.2h-.2l-.1-.1-.2-.1v-.1l-.1-.1h-.1l-.1-.1H82v-.1l-.2-.2-.2-.1-.3-.4-.4-.5-.4-.5-.5-.7-.5-1.3-.2-.6-.2-.7-.1-.4v-.2l-.1-.6-.1-.4v-.1l-.1-.5v-.3-.4l-.1-.3v-.4-.2-.3l-.1-.2v-.3-.3V84v-1.1-.1l-.1-.5.1-.5v-.2-.1c-.1 0 0-.1 0-.1V81v-.5-.1V79v-.5l.1-.5v-.3-.2-.2l.1-.6v-.2-.1-.1-.3l.1-.4v-.3l.1-.2.1-.4v-.3-.2-.2l.1-.2.1-.3v-.1l.1-.4.1-.2.1-.6.2-.5.2-.5.1-.2v-.1h.1l.1-.2v-.1l.1-.2h.1l.2-.4h.1v-.1l.1-.1v-.1l.1-.1h.1" stroke="#000" stroke-width=".1" stroke-linecap="round" stroke-linejoin="round"/><path d="M85.7 66.5h-.2l-.2.1c-.1 0-.1-.1-.1 0H85h-.2l-.6.1H84h-.1l-1.2.5h-.1l-.2.1-.5.3-.6.4-.1.1v.1l-.5.4-.3.4-.2.2-.2.4-.2.2-.2.4-.1.2-.1.3-.1.3-.3.4v.4l-.2.5-.2.5-.1.5-.1.1v.2l-.1.4-.1.4v.5l-.2.8V77.3l-.1.1v.8l-.1.2V83.8l.1.2v1l.1.1V88l.1.4.1.1v.5l.1.2v.5l.1.2v.2l.2.7v.2l.1.2v.2l.1.1v.1l.2.4v.3l.1.3.1.2h.1v.2h.1v.2l.1.2.1.2.1.1v.1l.1.2h.1l.1.1v.2l.1.1.2.2.1.1.2.3.1.1.1.1.1.2h.1l.1.2.6.5h.1l.2.3.2.1h.1l.1.1.3.2.3.2h.3l.1.1.1.1h.2l.2.1.3.1.2.1h.2l.2.1H85.1l.1.1c.1 0 .1-.1.1 0H88.4l.1-.1h.3l.6-.1.1-.1 1.3-.6.4-.2.2-.2.4-.3.5-.4.1-.1.1-.2.1-.1.1-.3.2-.1.1-.2.3-.5.2-.2.1-.3.2-.3.2-.4.2-.5.1-.3.1-.3v-.1l.1-.1v-.1-.1-.1l.1-.4.2-.6.2-.4v-.5-.5l.1-.3v-.1l.1-.2v-.2-.2-.2-.2l.1-.3V87v-.5-.5l.1-.3-.1-.2.1-.5v-.2-.1-.1-1.1-1-.2-.3-.3-.1-.1-.5-.3-.1c-.1 0 0-.1 0-.1l-.1-.3v-.3-.7-.2-.2-.2-.1-.2l-.1-.3v-.2-.2-.1-.1-.2l-.1-.2v-.2-.1l-.1-.2v-.3-.2-.2-.1-.2-.1-.1h-.1l-.1-.3v-.2l-.3-1.2-.2-.6-.2-.6-.1-.2V72l-.2-.3v-.1l-.1-.1v-.1l-.1-.2-.1-.1V71l-.1-.1v-.1l-.1-.1v-.1l-.2-.3-.1-.2V70l-.2-.1-.1-.1-.4-.6-.1-.1-.2-.1-.2-.3-.8-.7-.4-.2h-.1l-.2-.2-.3-.1-.2-.1-.7-.3-.2-.1h-.3-.1l-.3-.1-.2-.1h-.2l-.1-.1-.1.1-.1-.1H87v-.1h-.6l-.4-.1h-.2m1.5.1l.3.1h.5l.1.1h.3l.2.2h.5v.1l.2.1h.1l.2.1h.1l.2.1.1.1.2.1.4.2.3.2.2.2.4.3.2.1.2.2v.2h.2l.6.8.2.2c0 .2.2.3.3.5l.1.2.2.4.2.5.2.3c0 .1 0 .3.2.5l.2.6.1.2V73.5l.1.2.1.3.1.4v.3l.1.1.1.7v.5l.1.3.1.4v.3l.1.5v1.3l.1.3V86.2l-.1.4V88l-.1.1v.8l-.2.3v.9l-.1.1-.1.3V90.8l-.3.8v.2l-.1.2-.4.9v.4h-.1v.1l-.2.2-.1.2v.2h-.1l-.1.2v.1l-.5.7h-.1l-.1.2-.3.4-.1.1v.1h-.1l-.1.2H92l-.1.2-.3.2-.2.1-.4.3v.1l-.2.1h-.2l-.1.1-.1.1h-.1-.1l-.2.1-.4.2-.4.1H89v.1h-.4-.1l-.3.1h-.1-.1-.1-1.4-.1-.1-.2-.1-.2-.4v-.1c-.1 0-.2.1-.2 0h-.4l-.2-.1h-.1l-.2-.1h-.1-.1l-.1-.1-.5-.1v-.1l-.4-.1-.2-.1h-.2l-.4-.4-.3-.2-.3-.2-.1-.1-.1-.1-.2-.2-.6-.5-.1-.3c-.2 0-.4-.3-.6-.5l-.4-.8-.1-.1v-.1l-.1-.1v-.1l-.2-.3v-.1l-.1-.2-.1-.3v-.2l-.1-.2h-.1v-.2l-.1-.1v-.2l-.1-.2v-.2l-.1-.4-.1-.2v-.2l-.1-.5v-.1l-.1-.2V89h-.1v-.4L78 88v-.3-.3-.7l-.1-.3V86v-.1-.1-.1-.1-.1l-.1-.4v-.4-.6-.1-.3-.3-.3-.4l-.1-.4v-.8-.2-.6-.2-.2-.7l.1-.6v-.3-.5-.6-.2l.1-.2V77v-.2l.1-.4v-.1-.8-.2-.3l.2-.7.2-.8v-.2l.1-.2.1-.4.1-.5.1-.2v-.1l.1-.1.1-.2v-.1c0-.1 0-.3.2-.5l.1-.4.1-.1v-.1l.1-.1.1-.3.1-.1.1-.2.3-.4.2-.3.2-.2.1-.2.1-.1.1-.1.1-.1.1-.1.2-.2h.2v-.1l.1-.1.2-.1v-.1l.3-.2.2-.1.1-.1h.1l.1-.1.3-.1h.2l.2-.1.7-.2.3-.1.3-.1h.7l.2-.1h.2v0h.1l.3.1v-.1l.2.1H86.8l.5.1" fill="#000"/><path d="M85.7 66.5h-.2l-.2.1c-.1 0-.1-.1-.1 0H85h-.2l-.6.1H84h-.1l-1.2.5h-.1l-.2.1-.5.3-.6.4-.1.1v.1l-.5.4-.3.4-.2.2-.2.4-.2.2-.2.4-.1.2-.1.3-.1.3-.3.4v.4l-.2.5-.2.5-.1.5-.1.1v.2l-.1.4-.1.4v.5l-.2.8V77.3l-.1.1v.8l-.1.2V83.8l.1.2v1l.1.1V88l.1.4.1.1v.5l.1.2v.5l.1.2v.2l.2.7v.2l.1.2v.2l.1.1v.1l.2.4v.3l.1.3.1.2h.1v.2h.1v.2l.1.2.1.2.1.1v.1l.1.2h.1l.1.1v.2l.1.1.2.2.1.1.2.3.1.1.1.1.1.2h.1l.1.2.6.5h.1l.2.3.2.1h.1l.1.1.3.2.3.2h.3l.1.1.1.1h.2l.2.1.3.1.2.1h.2l.2.1H85.1l.1.1c.1 0 .1-.1.1 0H88.4l.1-.1h.3l.6-.1.1-.1 1.3-.6.4-.2.2-.2.4-.3.5-.4.1-.1.1-.2.1-.1.1-.3.2-.1.1-.2.3-.5.2-.2.1-.3.2-.3.2-.4.2-.5.1-.3.1-.3v-.1l.1-.1v-.1-.1-.1l.1-.4.2-.6.2-.4v-.5-.5l.1-.3v-.1l.1-.2v-.2-.2-.2-.2l.1-.3V87v-.5-.5l.1-.3-.1-.2.1-.5v-.2-.1-.1-1.1-1-.2-.3-.3-.1-.1-.5-.3-.1c-.1 0 0-.1 0-.1l-.1-.3v-.3-.7-.2-.2-.2-.1-.2l-.1-.3v-.2-.2-.1-.1-.2l-.1-.2v-.2-.1l-.1-.2v-.3-.2-.2-.1-.2-.1-.1h-.1l-.1-.3v-.2l-.3-1.2-.2-.6-.2-.6-.1-.2V72l-.2-.3v-.1l-.1-.1v-.1l-.1-.2-.1-.1V71l-.1-.1v-.1l-.1-.1v-.1l-.2-.3-.1-.2V70l-.2-.1-.1-.1-.4-.6-.1-.1-.2-.1-.2-.3-.8-.7-.4-.2h-.1l-.2-.2-.3-.1-.2-.1-.7-.3-.2-.1h-.3-.1l-.3-.1-.2-.1h-.2l-.1-.1-.1.1-.1-.1H87v-.1h-.6l-.4-.1h-.2m1.5.1l.3.1h.5l.1.1h.3l.2.2h.5v.1l.2.1h.1l.2.1h.1l.2.1.1.1.2.1.4.2.3.2.2.2.4.3.2.1.2.2v.2h.2l.6.8.2.2c0 .2.2.3.3.5l.1.2.2.4.2.5.2.3c0 .1 0 .3.2.5l.2.6.1.2V73.5l.1.2.1.3.1.4v.3l.1.1.1.7v.5l.1.3.1.4v.3l.1.5v1.3l.1.3V86.2l-.1.4V88l-.1.1v.8l-.2.3v.9l-.1.1-.1.3V90.8l-.3.8v.2l-.1.2-.4.9v.4h-.1v.1l-.2.2-.1.2v.2h-.1l-.1.2v.1l-.5.7h-.1l-.1.2-.3.4-.1.1v.1h-.1l-.1.2H92l-.1.2-.3.2-.2.1-.4.3v.1l-.2.1h-.2l-.1.1-.1.1h-.1-.1l-.2.1-.4.2-.4.1H89v.1h-.4-.1l-.3.1h-.1-.1-.1-1.4-.1-.1-.2-.1-.2-.4v-.1c-.1 0-.2.1-.2 0h-.4l-.2-.1h-.1l-.2-.1h-.1-.1l-.1-.1-.5-.1v-.1l-.4-.1-.2-.1h-.2l-.4-.4-.3-.2-.3-.2-.1-.1-.1-.1-.2-.2-.6-.5-.1-.3c-.2 0-.4-.3-.6-.5l-.4-.8-.1-.1v-.1l-.1-.1v-.1l-.2-.3v-.1l-.1-.2-.1-.3v-.2l-.1-.2h-.1v-.2l-.1-.1v-.2l-.1-.2v-.2l-.1-.4-.1-.2v-.2l-.1-.5v-.1l-.1-.2V89h-.1v-.4L78 88v-.3-.3-.7l-.1-.3V86v-.1-.1-.1-.1-.1l-.1-.4v-.4-.6-.1-.3-.3-.3-.4l-.1-.4v-.8-.2-.6-.2-.2-.7l.1-.6v-.3-.5-.6-.2l.1-.2V77v-.2l.1-.4v-.1-.8-.2-.3l.2-.7.2-.8v-.2l.1-.2.1-.4.1-.5.1-.2v-.1l.1-.1.1-.2v-.1c0-.1 0-.3.2-.5l.1-.4.1-.1v-.1l.1-.1.1-.3.1-.1.1-.2.3-.4.2-.3.2-.2.1-.2.1-.1.1-.1.1-.1.1-.1.2-.2h.2v-.1l.1-.1.2-.1v-.1l.3-.2.2-.1.1-.1h.1l.1-.1.3-.1h.2l.2-.1.7-.2.3-.1.3-.1h.7l.2-.1h.2v0h.1l.3.1v-.1l.2.1H86.8l.5.1" stroke="#000" stroke-width=".03" stroke-miterlimit="10"/><path d="M88 89.6v1c0 .3.2.5.4.6.3.1.5-.1.6-.4v-1c0-.2-.2-.4-.4-.5l-.6.3m.7 1.7l.1.1.1.1.1.2.3.1h.1l.1.2h-.1l-.4-.1-.5-.4v-.1l-.1-.1-.3-.1c-.2-.2-.4-.5-.4-.9s.2-.8.3-1c.3-.2.7-.2 1 .1.1.2.3.5.3.9s-.1.7-.3.9l-.3.1zM84.9 89.1l.8.1h.3v-.1c.2 0 .1.2.1.3v.3c0 .1-.1 0-.1 0v-.1-.3h-.3-.1v1.5c0 .1-.1.2 0 .2l.1.2h.1v.1h-.5-.1l-.1-.1.1-.1s.1.1.1 0l.1-.1-.1-.7v-.9-.1h-.2c-.1 0-.1-.1-.2 0l-.1.4-.1-.1.1-.3c0-.1 0-.3.1-.2M86.7 89.3v.2l.1.2.2.5.3-.6s.2-.3 0-.3h-.1l.2-.1H87.7c0 .2-.1.1-.1.1l-.1.2-.3.6-.1.3-.1.3v.3l.1.2h.1l.1.1h-.4c-.1 0-.3.1-.3-.1l.1-.1h.1s0 .1 0 0l.1-.1v-.3-.3l-.1-.2-.2-.3-.1-.3-.1-.2-.1-.1c-.1 0-.1-.1 0-.1 0-.1.1 0 .2 0H86.8v.1h-.2M83.1 89l.1.1-.1.1H83V91c0 .1 0 0 .1 0l.1.1-.1.1h-.4l-.1-.1.1-.1h.1v-.4-1.1l-.1-.3s-.2 0-.1-.2h.5M90.7 89.4h-.2l.1-.1h.2c.1 0 .2-.1.2.1l-.1.1-.1.2v.3l.1.7-.2.5-.3.2c-.2.1-.5 0-.7-.2l-.1-.5V90v-.3-.2l-.1-.1h-.1v-.1c.1-.1.1 0 .2 0h.2c.1 0 .2-.1.2 0 0 .2-.2 0-.2.1V90.7l.1.4c.1.2.3.2.5.1.1 0 .2 0 .2-.2l.1-.3V90v-.3-.3M91.5 89.5v.7h.5V90 90.5l-.3-.1h-.2v.6l.1.2h.4c.2 0 0-.2.2-.3v.5c0 .1-.1 0-.2 0H91.1l-.1-.1h.2l.1-.1v-.1-.3-.8-.3-.2l-.3-.1.2-.1h.9v.3c.1 0 .1.4 0 .4l-.1-.4-.2-.1h-.3M81.2 89.2V90.8l.1.2h.4l.3-.1.2-.5c0-.4 0-.8-.2-1.1l-.4-.1h-.2s-.1-.1-.2 0zm-.4-.1l.1-.1h.8c.3 0 .6.3.7.7.1.3 0 .9-.2 1.2l-.3.3H81l-.2-.1.1-.1h.1v-.3-1-.5c0-.2-.1 0-.2-.1M84.2 90c.1 0 .2-.3.1-.4l-.1-.3H84h-.1v.8c0 .1 0 0 0 0l.1.1.2-.2zm-.3.3v.7l.1.1.1.1c-.1.1-.1 0-.1 0h-.5s-.1 0 0-.1l.1-.1c.1 0 0 0 0 0 .1-.1 0-.3 0-.4v-.7l.1-.5-.1-.2h-.1s-.1 0 0-.1c0-.1 0-.1 0 0h.5l.3.1c.2.1.3.5.2.8-.1.3-.4.3-.6.3M85.8 93.7h.2l-.1-.3-.1.3zm.2-.5l.1.5.1.3v.1l.1.1v.1h-.1c0-.1-.1 0-.2 0v-.1-.2-.2h-.1-.1l-.1.2v.1l.1.1c0 .1-.1 0-.1 0-.1 0-.2.1-.2 0h.1v-.1l.2-.6v-.2c.1-.1.1-.2.2-.1M87.6 93.3h-.1V94.2h.1l-.1.1h-.1-.1v-.1h.1v-.1-.3-.3l-.1-.2v-.1h.1c.1 0 .2-.1.2.1M88.2 93.2c.1 0 0 .1 0 .1l.1.2-.1-.1-.1-.1H88c0 .1-.1.2 0 .2l.1.2.2.3c0 .2-.1.3-.3.3h-.1l-.1-.1v-.1-.1c0-.1 0 0 .1 0l.1.2s.2 0 .2-.2l-.2-.2c-.2-.1-.2-.3-.2-.5.2-.2.3-.1.4-.1M86.8 93.7c.1-.1.1-.3 0-.4h-.2v.4h.2m.1 0l.1.3v.2h.1l-.1.1-.1-.1-.1-.2-.1-.2h-.1v.3l.1.1c.1.1 0 .1-.1.1h-.2v-.1h.1v-.1-.1-.4-.2l-.1-.1v-.1h.2c.1 0 .3-.1.4.1l-.1.5M85.3 93.5l-.1-.2h-.1v.3l.1.1h.1c0-.1.1-.2 0-.2zM85 93c.1.1.5-.1.5.3l-.2.4h-.2v.1l.1.2.1.1c0 .1-.1 0-.2 0H85s0 .1 0 0c0 0-.1 0 0 0v-.1-.1-.4-.4-.1M87 69.5v.1c-.1.1-.1-.1 0-.1zM87.2 69.6c.1 0 .1.1 0 .2-.1 0-.1-.2 0-.2zM86.7 69.7c.1 0 .1.2 0 .2s-.1-.2 0-.2zM86.4 69.8l-.1.2s-.1-.2.1-.2zM87 70c.2 0 .2.1 0 .1V70zM87.7 70.2c-.1.1-.2 0-.1-.2l.1.2zM86.8 70.1c-.1.1-.2 0-.1-.1l.1.1zM86 70v0zM87.4 70.2v.2c-.1 0-.2-.3 0-.2zM86.4 70.3c0-.1-.1-.1 0-.2h.1v.1l-.1.1M86.9 70.3c-.1.2-.2.1-.2 0 .1-.1.2 0 .2 0zM87.7 70.5c-.1-.1-.1-.2 0-.2h.1l-.1.2zM87 70.3c.1 0 .1.2 0 .2v-.2zM86.5 70.4s.1.2 0 .2-.2-.2 0-.2zM86.9 70.6c-.1-.1 0-.2.1-.1 0 .1 0 .2-.1.1zM85.9 70.4h.1v.1c0 .2-.2.1-.1-.1zM87.5 70.5c.1 0 0 .2 0 .2-.1 0-.1-.2 0-.2zM87.9 70.6c.1 0 .1.1 0 .1s-.1-.1 0-.1zM87.7 70.7c.1 0 .1.2 0 .1v-.1zM86.7 70.6v.3-.3zM87.2 70.7c.1 0 .1.2 0 .2v-.2zM86 70.8c.1-.1.1.2 0 .2v-.2zM87.7 71v.1c-.1 0-.1-.2 0-.1zM85.7 71c-.1.1-.3 0-.2-.1l.2.1zM87.2 71l.1.1-.1.1V71zM85.2 71l.1.2-.1-.2zM88.2 71.3c0 .1-.1.3-.2.2 0-.1 0-.3.2-.2zM87.8 71.3l-.1.1.1-.1zM85.4 71.2c.1-.1.1.1 0 .1 0 0-.1-.1 0-.1zM86 71.4v-.1c.1.1 0 .3 0 .1zM85 71.2c0-.1.2.1.1.2H85v-.2zM87.7 71.6c0 .1-.1.1-.2 0 0-.1.1-.1.2 0zM88 71.6c0 .1-.1.1-.1 0h.1zM85.8 71.5c.2 0 .2.2 0 .2-.1 0-.1-.2 0-.2zM85.6 71.5c.1 0 .1.2 0 .2l-.1-.1.1-.1zM86.7 71.8l-.1-.1c0-.2.1-.1.1.1zM88.4 71.8l-.1.1-.1-.1c0-.1.1-.1.2 0M85.1 71.6c.1.1-.1.2-.1.1s0-.2.1-.1zM88.1 72l-.1-.2.1.1c.1.1 0 .1 0 .1zM85.4 71.8c.1-.1.2 0 .1.2l-.1-.2zM85.2 71.8l.1.2h-.1c-.1-.1 0-.1 0-.2zM86.8 72.1l.1-.1c.1 0 .1.2-.1.1zM88 72.1l.2-.1V72.3H88v-.2M84.7 72l.1-.1c.1 0 0 .3-.1.1zM88.4 72.2s.1.1 0 .2c0 .1-.2-.1 0-.2zM85 72.2V72c.1 0 .1.1 0 .2zM86.2 72.2c.1-.1.1.1 0 .1s-.2-.1 0-.1zM87.9 72.3l.1.1c-.1.1-.2.1-.2 0-.1-.1 0-.2.1-.1zM84.7 72.1l-.1.2-.1-.1c0-.2.1-.2.2-.1zM85.5 72.4c0-.1 0-.4.1-.2l.1.1-.2.1M86.9 72.4l-.1-.1c0-.1 0-.1.1 0v.1zM87.6 72.5h-.1-.1l.1-.2.1.2zM86 72.4v.1c0 .1-.2 0 0-.1zM88.3 72.7l-.1.1c0 .1-.1.1-.1 0-.1-.1 0-.2.1-.2h.1c0-.1.1-.1.1 0v.1c0 .1-.1.1-.1 0M85 72.4v.2c-.2-.1 0-.3 0-.2zM85.6 72.5c.1.1 0 .2 0 .2-.1 0-.1-.3 0-.2zM87.2 72.8c-.1-.2.1-.3.2-.1l-.2.1zM87.8 72.6c.2.1 0 .3-.1.2l.1-.2zM84.7 72.5l-.1.1h-.1c0-.1.1-.2.2-.1M88.5 72.8l.1-.1.1.1c0 .2-.1.2-.2 0zM86.4 72.7l-.1.1v-.2l.1.1zM88 72.8v.2c-.1-.2 0-.2 0-.2zM85.9 72.9c0-.2.1-.1.1 0s0 0-.1 0zM85.3 72.8c.1-.1.1.2.1.2l-.1-.2zM88.9 73l-.1.2c-.1-.1 0-.2.1-.2zM88.5 73c-.1.2-.2.1-.2 0h.2zM87.3 73c.1-.1.1.1 0 .1 0 .1-.1 0-.1 0l.1-.1zM85 73v-.2l.1.1c.1.1-.1.1-.1.1zM86.3 73h-.1c.1-.1.1 0 .1 0M84.7 73V73l.1-.1c0 .1.1.2 0 .2h-.1zM85.7 73s-.1 0 0 0h0zM87.7 73v0zM86.1 73c0 .2-.1 0-.1 0h.1zM88.1 73.3v-.1l.1-.1v.2c.1.1-.1.1-.1 0zM84.2 73.2l-.1-.1c-.1-.1 0-.1 0-.1l.1.2zM87.5 73.3c-.1-.1 0-.2.1-.1l-.1.1zM88.6 73.5l-.1-.1v-.1h.1c.1.1 0 .2 0 .2M84.5 73.3l-.1-.1v-.1-.1l.1.3zM89 73.3l-.1.3c-.1-.1-.1-.3.1-.3z" fill="#000"/><path d="M84.7 73.3c-.1.1-.1-.1-.1-.2.1-.1.2.1.1.2zM88 73.3c0 .1-.2.3-.2.1l.2-.1zM86.4 73.3l-.1.1c-.1-.2.1-.2.1-.1zM86.7 73.5c-.1.1-.2-.1-.2-.2h.1l.1.2zM88.2 73.6v-.2h.1c.1.1 0 .2-.1.2zM85.8 73.3v.1c-.1.1-.1-.2 0-.1zM85.2 73.4s0-.2.1-.1c0 .1 0 .2-.1.1zM84 73.4v-.1c-.1 0 0-.1 0-.1v.2zM89.2 73.6s.1.1 0 .2c-.1.2-.2-.2 0-.2zM85.4 73.5c.1 0 .1-.1.1 0v.1l-.1-.1zM84.6 73.4c.1 0 .1.2 0 .2s-.1-.1 0-.2zM85.9 73.6c0 .1-.1.1-.1 0-.1-.1 0-.1.1 0zM87.8 73.7c.1.1 0 .2-.1.2s0-.4.1-.2zM86.5 73.8c-.1-.1 0-.2 0-.2.1.1 0 .2 0 .2zM84 73.5c.1 0 .2.1 0 .2v-.1-.1M84.4 73.7h-.1v-.2l.1.1v.1zM85.1 73.6l-.1.1v-.1c0-.1.1 0 .1 0zM88.4 74l-.1-.2h.1v.2M89 74c0 .1-.1 0-.2 0 0-.1.2-.2.2 0zM85.5 73.7c.1 0 .1.2 0 .2s-.1-.2 0-.2zM88 74V74s0-.1 0 0c.2.1 0 .3 0 .1zM85.7 74v-.1c-.1 0 0-.1 0-.1.1 0 .1.2 0 .2zM86.3 73.9c.1 0 .1.1 0 .1s-.1 0 0-.1zM85 74v-.2.2zM84.4 73.9c0-.1.1.1 0 .1-.1.1-.1 0 0-.1zM83.3 74c0-.1.1-.2.2-.1l-.1.1h-.1M89.2 74.4l-.2-.1.1-.1.1.2zM86.7 74c.1.1 0 .2 0 .2V74zM89.4 74.3c.1-.1.1.1 0 .2l-.1-.1.1-.1zM86.5 74.1c.1-.1 0 .2 0 .2-.1-.1-.1-.2 0-.2zM84.2 74.1l-.1.1V74c.1 0 .2 0 .1.1M83.1 74.2L83 74h.2l-.1.2zM83.7 74l-.1.1.1-.1zM84 74c0 .1 0 .3-.1.2-.1-.1 0-.2.1-.2zM84.7 74.3V74v.3zM85 74.1c.2 0 .2.2.1.2l-.1-.2zM89 74.7v-.1-.1s.1.1 0 .2zM84.5 74.5v-.3.3zM88.8 74.6c.1-.1.2.2 0 .2-.1 0-.1-.2 0-.2zM83.7 74.3l.1.1-.1.1-.1-.1.1-.1zM84.9 74.6l-.1-.1c0-.1 0-.2.1-.1.1 0 .1.2 0 .2zM84 74.5c0-.1.1-.2.2-.1 0 0-.1.2-.2.1zM85.1 74.6s-.1-.1 0-.1c0-.1.1-.1.1 0v.1c0 .1 0 0-.1 0M83 74.5v-.1c.2.1 0 .2 0 .1zM87 74.6v.2h-.1l.1-.2zM84.4 74.5v.2c.1.1 0 .3-.1.1v-.1-.1-.1c0-.1 0 0 .1 0zM90 74.8v.2c-.2 0-.2-.2 0-.2zM89.2 74.9c.1.1 0 .3-.1.2-.1-.1 0-.3.1-.2zM84.9 74.7l.1.1c0 .1-.1.1-.2 0v-.1s.1-.1.1 0zM90.1 75l.1.2H90l.1-.2zM85.2 74.9c0 .1-.2-.1-.1-.2l.1.2zM89.7 75c.1 0 0 .2-.1.1l.1-.1zM84.6 74.7l.1.3c-.1 0-.2-.2-.1-.3zM83.1 74.7c.2 0 .2.3.1.3l-.1-.3zM86.4 75c0-.1.1.2 0 0zM88.3 75.3c-.1.1-.2-.1-.1-.2 0-.1.1-.1.1 0 .1.1 0 .2 0 .2zM89.4 75.3l.1-.1c0-.1.1 0 .1 0l-.1.2-.1-.1zM85 75c0 .1 0 0 0 0v-.1.1M87.7 75c.2 0 .2.3.1.3l-.1-.3zM84.1 75.1l.1-.2.1.1-.2.1zM90.4 75.3s.1.1 0 .2h-.1v-.2c0-.1.1 0 .1 0zM87.4 75.3h-.1v-.1l.1-.1.1.2c0 .1-.1.1-.1 0zM88.5 75.4l.1-.2v.2c0 .1-.1 0-.1 0zM83.7 75c.1-.2.3.2.1.1l-.1-.1zM89 75.3v.2c-.2-.1 0-.3 0-.2zM84.9 75.2l-.1-.1.1-.1v.2zM90.5 75.7l-.1-.1v-.1l.2-.1c.1.1 0 .3-.1.3M90.1 75.4v.3-.3zM84.6 75.3c-.1 0-.1-.1 0-.1 0 0 0-.1.1 0l-.1.1zM88 75.5c0 .1 0 .1 0 0v-.1c0-.1.1 0 0 .1M85 75.2v0zM88.7 75.5l-.1.2c-.1 0 0-.3.1-.2zM89.4 75.7l-.1-.2h.1c.1.1.1.2 0 .2zM85.7 75.5s-.1-.1 0-.2c0-.1.1.1 0 .2zM84.2 75.5l-.1-.2c.1-.1.1-.1.1 0 .1 0 0 .2 0 .2zM85.3 75.3c0 .2-.1.2-.1.1s0-.2.1-.1zM87.7 75.6v-.1h.1v.1c0 .1 0 0-.1 0zM89.8 75.6v.2c-.1.1-.1.1-.1 0-.1-.1-.1-.2 0-.2h.1zM83.9 75.3c.1 0 .1.2-.1.1l.1-.1zM89.2 75.6c.1.1 0 .3-.1.2 0 0-.1-.1 0-.2 0 0 .1-.1.1 0zM85.4 75.4c.1 0 .1.3 0 .2-.1 0 0-.1 0-.2zM87.2 75.7v-.1h.1c.1 0 .1.1 0 .2l-.1-.1zM90 75.9v.1c-.1-.1-.1-.2 0-.2v-.1.2zM84.5 75.6c0 .1-.2.1-.2 0l.1-.2.1.2zM85.9 75.6l-.1.1c0 .1 0-.2.1-.1zM85 75.7c-.1 0-.1-.2 0-.2v.2zM83.6 75.5l.1.1c0 .1-.2.1-.1-.1zM87.6 75.9c0-.1-.1-.2 0-.2h.1l-.1.2zM90.5 76l.1-.1.1.1c-.1.2-.3 0-.2 0zM88.5 76c0-.3.2-.3.2-.1l-.2.1zM88 76v-.2.2zM89.5 76v.1h-.1c-.1-.1-.1-.1 0-.1 0-.1 0-.1.1 0zM86.2 76c-.1-.1-.1-.3 0-.2v.2M90 76c.2 0 .2.2 0 .2V76zM85.9 75.8c.1 0 .1.2 0 .2s-.1-.2 0-.2zM84.7 76v-.2c0-.1.1-.1.1 0v.1l-.1.1zM85.3 76c-.1 0-.1-.2 0-.2s.1.2 0 .2zM87.3 76l.1.1c-.1.1-.2-.1-.1-.1zM88.4 76v0zM85.5 76.1c-.1-.1 0-.1.1-.1l-.1.1zM89.7 76.3c.1-.1.1.1.1.2-.1.1-.2-.2-.1-.2zM87.1 76.1c.1 0 .1.3-.1.2l.1-.2zM85.1 76c.1 0 .1.2 0 .2l-.1-.1.1-.1zM89 76.2v.2c-.1.1-.1-.1 0-.2zM88 76.4v-.2c.2 0 .1.2 0 .2zM89.5 76.3v.2c-.1 0-.1-.3 0-.2zM84.8 76c.2 0 .2.2.1.2-.1.1-.2-.2-.1-.2zM85.8 76.1c0 .1.1.1 0 .1v.1c-.1-.1-.1-.3 0-.2zM84 76l.1.2c-.1 0-.1.1-.1 0V76zM87.8 76.3c.1 0 .1.2 0 .2-.1.1-.1-.2 0-.2zM87.4 76.5l-.1-.1c.1-.1.1 0 .1.1zM88.3 76.6l-.1-.1.1-.1v.2zM84.4 76.2l-.1.2c-.1-.1-.1-.1 0-.2h.1zM85.6 76.3c.1-.1 0 .2 0 .1-.1 0-.1-.1 0-.1zM83.8 76.3v.1l-.1-.1v-.1c.1-.1.1 0 .1.1M87 76.4v.1h-.2c0-.1 0-.2.2-.1M89.2 76.6l.1-.1v.2l-.1-.1zM89.8 76.7l.1-.2.1.1c0 .1-.1.2-.2.1M86.6 76.5v-.1h.1l-.1.1zM89 76.6v.2c-.1 0-.1-.3 0-.2zM88.5 76.6l-.1.1c0-.1 0-.2.1-.1zM85.4 76.4c.1 0 .1.2 0 .2s-.1-.2 0-.2zM87.5 76.6c0-.1.1.1 0 .1s-.1-.1 0-.1zM85.2 76.6c-.2.1-.2 0-.2-.1l.2.1zM86.7 76.6l.1.3c-.1.1-.1 0-.2-.1l.1-.2zM87.2 76.7c.1.2-.1.2-.1.1l.1-.1zM83.4 76.7c-.1 0-.2-.1-.1-.2s.1.1.1.2zM88.1 76.8l-.1.2v-.1-.2.1h.1M89.4 76.8c.1 0 .1.2 0 .2s-.1-.1 0-.2zM83.8 76.7l-.1-.1v-.1l.1.1v.1zM85.8 76.8v-.1c.1-.1.1-.1.2 0 0 0-.1.2-.2.1zM88.3 76.8l.1.1-.1.1c-.1 0-.1-.2 0-.2zM84.2 76.7c0 .1-.2-.1 0-.1.1.1 0 .1 0 .1M89.9 77.1l-.1-.1c-.1 0 0 0 0-.1l.2.1-.1.1zM87.6 76.8c.1-.1.1.2 0 .2s-.1-.2 0-.2zM86.9 76.8c.1-.1.1.2.1.2l-.1-.2zM83.2 76.6v.2c-.2 0-.2-.3 0-.2zM83.6 76.8h-.1c0-.2.2-.1.1 0zM85.5 77s-.1-.1 0-.2c0-.1.1.1 0 .2zM83.9 76.7c.1-.1.1.2.1.2l-.1-.2zM86 77c0-.1 0-.2.1-.1v.1H86zM87.3 77c.1-.1.1.1 0 .1s-.1-.1 0-.1zM88 77.3v-.1-.2V77.3zM87.6 77.2l.1-.2v.2c0 .1 0 0-.1 0zM89.7 77.2c.1-.1.1.2 0 .2s-.1-.2 0-.2zM84.1 77v.2l-.1.1V77v-.1l.1.1h0zM83 77c-.1 0 0 0 0-.1v.1c.1 0 0 0 0 0zM83.7 77c0 .1-.1 0-.1 0 0-.1.2-.1.1 0zM88.8 77.2c.1 0 .1.1 0 .2 0 .1-.2-.2 0-.2zM84.3 77l.1.2c-.1.1-.2-.2-.1-.2z" fill="#000"/><path d="M86 77.3V77c0-.1.1.3 0 .2zM85.8 77.3c-.1-.1 0-.2 0-.2l.1.1v.1h-.1M87.2 77.3c0-.1.1-.1.1 0l-.1.1v-.1zM89 77.4v0c0-.1 0-.1 0 0zM85.5 77.3c-.1.1-.1-.1-.1-.1.1 0 .1-.1.1 0v.1M84.5 77.3c-.1 0-.1-.2 0-.2l.1.1-.1.1zM87.5 77.5c-.1-.1 0-.3 0-.2l.1.1-.1.1zM88.2 77.4c0 .1-.1.2-.2.1v-.2l.2.1zM83.6 77.1l-.1.2s-.1-.3.1-.2zM88.6 77.6h-.1v-.2h.1v.2zM85.1 77.3c.1.2-.1.1-.1 0s.1 0 .1 0zM88.3 77.5c.1 0 0 .3-.1.1l.1-.1zM83 77.2c.2.1.1.3 0 .2v-.2zM83.3 77.5c-.1 0-.1-.2 0-.2 0-.1.1.1 0 .2zM86.2 77.4l-.2.2.2-.2zM86 77.4v.2l-.1-.1.1-.1M86.3 77.6v-.2l.1.1v.1h-.1zM84.7 77.4c.1 0 0 .2 0 .2-.1 0-.1-.2 0-.2zM89.3 77.7c.1-.1.1-.1.2 0l-.1.1c0 .2-.1-.1-.1-.1zM87.1 77.6c.1-.1.1.1 0 .1s-.1-.1 0-.1zM89 77.9v-.2l.1.1-.1.1M87.7 77.6v.3-.3zM85.2 77.5l.1.2-.1-.2zM87.4 77.8c-.1-.1-.1-.1 0-.2l.1.1v.1c0 .1-.1 0-.1 0zM90.4 78s-.1-.2 0-.2l.1.1v.1c-.1.1-.1 0-.1 0M83.6 77.5c.1 0 .1.1 0 .1l-.1-.1c.1-.1.1-.1.1 0zM83.8 77.5c.1-.1.2.2 0 .1 0 0-.1-.1 0-.1zM85.7 77.6c0 .2-.2.2-.1 0 0-.1.1-.1.1 0zM84.1 77.5c.1 0 .2.1.1.2-.1 0-.2-.1-.1-.2zM88.6 77.7v.2c0 .1-.1-.2 0-.2zM90.7 78.2l-.1-.2c.1-.1.1-.1.1 0h.1l-.1.2zM83.4 77.8l-.1-.1v-.1c.1-.1.1 0 .1 0v.2zM85.4 77.7c.1 0 0 .3 0 .2-.1 0-.1-.3 0-.2zM85.9 77.9c-.2.1-.2-.2-.1-.2l.1.2zM90.1 78c.2 0 .1.3 0 .2-.1-.1-.1-.2 0-.2zM86.3 77.8c0-.1.1 0 .1 0 0 .2-.1.2-.1 0zM87.9 77.8c.1 0 .1.2 0 .2s-.1-.1 0-.2zM84.4 77.8v.1l-.1-.1v-.1l.1.1zM88.9 78.1c-.1.1-.2-.1-.1-.1l.1.1zM88.4 78c.1 0 .1.1 0 .1-.1-.1-.1-.1 0-.1zM89.3 78c.1.2 0 .2-.1.2V78h.1zM87.2 78c-.1.1-.2.1-.2 0 0 0 0-.2.2 0zM84 77.7v.3-.3zM83.8 77.8c.1 0 .1.2 0 .2 0 0-.1-.2 0-.2zM89.8 78.1l.1.2c-.1.1-.1.1-.2 0v-.1l.1-.1zM86 78h.2v.2L86 78zM83 78v-.2s.2.2 0 .2zM87.4 78.1c0-.1 0-.1.1 0v.1l-.1.1v-.2zM90.8 78.3c.2 0 .2.2 0 .2l-.1-.1.1-.1zM84.9 78l.1.2-.1-.2zM86 78v.2l-.1-.1.1-.1zM87.7 78.2l-.1.2c-.1 0 0-.4.1-.2zM88 78.3c0 .1-.1.1-.1 0l-.1-.1c.1-.1.2 0 .2 0v.1zM88.6 78.2l.1.1-.1.1c-.1 0-.1-.2 0-.2zM88.2 78.3l.1-.1c.1.1-.1.2-.1.1zM90.5 78.3l-.1.2h-.1c0-.2.1-.2.2-.2zM87.2 78.2l.1.1-.1.1v-.2zM82.8 78.2l.1-.2.1.2h-.2zM89 78.4v-.1l.2.1c0 .1-.2.1-.2 0zM86.5 78.4c-.1.1-.2-.1-.1-.2l.1.2zM84.2 78.1c0 .1-.1.2-.2.1 0-.1.1-.2.2-.1zM84.6 78.2v.1h-.1l.1-.1zM86.2 78.4c-.1 0-.1-.2 0-.1l.1.1h-.1M90.5 78.6c0-.1.2-.1.1.1l-.1-.1zM84.4 78.2l.1.1-.1.1c-.1 0-.1-.2 0-.2zM89.6 78.6l.1-.1.1.1c.1.1-.1.1-.2 0zM83.7 78.2c.1.1 0 .2 0 .2-.1-.1-.1-.2 0-.2zM88.4 78.5c.1-.2.2 0 .2.1-.1.1-.2 0-.2-.1zM84.8 78.3v.2l-.1-.1.1-.1M86 78.4v.1c-.1.1-.2-.1 0-.1zM87.8 78.5l-.1.2c0-.1 0-.3.1-.2zM87.5 78.5c.1.1 0 .3-.1.2l.1-.2zM88.1 78.6c.1-.1.2 0 .2 0-.1.1-.2.1-.2 0zM83.3 78.3l-.1.2v-.1-.1h.1zM86.5 78.5l-.1.2v-.2h.1zM91 78.7v.3l-.2-.2.1-.1h.1zM88.6 78.8v-.1l.1-.1-.1.2zM89.2 78.6c.1.1 0 .4 0 .2-.1 0 0-.1 0-.2zM83.5 78.6l-.1-.1.1-.1v.2zM82.8 78.4c.2-.1.2.2.1.2l-.1-.2zM88.9 78.7c.1.1.1.2 0 .2s-.1-.3 0-.2zM90.3 79h-.1v-.1l.1-.1c.1 0 .1-.1.1 0 .1.1.1.2 0 .2h-.1M85.6 78.6l-.1.2c0 .1-.1-.3.1-.2zM85.9 78.8h-.1v-.1c.2-.1.2.1.1.1zM89.8 78.9l-.1.1c0-.1 0-.2.1-.1zM87.2 79l.1-.3v.2l-.1.1zM89.5 79.1c-.1 0-.1-.1 0-.2v.1c.1 0 0 0 0 .1zM84.3 78.8v-.1-.1l.1.1c0 .1 0 .2-.1.1zM87.6 78.8c.1.1.1.2 0 .2l-.1-.1.1-.1zM88.4 79h-.1c-.1-.1.1-.2.1 0zM90.8 79v.1c-.1.1-.1.1-.1 0l-.1-.1h.2zM89 79v0zM84.8 79l-.1-.2c.1-.1.2 0 .1.2zM86.6 79c-.1.1-.2 0-.1-.1l.1.1zM88.6 79c.1 0 0 .1 0 0-.1 0 0 0 0 0zM83.7 78.9l-.1-.1.1-.1c.1.1 0 .3 0 .2zM90.5 79.2V79l.1.1v.1c-.1.1-.1 0-.1 0zM83.2 78.7c.1.1 0 .3 0 .2l-.1-.1.1-.1zM89.9 79c.1.1 0 .2 0 .2-.1 0-.1-.2 0-.2zM87.8 79c.2 0 .2.2.1.2l-.1-.2zM85.3 79c-.1 0-.1-.1 0-.1s0 .1 0 .1zM83.5 78.8c.1 0 0 .3-.1.2l.1-.2zM85.9 79c.1-.1.1.2 0 .1-.1 0-.1-.1 0-.1zM84.4 79c.1-.1.1 0 .1 0 0 .1-.1.1-.1 0zM89.6 79.3c-.1.1-.2-.1-.1-.1l.1.1zM87.4 79.3l.1-.3-.1.3zM86.4 79.1l-.1.2c-.1-.1 0-.3.1-.2zM88 79.3c0-.3.2-.1.2 0-.1.1-.2.1-.2 0zM87.3 79.2l-.1.2-.1-.1.1-.2.1.1zM90.5 79.4c0 .1-.1.1-.1 0s.2-.2.1 0zM85.5 79.2l.1-.2-.1.2zM84.1 79.2l.1-.2c.1.2 0 .2-.1.2zM86 79.3V79c.1 0 .1.1 0 .2zM89 79.3v.1c-.1-.1 0-.2 0-.1zM85.2 79.2c0 .1 0 .3-.2.2 0-.1.1-.3.2-.2zM87.7 79.5s-.1-.1 0-.1v-.1l.1.1-.1.1zM90.2 79.5c.1 0 .1.2 0 .2s-.1-.2 0-.2zM87.5 79.4l-.1.2c-.1-.1-.1-.3.1-.2zM85.4 79.5v.1h-.1c-.1-.1 0-.1 0-.2v-.1h.1l.1.1-.1.1zM89.2 79.6l.1-.1c0-.1.1 0 .1 0v.2l-.2-.1zM84.4 79.3s.1.2 0 .2-.1-.1 0-.2zM90.4 79.6c.1 0 .1.2 0 .2s0-.2 0-.2zM84.2 79.5c-.1.1-.2 0-.1-.1s.1 0 .1.1zM88 79.6c.2 0 .1.2 0 .2v-.2zM87.7 79.6c.2-.1.1.2 0 .2v-.2zM88.8 79.6l-.1.2c-.1-.1 0-.2.1-.2zM85.2 79.8H85v-.2h.2v.2zM89.2 79.8c.1.2-.1.2-.2.2v-.2h.2zM84.2 79.6c.1 0 .1.2 0 .2s-.1-.2 0-.2zM88 80h-.1c-.1-.1 0-.2 0-.2l.1.2zM88.3 80h-.1l.1-.2v.2zM87.6 79.9c.1.1 0 .2 0 .1h-.1l.1-.1zM88.8 80v.1l-.1.1v-.1l.1-.1zM85.3 79.9l.1.1-.1-.1zM84.4 79.9c.1 0 .1.1 0 .1s-.1 0 0-.1zM87.8 80v.2c0 .1 0 .1-.1 0l.1-.2zM88.3 80.3V80v.3zM89.2 80.2c.1.1 0 .1 0 .1-.1 0 0-.2 0-.1zM88.5 80.2c.1.1 0 .2-.1.1l.1-.1zM87.6 80.3l.1.2-.1-.1v.2l-.1.1-.1-.1v-.1l.1-.1-.1-.1c0-.1.2-.1.2 0zM88.9 80.4c0 .1-.1.1-.2 0 0-.1.1-.1.2 0zM89.3 80.4c.1 0 .1.1 0 .1l-.1-.1c.1 0 .1-.1.1 0zM85.4 80.3v.1s-.1.1-.1 0l-.1-.1h.2zM88.6 80.4v.1c-.1.1-.1.1-.1 0l.1-.1zM84.4 80.4v-.1c0-.1.1-.1.1 0v.1h-.1zM89.4 80.8c-.1-.1.1-.2.1-.1l-.1.1zM88.4 80.9c0 .1.1.1 0 .1h-.1l.1-.1v-.3l.1.1v.1l-.1.1M85.2 80.6c.1-.1.2-.1.2 0 0 .2-.2.2-.2 0zM84.3 80.7v-.2l.1.1-.1.1zM88.7 80.7h.1v.2c-.1.1-.1-.2-.1-.2M89.3 81h.2s-.1.2-.2 0zM84.3 80.9l.1-.2.1.1-.1.2-.1-.1zM85.4 81.1v.2h-.1v-.1-.1-.1l.1-.1c.1.1 0 .1 0 .2zM88.7 81l-.1.2c-.1-.1 0-.2.1-.2zM84.4 81.1c0-.1.2-.1.2 0s-.2.1-.2 0zM89.3 81.3c.1 0 .1.1 0 .1 0 .1-.1-.1 0-.1zM88.7 81.3v.1h-.1l.1-.1zM89.3 81.5c.1-.1.1.2.1.2l-.1-.2zM84.4 81.4c.1 0 .1.2 0 .2v-.2zM89.4 81.8c.1 0 .1.2 0 .2s-.1-.2 0-.2z" fill="#000"/><path d="M84.5 81.8c-.1.1-.2-.2-.1-.2l.1.2zM87 82c.1 0 .2 0 .1.1-.1.2-.1-.1-.1-.1zM87.7 82.2c.1-.2.2.1 0 .1v-.1zM86.3 82v0zM85.7 82.2c.1-.1.1.1 0 .1 0 0-.1-.1 0-.1zM88.3 82.5c0-.1 0-.2.1-.1l-.1.1zM87 82.5l.2.1-.2.2v-.3zM89 82.6c.1.2 0 .2 0 .1-.1-.1 0-.1 0-.1zM86.2 82.5l.1.3H86v-.2l.2-.1zM85.5 82.5l.1.1-.1.2-.1-.1.1-.2zM84.2 82.6l.1-.1c0-.1 0 0 0 0 .1.1 0 .1 0 .2l-.1-.1zM84.8 82.5c.2 0 .2.2 0 .2l-.1-.1.1-.1zM88.5 82.6l.1.2-.1.1-.1-.2.1-.1zM87.8 82.7c0-.1.1-.1.2 0v.2c-.1.1-.3 0-.2-.2zM87 86.2l-.1.1h-.1-.1v-.1H87M89.4 75v-.2-.1.3zM88 70.8c.2 0 .2.2 0 .2v-.2zM88 71.1v.2c-.1 0 0-.3 0-.2zM87.4 71.3c0-.1 0-.2.1-.1.1 0 0 .2-.1.1zM88.4 71.6l-.1-.1v-.1h.1v.2zM87.7 71.8l.1.1-.1.1c-.1 0-.1-.2 0-.2zM86.4 72V72l.1.1c.1 0 .1 0 0 .1l-.1-.1M86.6 72.6c-.1-.2.1-.2.1-.1l-.1.1zM89.1 73.5l-.1-.1.1-.1h.1c0 .1 0 .3-.1.2zM84.7 73.9c.1.1 0 .1 0 .1-.1 0 0-.2 0-.1zM88.6 74.4l.1-.2v.2c-.1.1-.1 0-.1 0zM87 74.4l-.1-.1.1-.1v.2zM86.6 75l.1-.2c.1.1 0 .2-.1.2zM83.5 75v.2c-.1 0 0-.2 0-.2zM86.2 75.3c.1 0 .1.2 0 .2s-.1-.2 0-.2zM86.3 76l.1-.1c.1.1 0 .2-.1.1zM87.6 76.2c-.1 0-.1-.2 0-.2l.1.1-.1.1zM90.4 76.5c-.1 0-.1-.1 0-.2h.1c.1.1-.1.3-.1.2zM90 76.5v-.1c0-.1.1-.1.1 0 .1.1-.1.2-.1.1M86.3 76.4c0-.2.1-.2.1-.1.1.1 0 .1-.1.1zM90.3 76.7s-.1.3-.2.1c-.1-.1.1-.3.2-.1zM85 76.9c.1.1 0 .2 0 .1v-.1zM88.3 77.3s-.1-.1 0-.1v-.1c.1.1 0 .2 0 .2zM90.1 78.6H90v-.1l.1-.1c0-.1.1 0 .1 0l-.1.2zM83 78.7v.3c-.2 0-.1-.4 0-.3zM90 79.3c.1-.1.2.1 0 .2v-.2zM88.7 79.2l-.1.2.1-.2zM88.5 79.5v.1c-.1.1-.1-.2 0-.1z" fill="#000"/><path d="M88.6 86.4l-.1.1h.2l.2-.1h-.3m-.3-.1H88v.1l.3.1v-.1c.1 0 0-.1 0-.1zm-3.3-.2h-.3l.1.1.1.1c.1 0 .2 0 .1-.1v-.1zm.5 0l-.1-.1-.2.2h.1c.1.1.1 0 .2 0h.1l-.1-.1zm3 .1l.2.1.1-.1h.1c-.1-.2-.3 0-.4 0zm-.8 0h-.1v-.1-.1h-.1c-.1.1 0 .2 0 .2h.1v.1h.2l-.1-.1m.6-.1s.1.1 0-.1h-.1l-.1.1h.2zM86 86h-.1c0 .1.1 0 .1 0 0-.1 0 0 0 0zm-1.5 0l-.2-.1.1.1.2.2-.1-.2zm3.4 0h-.2s-.1 0 0 0l.3.2-.1-.2zm-2.4 0h.3c0-.1-.3-.2-.3 0zm-.3-.1l-.2-.1c-.1 0 0 .1 0 .1l.2.1h.1l-.1-.1zm3.5.1h-.1H88.9c0-.1-.1 0-.1 0 0-.1-.1 0-.1 0zm.7-.1l-.2.2-.2.1v.1h.1l.2-.3h.1v-.1m.7.3s0 .2.1.1v-.1l.1-.2-.1-.1-.1.3zm-5.4-.4l-.1-.1s-.2-.1-.2 0l.1.2.3.1-.1-.2zm4.3 0v.2h.1v-.1h.1v-.1H89m-3-.1v.1l.2-.1H86zm-2-.1s0-.1 0 0v.2l.2-.1-.2-.1zm6.4.2V86.1l.1.1V86l-.1-.2zm-3.2-.2h-.1l.2.2s.1.2.1 0l-.2-.2zm-4-.1c-.1 0 0 .1 0 .2v.1s.1-.1 0-.2v-.1zm3.3 0l-.1.1v.1c-.1.1 0 .1.1 0l.1-.2h-.1m3.2.1l-.1.2-.1.2h.1l.1-.1v-.2-.1zm-2.7.2v-.1-.1l-.1-.1c0-.1-.1 0-.1 0h-.1v.1l-.1.4-.3.4-.2.2-.2.2-.3.2h-.1-.1l.1.1.1.1H85.9l.1.1v-.1l.2.1H87.2s0-.1.1 0h.1l.1-.1h.5v-.1l.1-.1h.1-.2-.2l-.4-.3-.1-.2-.1-.1-.1-.1-.1-.1V86v-.2zm-2.8-.5s-.2-.1-.2 0l.1.2h.1c.1 0 .2.1.1-.1l-.1-.1m5.3.1l-.1.2.2-.1v-.1h-.1zm.8-.1v.1l-.1.2.1.2.1-.2v-.2-.1h-.1zm-7.1-.2l.1.2v.2h.1l.1-.2v-.2l-.1-.1c0-.1 0 0 0 0l-.2.1zm.6-.2v.1s.2.1.2 0l-.2-.1zm6.7.6v.1c.1.1.1-.1.1-.1v-.3l-.1-.1c-.1 0-.1.2 0 .4zm-.5-.4V85.4l.1.1.1-.1v-.3l-.1-.1-.1.1m-6.3-.4v-.1s-.1 0 0 .1zm6.1.2l-.1.1h-.1v.2l.2-.3zm-6.7-.3l-.1.1v.5c0 .1.1 0 .1 0V85v-.3-.1zm6.9.3l-.1.1-.1.2v.2l.2-.1v-.1-.2-.2.1m-6.4-.4v.1h.1v-.1h-.1zm-.2 0l-.1-.1-.1-.1v.4l.1.1.1-.1v-.2m6.6.2v-.2.2zm.6.1l-.1-.3v-.1c-.1 0-.1.1 0 .1v.4l.1.1v-.2zm-.2 0l-.1-.4-.1.1v.5h.1c0 .2.1 0 .1 0v-.2m-.4-.5l-.2.1-.1.1h-.1l-.1.1-.1.1-.3.2-.2.1h-.1l-.1.1-.2.1h-.1l-.2.1H88l-.1.1h-.2-.1l-.1.1h-.1v.1l.1.1.1.1h.1l.2.2h.1l.2-.2.2.2.1-.2h.1c.1 0 .2-.1.2 0h.2v-.2h.3l.1-.2.1-.1v-.1-.1-.1l.2-.2.1-.1v-.1l.1-.1.1-.1v-.1c0-.1 0-.1 0 0m-6.9-.1V84v-.1l-.1.1v.4l.1-.2m7-.1l.1.2v-.1c.1 0 .1-.1 0-.1 0-.1 0-.1-.1 0zm-6.6-.1v-.2c-.1-.1-.1 0-.1.1v.4c.1.1.1-.2.1-.3zm-.2 0l.1-.3-.1-.1-.1.1v.3l.1.1V84zm.3-.4v.7l.1.1.1.1v.2l.2.2.1.2.1.1.1.1.1.1.1.1h.1l.1.1.1.1.2-.1h.1l.1.1h.1c0 .1.1 0 .2 0H85.8l.1-.1h.1v-.1h.3v-.1h-.1-.1l-.1-.1h-.2l-.2-.1h-.2l-.1-.2H85l-.3-.3-.1-.1h-.1l-.1-.1h-.1l-.1-.1-.2-.2-.1-.2-.1-.1-.1-.1v-.1l-.1-.1m6.8.2l-.1.2h.1c.1.1 0 0 0 0v-.2zm-7.3-.3l.1-.1s0-.1 0 0l-.1.1zm7.2.2c0-.1 0-.1 0 0zm-6.9-.5l-.1.1.1.1c.1.1.1 0 .1-.1l-.1-.1m-.2-.2l-.1.2c.1.1.1 0 .1-.1l.1-.1h-.1zm3.4.5h-.4-.2-.1-.1l-.2-.1h-.1-.1-.1-.1l-.2-.1h-.1-.1c-.1-.1-.2 0-.2 0l-.1-.1h-.1-.1-.2l-.1-.1h-.1l-.1-.1H83.5h-.1l.1.2.1.2.1.1v.1l.3.3.1.1.1.1v.1h.1v.1h.1l.1.1.1.1v.1h.1l.1.1.2.1.2.1.2.1h.1l.1.1h.4v.1l.3.1H86.6l.1-.1.1.1c.1-.1.2 0 .2.1 0-.1.1 0 .1 0h.1l.2-.1c0 .1 0 0 .1 0h.2l.1-.1h.4l.1-.1.2-.1h.1l.1-.1h.2l.1-.1.2-.1.1-.1.1-.1.2-.1.1-.1.1-.1.2-.2.1-.2h.1v-.1-.2c0-.1.1-.1 0-.2v-.1H90l-.2.1h-.3-.2c0 .1 0 .1-.1 0l-.1.1h-.2l-.3.1h-.3-.1H87.6l-.3.1h-.1l-.2-.1v.1l-.2-.1h-.2m3.3-.6l-.1-.2-.1-.1-.1-.1h-.1v-.1l.1.2v.1l.1.1.1.2h.2l-.1-.1zm-5.8-.7l-.3.2-.1.1s-.1.1 0 .1v.1h.1c0 .1 0 0 0 0h.1l.1-.2.1-.2.1-.1h-.1m5.3.2l-.1-.1.1.1zm-.4-.2l.1.3.1.1.1.1.1.3h.3l-.2-.3-.2-.2-.2-.2-.1-.1m.3 0h-.1v-.1h-.1L89 82v.1l.2.1.1.1v-.1m-4.5-.3l-.1.1h-.2l-.1.1-.1.1-.1.2h-.1l-.1.3.1.1.1.1c.1.1.1-.1.2-.1v-.1-.1h.1l.1-.2.1-.2.2-.2.1-.1h-.2m5.6 1.3V83v-.2l.1-.3v-.4l-.1-.1h-.1V83.2h.1zm-7.1-1.6v1l.2-.1v-.3l-.1-.3v-.2l-.1-.1m5.9 1.2l-.2-.2v-.2l-.1-.1h-.1v-.1l-.1-.1-.1-.1h-.1-.1v-.1l-.2-.1v.2h.2v.1l.1.1.1.2.1.1v.1l.2.4H89.2c.1 0 0-.2 0-.2m-3.7-1.1l-.2.1v.1l-.1.1H85v.1l-.2.1-.3.5.1.1.1.2h.2l.1-.3.1-.2v-.1h.1l.1-.1.1-.3h.1l.1-.1v-.1l.1-.1h-.2m2.2 0l.1.1.1.2.1.1v.2l.2.3v.2l.1.2.1.1.1-.1H88.8l-.1-.2-.2-.3v-.1l-.2-.2-.1-.2-.2-.1-.2-.1v-.1h-.1m-1.6-.2l-.1.1-.1.1-.1.1h-.1v.1l-.2.1-.2.5-.1.2-.2.2h.4v.1h.1l.1.1V83l.1-.3.2-.3.1-.2v-.1l.1-.3.2-.2-.2-.1zm2.1 1.5l-.1-.3-.1-.3v-.1l-.1-.1-.1-.1V82l-.2-.2v-.1l-.1-.1h-.1-.1l.1.2v.2l.1.1v.2l.1.3v.6h.1l.1-.1h.1l.1-.1h.2v.1c.1 0 0-.1 0-.1m-.7 0v-.2l-.1-.2v-.2l-.1-.3V82v-.1l-.1-.1-.1-.2-.1-.1-.2.1v.2l-.2.5v.2l-.1.2V83.3l.1-.1.1-.2h.5l.1.1h.1l.1.1c.1 0 0-.1 0-.2m-.9-1.4c0-.1-.1-.1-.1 0h-.1l-.1.2v.1l-.1.1h-.1l-.1.2v.4l-.1.1-.1.3h.4l.1.1.1.1V83v-.2-.2l.1-.3v-.1l.1-.2.1-.2v-.1l-.1-.1m4 1v-.1l.1-.2V82l-.1-.3h-.2-.1v.1l-.1.2-.1.2v.1l.1.3v-.5l.1-.1.1-.1.1.1.1.2v.4m-7-.6v-.3l-.1-.2-.2-.1-.1.1-.1.1v.4l.1.2v-.1-.1-.2l.2-.4.1.2v.2l.1.2m4-.7l-.1-.1h-.2l-.3-.3v-.3-.3-.1c-.1 0-.2-.1-.2 0h-.1v.1l-.1.1.1.2v.2l-.1.2-.1.2h-.1-.1l-.2.1-.1.1h.1l.2.1.2-.1h.5l.3.1h.5l-.2-.2m.4.2l.2.1h.2l.1.1.1-.1.1.1v.1h.3v.2h.2l.2.1v.1l.1.1.2.2.1.1.2.1v.2l.1-.1-.1-.2v-.3l.1-.3.3-.5h.1l.1.1.1.1v.1h.1v.8l-.1.4h-.1v.2l-.2.3.1.1v.1l.1.3v.3l.1.3v.5.7l-.1.1v.4l-.1.2s0 .1 0 0l-.1-.1v-.2-.1-.1l-.1.2v.2l-.1.2-.1-.1v-.1l-.1-.2V86v-.2h.1l-.1-.1v-.3l-.2.2v.4h-.1v.1l-.1.1-.1.1h-.1v-.1l-.1.1-.1.1H89v.1l-.2.1h-.1-.1-.1-.1-.1-.1-.1-.1v-.1l-.1-.1-.1.1-.3-.1-.1-.2-.1-.2-.1-.1-.1-.1-.1-.1.1.3c.1 0 0 0 0 0l.1.1v.2l.2.2.2.2.1.1h.5l.1.1.1.1c.1.1 0 .2-.1.2h-.1l-.2.1h-.2c0 .1-.1 0-.1 0l-.1.1h-.4-.8-.1H86h-.1l-.2-.1h-.1-.1-.1l-.1-.1-.1-.2.1-.1.2-.1h.1l.1-.1h.1l.1-.1h.1l.2-.2.2-.2.1-.3s-.1.1-.2 0v-.1h-.1v.1l-.1.1-.1.2h-.2-.1v.1h-.2l-.2.1v-.1h-.1l-.2.1h-.2l-.1-.1-.1.1-.1-.1-.2-.2-.1-.1h-.1l-.1-.2v-.1l-.1-.2h-.1l-.1-.2v-.1h-.1v-.1-.1-.2l-.1-.2v.1c-.1 0 0 .1 0 .1v.2c.1.2 0 .3 0 .4v.2l-.1.1v.1h-.1v.2l-.1.1h-.1V86v-.2l-.1-.1v-.2-.1l-.1-.2V85v-.2-.1c-.1-.1 0-.1 0-.2l-.1-.3.1-.2h.1c0-.1-.1-.2 0-.2v-.2-.1-.1-.1-.1-.1-.1l.2-.1c0-.1.1-.1 0-.2l-.1-.3-.1-.2V82v-.2-.3l.1-.1.1-.1.1-.1h.1l.1.1.2.2v.8l.3-.1.1-.2h.2l.1-.1h.1l.2-.1.2-.1h.1l.3-.1h-.1v-.2h.1v.2l.1-.1h.4v-.1l.1-.1.1-.1.2-.2H86.5c.1-.2.1-.3 0-.4v-.3l.2-.3H87l.1.1v.1l.1.1-.1.4.1.3h.2l.4.1.2.2v.2M63 51.6v38.9c.1.2 0 .7 0 .8V93l.1.8v1.9l.1 1.8v1.8l-.1 1.4c-.1.5.1 1-.1 1.4V114h-3l-1.3-.1h-.9l-1.3.1H40.9v-.3l.1-4.8c0-.8-.2-1.5 0-2.2l-.1-1.7v-.9l-.1-5.7v-3.8-1.1-1.1-.4c.2-.6 0-1.3 0-2v-4.1-.9-.7-1-2l.1-4.3.1-1v-.8-.6-2.2-1.9l-.1-.8c0-.9.1-1.9-.1-2.9.2-.3.2-.8.1-1.2 0-.2.1-.6 0-.8-.1-.1-.1-.2 0-.2l.1-1.1-.2-.9.2-3.9v-1.2l-.1-2.1v-4.7h.3l1-.1.9-.1h.5l.6-.1c.5-.1 1 0 1.5-.2l1.7-.2 1.7-.1.8-.1c.1.1.6 0 .8 0l1.3-.2 4-.4 1.6-.2h1.9l.7-.2h.8l.8-.1c.7 0 1 0 .8.2l-.2.1-1.8.3-3.8.4-2.6.3c-.9 0-1.8 0-2.7.2l-2.6.3-2 .2-2.1.2-1.3.1-2.3.3.2-.3v.3l.1 3.6v4.5 1.8l-.1 1.1.1 1-.1.8v.4l.1 1.4V72l.1 1.7-.1 1.4v1.4 2l-.1 1.1v.2l.1 1.5-.1 2v14.8l.1 1v3.2 7.1l.1.6v.3c-.1.8-.1.8 0 1.6V113.7l-.4-.4h2.2l1.6.1H52.2l4.4-.1H62.7l-.4.4.1-2.8v-3.1l-.1-1.3v-.5l.1-.9-.1-.9v-.8-.8l.2-2.1v-2l-.1-.9.1-1.1V95l-.1-.6v-3.7l.1-.8-.1-.8.1-1.1v-1.4l-.1-1.4.1-.4-.1-1.6V83v-1.8l.1-1.9v-2.2V65v-.9-.2-1.4-.5-1.3-1.1-.3-2.5c-.1-.2 0-.6 0-.8v-2.1l-.1-1.9.1-.9v-.3l.1-1.8.2-.2v.4l.2.9v1.5z" fill="#000"/><path d="M64 47.5v67.7H42.5V49.9L64 47.5z" fill="#fff"/><path d="M64.2 50.4v6.1l.1 1.5v9.8l.1 6.9-.1 2.3v7.7c0 .5-.1 1.1 0 1.6v2.3l.1 1.9-.1.9.1.9-.1.9.1.8v1.9l.1 1.9v1.9l-.1 1.4v1.5c-.1 0 0 0 0 .1l-.1 2.9v5.1l-.1 1.4v.5c0 .4.2.8.1 1.2l-.1 1.2v.4h-1.5l-.9.1-1.3-.1h-.9l-1.3.1h-5.5l-1.5.1H51l-1.6-.1-1.7.1H43l-.5-.1h-.4v-.3l.1-5V106.3l-.1-1v-5.9l-.1-3.9.1-1.1c.1-.3.1-.8-.1-1.2V93c.2-.8 0-1.6 0-2.3l.1-4.2c0-.3.1-.6-.1-.9V85v-1.1l.1-1v-1.1l.1-4.5v-.9l.1-.9v-.6-2.3l-.1-2v-.7l-.1-3.1.1-1.2-.1-.9v-.2l.1-1.1-.1-.9.1-4.1v-1.2V55v-2l-.1-3.1v-.3l.3-.1h.4l1-.1h.5l.6-.1c.5-.2 1 0 1.5-.3l1.8-.1 1.8-.2h.7l.9-.1 1.4-.2 4-.4 1.7-.1 1.8-.2h.2l.7-.1.8-.1h.8c.8-.1 1.1 0 1 .1l-.4.1c-.8.3-.8.3-1.8.3l-3.9.5-2.7.2-2.8.3-2.7.4-2 .1-2.2.3-1.3.1-1.7.2.2-.2v.9l.1 3.7v2.9V59.2 61l-.1 1.1.1 1.2-.1.7v.4l.1 1.5V72.1c.2.6.1 1.3.1 1.9l-.1 1.4v1.4 2.1l-.1 1.1v.3l.1 1.5-.1 2.1v16.3l.1.4v2.9 7.3l.1.6v.3 3.5l-.4-.4h2.2l1.6.2h4.9c.4-.2.8-.2 1.2 0h.2c.4-.2.8-.1 1.2-.1l4.6-.1h.7c.3.1.5 0 .8 0h.7c.7.2 1.4.1 2.1 0H64l-.4.4v-.4c.1-1.1 0-2.1 0-3.2v-3.2-1.3-.4-1-1-1.7l.2-2v-2.2l-.1-.8v-1.2c.1-.6.1-1.1 0-1.6V90.8l.1-.8-.1-.8.1-1.2-.1-1.4v-1.5-.4V83v-.1V81v-2-2.2l.1-3.7v-8.9c0-.2-.1-.5 0-.8V61.6v-.5-1.3l-.1-1.1v-.4c.2-.9 0-1.6.1-2.5v-.9l-.1-1.1v-1-2-.8l.1-.4c-.1-.6 0-1.6.1-1.9l.1-.2.1.5.1 1v1.4z" fill="#000"/><path d="M50.8 92.2l-.2.3-.2.4c-.2.3-.4.7-.4 1l-.3.9-.1.7c0 .2 0 .4-.2.4-.2-.1-.1-.5-.1-.6 0-.7 0-1.4.2-2.1l.8-1.8.3-.4.1-.5.3-.9c.4-1.2 1.2-1.9 2-2 1-.1 1.8.4 2.3 1.4.5 1.2.5 2.7 0 4-.5 1-1.2 1.6-2 1.7-1 .1-1.8-.5-2.3-1.7l-.2-.8m3.9-3.1c-.7-.5-1.5-.5-2.2-.2-.8.2-1.4.9-1.5 2.1 0 1 .3 2 1 2.3.7.4 1.6.4 2.3 0 .5-.3.9-.9 1-1.7.2-1 0-2-.6-2.5M55.6 74.2v4l-.1.8.1.7c.1.4-.4.3-.6.4-.2 0-.5.2-.7.1-.1-.1-.1-.2 0-.4l.3-.1c.4 0 .6-.2.6-.7v-.7-.9l-3.4.3h-.7l-.1.5v.5c-.1.3-.3.1-.3-.1v-.9-1.1-.7l.1-.2c.2 0 .2.1.2.3v.7l.5.1 1.4-.2c.7 0 1.4 0 2.1-.2h.2V76v-.6c0-.4.1-.9-.2-1.1l-.6-.1c-.3-.2-.1-.4 0-.5l.8.1c.2 0 .5 0 .4.4M55.2 82.4c-.2 0-.2.3-.4.4l-.5.5-1 1 1.3 1.1c.1.1.6.7.7.1v-.4c.3-.2.3.4.3.6v1l-.1.6c-.3.2-.2-.3-.2-.6l-.5-.5-1.3-1.1-.6-.4c-.3-.2-.6-.1-.9-.1l-.7.1c-.1 0-.3 0-.3.3v.4l-.1.5c-.2 0-.3-.3-.2-.5v-1.7c0-.2-.1-1.1.3-1v.8l.1.1.2.1h.7l.7-.1c.3-.1.4-.3.6-.6l.7-.6.6-.6.5-.5c.2-.2.2-.3.2-.6 0-.2.2-.2.3 0l-.1.9.1 1.2-.1.4c-.1.1-.2 0-.2-.1l-.1-.7M55.6 66.2c0 .1 0 .4-.2.4l-.1-.4-.1-.5h-.5l-3.1.3-.6.1v.9c-.2.1-.3-.1-.3-.3v-2l.1-.5c.2 0 .2.2.2.4v.4h1.2l2.3-.2c.3 0 .6 0 .7-.3 0-.2.1-1 .3-.8v1.1l.1 1.4M55.2 101c.1-.1 0-.8.2-.8s.2.3.2.5l-.1.9c0 .2.2 1.1-.1 1.1-.3 0 0-.7-.2-.9l-.5-.1-.8.1-1.5.1c-.4 0-.9 0-1.2-.5l-.5-1.4c-.1-1-.1-2.5.5-3.4.2-.4.8-.6 1.1-.6H55c.2-.1.2 0 .3-.2v-.6c0-.2.1-.2.2-.2l.1 1v1.1c0 .2.1.8-.2.8-.3 0 0-.9-.2-.9h-3c-.3 0-.6.2-.8.6-.4.6-.4 1.6-.4 2.4l.4 1c.3.3.6.3.9.3l1.5-.1h.8c.2 0 .4 0 .6-.2M55.1 104.8c-.5-.1-1.1 0-1.6 0l-.1 1v.6c0 .2.1.3.2.3.1.1.4.1.4.3.2.2-.1.3-.2.3-.3-.1-.5 0-.8 0 0 0-.6.1-.6-.1-.1-.4.4-.4.6-.5v-.7-1.2l-1.5.1c-.2 0-.3 0-.3.2l-.1.8c0 .4-.1 1.1.1 1.5.1.4.6.1.8.4.2.2 0 .4-.1.4h-.5c-.2 0-.4 0-.6-.2l-.1-.5v-1.9-2.4c0-.2.1-.4.3-.2v.6l.1.2c.1.2.2.1.3.1h.8l1.7-.1h.7c.2 0 .4.1.6-.1.1-.2-.1-.8.1-.9.2-.1.2.2.2.4V107.2l.1.3c-.1.2-.4.2-.6.2-.1 0-.8.3-.8-.1s.7-.4.8-.6c.2-.2.1-.7.1-1v-1.2M55.4 55.7c.1-.1.1-.1.2.1l-.1.6v1.1l.1 2.1c-.1 1.4-.6 2.7-1.6 3.3-.8.6-1.9.3-2.5-.5-.4-.4-.6-.8-.7-1.4l-.1-2v-1.3-.7l.1-.8c0-.2.2-.1.2.1v.5c0 .4.5.2.7.2l2.4-.3.9-.1c.5-.1.1-.6.4-.9zm-.2 1.9l-3.2.3-.5.1h-.4l-.1.8V60c0 .5.1 1 .4 1.4.3.4.7.6 1.1.6.9.2 1.8 0 2.4-1.2.2-.4.3-1 .3-1.5v-.9c0-.1.1-.8 0-.8M52.9 69.8l-1.6.2c-.1 0-.3 0-.3.2v.6c0 .2-.1.3-.2.2-.2 0-.1-.5-.1-.7l.1-.9-.1-1c0-.2.1-.4.3-.3v.8l.3.1h.8l1.7-.2 1.2-.1.2-.1.1-.6.1-.3c.2 0 .1.3.1.4v1.7l-.1 1.7c-.3 1.1-1.1 1.6-1.8 1.1-.7-.6-.8-1.7-.7-2.8m.4 1.5c.3.5.8.7 1.2.4.2-.2.5-.4.5-.7.2-.3.2-.7.2-1v-.2l-.1-.2-.4.1h-1l-.4.1-.1.2v.3l.1 1z" fill="#000"/><path d="M80.4 128.5c-2.2 1-4.4 1.5-6.4 2.7h-.2c-1.4 1.6-3.8 1.8-6 1.7-7-.2-14.3-1.4-20.8 1.2-6 2.5-10.2 7.8-13.5 13.3-8.6 13.9-13.4 29.8-19.9 44.9 0 0-32.1 2.3-28.3-25.3 0 0 16.9-15.4 23-22.7 6-7.3 21.6-25.6 21.6-25.6l3.3-4.5c.7-1 2.2-6.6 10.3-9.2 8.1-2.5 13.6-2.2 17.7-3.7s16-7.1 18.8-3.4c2.9 3.7.5 6.8-13.7 11.5-3 1-5.3 3.4-8.3 4.1l.2.2 2.4-1c.8 2 2.2 1.8 4.1 1.9 1.8.1 3.7.1 5.5-.3 3-.5 5.9-1.7 9-1.5H81c.8-.2 1.6-.6 2.4-1 2.3-1.1 5.1-1.5 7.6-2.5l4-2.1c3.5-1.9 7.6-3.5 11.5-2.4 1 .3 2.1.9 2.4 2 .1.8-.3 1.7-.9 2.3l.8-.2c.9-.4 2 .2 2.2 1.1.3 1-.2 2-1 2.6-.6.7-1.5 1.1-2.4 1.4-3.6 1.6-7 3.4-9.8 6-.9.9-1.8 1.8-2.8 2.4-1.7 1-3.6 1.1-5.4 1.6-3.3 1-6.1 3.2-9.2 4.5" fill="#fff"/><path d="M74 131.5c-.7.9-1.9 1.4-3 1.5-1.2.3-2.3.2-3.5.2-2.4 0-4.8-.2-7.1-.3h-3.5l-3.4.1-.5.1c-2.8.3-5.6 1.2-8 2.5-2.8 1.5-5 3.7-7 6.1-3.2 4.1-5.8 8.6-8.2 13.3l-2.2 4.3-2 4.2-.2.6-.6 1.5-2.1 5.1-.4.9-1.5 3.8c-.5 1.2-1 2.3-1.3 3.5L19 180l-1.4 3.6-1.6 4.2-.7 1.7-.8 1.9-.5 1v.3h-1.2l-1.8.1-4.5-.3c-1.5-.1-2.8-.4-4.2-.7l-4.3-1.2-3-1.4c-1-.6-2-1.2-2.7-1.8l-.3-.2c-1.7-1.3-3.3-3-4.5-4.9-1-1.7-1.8-3.5-2.2-5.3-.3-1-.3-2-.5-3-.1-1-.2-1.9-.1-2.8v-1.7c0-.5.1-1.1.3-1.5v-1.1l.1-.1c.9-.7 1.3-1.4 2.1-2l2.1-1.8 2.3-2.2 1.4-1.5c.7-.4 1.5-1.3 2.2-1.9l1.5-1.4c.6-.8 1.3-1.4 2.1-2.1 1-1.1 2.2-2.1 3.1-3.2l1.5-1.6 1.4-1.4 2.5-2.7 2.1-2.7.6-.6 2.2-2.7 2.3-2.8 2.5-2.9 1.4-1.7 1.6-1.8 1.5-1.8 8-9.3c1-1.4 2-2.9 3.1-4.1l.9-1.7.9-1.7c.4-.7.8-1.2 1.3-1.7 1.5-1.8 3.4-3.1 5.6-4 2.1-.9 4.3-1.5 6.5-2 2.9-.7 5.8-1.1 8.7-1.5l2.5-.5c.7 0 1.8-.4 2.6-.8l.6-.2c1.6-.5 3.1-1.3 4.6-1.9 3.1-1.1 6.2-2.1 9.5-2.3.7-.1 1.5 0 2.1.1l.8.3.8.5c.7.5 1.2 1.5 1.4 2.2.2.8.2 1.7-.3 2.5-.4.8-1 1.5-1.6 2-2.9 2.1-6.2 3.3-9.5 4.5l-1.8.6-2 .6-1.2.6c-1.6.8-3.1 1.8-4.5 2.6-.7.4-1.6.7-2.5 1l.1-.5.3.2-.3-.1 1.5-.6.9-.4.3-.1.2.3.2.6c.5.8 1.6 1 2.8 1.1 1.2 0 2.3.1 3.4-.1.8.1 1.8 0 2.6-.2.7 0 1.5-.2 2-.4l.5-.2 2.5-.5c.7-.2 1.3-.4 2.2-.5h2.3c.8.1 1.5.1 2.1-.2l2.1-.9 2.1-.8 2.7-.7c1.6-.4 3-1.1 4.5-1.8 1.4-.9 3-1.7 4.3-2.4 2.4-1.1 5.2-1.8 7.9-1.4.7 0 1.5.2 2.1.5l1 .6c.4.2.7.7.9 1.2.4 1.2-.2 2.2-1 2.8l-.3-.5.7-.3h.1-.1c1.7-.7 3.4 1.2 2.8 2.6-.3 1.5-1.7 2.4-2.8 2.9l-1.7.8c-.4.2-1.3.5-1.7.8l-2.6 1.4c-1.3.8-2.6 1.6-3.6 2.6-1.2.9-2.2 2.1-3.5 3-1.2.8-2.5 1-3.9 1.3-1.3.2-2.6.6-3.8 1.1l-.3.1-1.4.8c-.6.3-1.4.6-1.7.9l-1.6.8c-1.5.8-2.6 1.1-2.5.8l.4-.3L84 126c1.4-.7 2.7-1.4 4.2-2 1.5-.5 3-.7 4.5-1.1.9-.2 1.9-.5 2.6-1.1l2.3-2.1c1.6-1.4 3.5-2.6 5.4-3.7 1.7-1 3.6-1.9 5.5-2.7.6-.3 1.3-.7 1.7-1.3.5-.5.8-1.3.5-2-.1-.6-1.1-1.2-1.7-.9v.1h-.1l-.9.2-1 .2.8-.7.7-.9c.5-.8.1-1.8-.6-2.3-1.7-1-3.9-1.1-5.9-.8-2.7.4-5.2 1.6-7.6 3-1.3.8-2.6 1.5-4 2.1l-2 .5-2.7.8-1.2.5c-1.3.2-2.5 1.4-4.1 1.4L78 113l-2.5.5-1.8.3-.9.2c-.9.4-2.1.6-3.2.8-1.3.2-2.6.2-3.9.2h-2c-.7-.1-1.4-.1-2.1-.5-.6-.4-1-1-1.3-1.7l.5.2-2.4 1-.2.2-.2-.2-.3-.2-.7-.5.9-.3 1.4-.3 3.6-2.1c.9-.6 1.9-1.1 2.9-1.5l3.2-1 4.2-1.6 2.3-1 .6-.3c.9-.6 2.1-1.2 2.9-1.9 1.2-.9 2.2-2.3 1.7-3.7-.2-.6-.5-1.1-.9-1.6-.4-.4-.9-.7-1.5-.9-.9-.2-1.8-.1-2.7-.1-.8 0-1.8.3-2.6.5l-2.6.7-2.8.9-2.6 1.1-3 1.2-3 .8c-2.7.6-5.5.9-8.2 1.4l-2.3.4c-.7.2-1.5.3-2.2.6l-.9.3-2 .5c-.4.3-1.4.5-2 .8l-1.9 1.1c-1.2.6-2.1 1.5-3 2.4l-.8 1-.4.5-1.3 2.3c-.2.4-.4.9-.7 1.2l-.8 1.1c-1.1 1.5-2.1 3-3.3 4.3l-.8 1.1-.4.5-2.4 2.9-1 1.1-2.3 2.9-2.7 3-2.4 2.7-6.3 7.5-.9.9c-.4.8-.9 1.4-1.6 2l-.4.3c-.4.7-1 1.5-1.7 2.2-2.3 2.5-4.7 5-7.2 7.4l-1.1 1.1-1.2 1.2-1.2 1.1-3.4 3.2-2.9 2.8c-1.3 1-2.5 2.2-3.7 3.3l.1-.2-.2 2.1c-.2 2.4-.1 4.8.5 7.1l.3 1.5.5 1.3c.2.2.2.6.4.9l1 1.9c.3.6.8 1.1 1.3 1.7l1.2 1.3 1.4 1.3c1.1 1 2.3 1.8 3.9 2.6 1.4.7 3 1.2 4.5 1.7l2 .5 2.5.5c1.3.2 2.4.4 3.6.4l1.4.1h3.6l-.3.2 1.9-4.6.8-1.8.6-1.6 1.1-2.5 1.1-3.1 1.2-3 .3-.9c.4-1.1 1-2.3 1.3-3.4l.2-.5 1.6-3.9 1.8-4.1 2.1-4.6c1.3-2.5 2.5-5 3.9-7.4 1.4-2.5 2.8-5 4.5-7.3l2.3-2.9c.9-1.1 1.9-2.1 3-3l3.1-2.4 1.7-.8.6-.3c1-.5 2-.9 3.2-1.1l1.1-.3 3-.4c1-.1 2-.1 2.8-.3h.7c1.8.2 4 0 5.8.3l2 .1 2.6.1 2.4-.1c1.3-.1 2.7-.5 3.4-1.5l.2-.2.2.1h.2-.2c.4-.3 1.2-.8 1.9-.9l.6-.2c1.5-.7 3.4-1.2 3.8-1.3.3 0 .3.1.2.3l-1.1.6-2.2 1c-.9.3-1.8.7-2.8 1.3H74h-.3l.3-.1z" fill="#000"/><path d="M107.6 109.8c-.1.2-.4.2-.6.3l-.6.3-.3.2-.2.2h-.1l-.7.2-.8.4c-.4.3-.9.4-1.3.6l-.5.2c-.1 0-.2.2-.4.1l-.1.1v.1c-.3 0-.3 0-.5.2h-.1l-.4.2-.2.1-.1.1-.3.2-.4.2-.2.1-.1.1-.2.1-.1.1-.4.2c0 .1-.1.2-.3.2l-.3.3h-.3c-.1.1-.1.2-.3.1v.1l-.6.2-.9.6-.3.1v.1l-.2.2h-.3l-.2.2-.1.2h-.3l-.2.1-.2.2-.3.3-.2.1-.2.1-.2.2-.2.2-.1.1-.3.1c0 .2-.2.2-.3.2l-.3.2c-.1 0 0 .2-.1.1l-.3.1-.1.1c-.4.1-.7.5-1.1.5-.1.1-.2.3-.4.3l-.3.2-.1.1-1.2.6-.8.4s0 .1-.2 0l-.2.1-.1.1c-.2-.1-.3.2-.5.2s-.5 0-.8.2l-.2.1c0-.1 0 0-.1 0l-.2.1h-.2l-.3.1-.9.2H84h-.1c0-.1-.1 0-.1 0l-.5.1c-.1.2-.3.1-.3.2h-.2c-.2.1-.5.1-.6.3h-.3l-.2.1h-.3l-.1.1c-.3.1-.6 0-.9.2-.1-.1-.2-.1-.2 0l-.5.1-.4.2-.7.2s-.1.1-.2 0l-.1.1-.1.1c0 .1-.2-.1-.2.1l-.4.1-.3.1H77v.1l-.3.2-.7.3-.4.1-.4.1-.1.1H75l-.2.1c-.2.1-.3 0-.4-.2l-.1-.1c.1-.4.1-.3.3-.4l.8-.4c.2.1.3-.1.6-.2l.5-.1c.1-.2.3-.3.5-.3l.5-.1.4-.1.3-.1.5-.2.7-.3.4-.2h.5l.1-.1c.1.1.3 0 .4 0l.2-.1.2-.1.2.1.1-.1.3-.1.7-.2.5-.2.4-.2h1c.1 0 .2-.2.3 0v-.1l.3-.1.5-.1.3-.1c.1 0 .2-.1.2 0l.3-.2h.2l.3-.1.2-.1.3-.2h.3l.7-.3.2-.1.1-.1.1-.1.2-.1h.1l.2-.2c.2.1.2-.1.3-.1h.2c.3-.4.6-.4.9-.6l.1-.1v-.1c.2 0 .2 0 .3-.2h.1l.3-.2.3-.1.3-.2.8-.5h.2c0-.1 0-.2.1-.1l.1-.1.2-.1.7-.7h.2l.1-.1.1-.1.4-.2c.1-.1.1-.2.3-.2l.6-.4.6-.3.2-.2v-.1h.2l.2-.2.1-.2h.7l.4-.3.1-.1.2-.1c.2 0 .3-.1.3-.2l.2-.1.6-.4h.2l.2-.1.2-.1.2-.2c.1-.1.2 0 .3-.2h.1c.1 0 .2 0 .2-.2h.1l.4-.2.4-.1.4-.2.7-.3.7-.3.3-.2.4-.2.3-.1.2-.1h.1l.2-.1h.2l.2-.2c.1 0 .2 0 .2-.2h.1c.1.2.2-.2.5-.2 0-.1.1 0 .1 0l.2-.2.2-.1.3-.3h.2c.1-.1.3-.1.4 0 .1 0 .2 0 .2.2v.4l-.4.2z" fill="#000"/></g><path d="M61.9 177.6c-2.8-.2-5.7-.7-8.8-1.2-1.5-.3-3.1-.5-4.6-.9l-4.6-1.2-4.5-1.4c-1.4-.5-2.9-1.3-4.3-1.7l-.6-.3c-3.4-1.7-6.8-3.7-9.6-6.2-3.3-2.7-6.3-5.9-8.8-9.3-1.1-1.4-2-2.9-3-4.4l-2.4-4.5C9 143.3 8 140 6.8 136.8c-.7-2.1-1.4-4.2-1.8-6.4-.4-1.8-1-4.1-1.2-6l-.2-.9-.4-2c-.6-4-.5-4-1.1-7.2L2 113l-.5-5.5c-.1-1.6-.1-3.4-.4-4.9L1 101l-.2-5.2C.7 93.9.8 91.9.6 90l.1-2.6-.1-2.7.2-2.7-.1-2.2L1 74l.2-5.6.6-5.8c.1-1.5.4-2.8.6-4.2.2-1.4.3-3 .7-4.2l.1-.3.8-4.3 1-4.3c1.3-4.9 3-9.8 5.1-14.4L11 29l1.1-1.9.7-1.1c.8-1.1 1.2-2.3 2-3.3l2.3-2.9 2.9-3.2 1.8-1.9 3-2.4 2.2-1.6c1.1-.8 2.3-1.5 3.5-2.1.8-.6 1.7-1 2.6-1.4l2.7-1.3 2.7-1.1L41 4l4.9-1.3 4.5-1.1.9-.1c1.6-.2 3-.3 4.7-.7l4.8-.4L66 .1c1.1.1 1.7-.1 3-.1h3l3.3.1c5.4.4 10.9.6 16.3 1.5 2.3.4 4.7.7 6.8 1.4 1.6.2 3.5.9 5 1.3l2.6.7c5.7 2.1 11 5.1 15.6 9 3 2.6 5.7 5.5 8.1 8.7.6.9 1.3 1.7 1.8 2.8l1.9 3.2.4.7 2.8 6c1.6 4 2.7 8.1 3.7 12.2.3.9.4 1.9.7 2.6 0 .7.2 1.2.4 2 .3.8.6 2.3.6 3.1 0 1.1.3 2 .4 3l.5 3.2c.5 4.5.8 9.1 1.1 13.5V82.3c0 2.3 0 4.7.2 6.7v8.2c-.1 3.1-.4 6.2-.4 9.1l-.4 3.7c-.1.8-.3 1.9-.2 2.6l-.1.6-.5 3.3-.3 2.9c-.6 4-1.5 7.8-2.5 11.8-.4 1-.7 2.2-1 3.4-.7 2.1-1.1 4.2-2 6.3l-1.3 3-1.2 2.9c-1.4 3.2-3.3 6.2-5.3 9.1l-1.8 2.1c-.2 0-.8.8-1 1-.2.6-.8 1-1.2 1.5-1 1.1-2.3 2-3.4 3.2l-4.1 3.2-4.5 2.7c-.7.4-1.4.8-2.2 1l-2.3 1.1c-1.2.6-2.5 1-3.7 1.5-3.8 1.3-7.8 2.3-11.8 3l-5.2.7c-1.8.1-3.6.4-5.3.4l-.5.1-2 .2h-2.7c-1 .2-1.7.1-2.4.1-2.3 0-3.6-.3-3.4-.6l.7-.2c1.9-.4 2-.3 5.1-.5 4.1-.1 8-.3 12-.9 2.7-.2 5.4-.8 8-1.4l4.1-.9c1.4-.5 2.7-.8 4-1.4 2.5-1.1 5-2.1 7.3-3.4l2.7-1.5 2.6-1.7c.8-.6 1.7-1.2 2.5-2 .8-.7 1.7-1.3 2.4-2.1l1.5-1.3 1.2-1.4c1.7-2.1 3.4-4.4 4.8-6.6 1.8-3.1 3.5-6.4 4.8-9.8.6-1.8 1.3-3.6 1.8-5.5l1-2.5.9-3.5.3-1.8c.6-1.7.9-3.6 1.2-5.4.3-1.1.6-2.3.6-3.1l.5-3.3.4-2.4.1-1.1c0-1.4.3-2.9.4-4.3l.6-10.2c.2-2.9 0-5.6.1-8.5L143 85v-4.3-4.3c0-1.8-.3-4-.4-6 0-1.1-.3-2.4-.2-3.4l-.1-.8c-.3-1.4-.4-3.2-.6-4.5-.1-2.1-.5-4.1-.8-6.2l-1-5-.8-3.6-.9-3.4-1.1-3.3-1.3-3.6-1.5-3.6c-.5-1.3-1.3-2.5-1.9-3.7-.5-1.2-1.2-2.3-1.8-3.4-2-3.1-4.4-5.9-6.9-8.5-.8-.6-1.4-1.4-2.2-2.1l-2.4-1.9-.9-.6c-.8-.5-1.3-1.1-2.2-1.6-.7-.3-1.7-1-2.5-1.5l-2.7-1.3c-1.5-.9-3.2-1.4-4.8-2l-1.6-.6-.8-.3C99 4.2 94.4 3 89.7 2.5L88 2.3l-.9-.1-5-.4-1.9-.1c-1.6-.1-3.2-.2-4.9-.1L70 1.4c-1.6-.1-3.2-.2-4.9-.1-4.3.2-8.6.6-12.9 1.2l-1.5.3c-1.2.3-2.2.7-3.5.6l-.5.2c-1 .4-2.4.6-3.5.9-4.4 1.3-8.5 3.1-12.5 5.2-.7.3-1.4.9-1.8 1.1-.9.4-1.1.8-1.8 1.2l-1.7 1.3c-.9.5-1.7 1.2-2.5 1.9l-2.1 2.1c-1.3 1.3-2.3 2.7-3.4 3.9-2 2.4-3.6 5.1-5.1 7.8-1.4 2.8-2.7 5.8-3.8 8.8-.4 1.2-.9 2.6-1.1 3.8L7 42.8l-.8 2.8-.6 2.9-.4 2.3c0 .6-.2 1.6-.5 2.5-.5 1.8-1 3.7-1.3 6.1l-.7 6.4-.1 2.7-.3 3.4C2.2 73.5 2 75 2 76.6v1.9l-.1 11.2c0 .9.1 1.9-.1 2.6.2.7.2 1.6.2 2.4v3.6l.3 4.2c.1 1.3.1 2.9.3 4.3l.1 1.2c.1 1.7.2 3.4.5 4.9l.1.6c0 1.9.5 3.7.7 5.5l1 5.8c.4 2.2 1 4.5 1.5 6.5.8 3.7 2 7.1 3.4 10.5 1.3 3.4 3.1 6.8 5.1 9.9.8 1.4 1.8 2.7 2.8 4 .5.7 1.2 1.3 1.7 2.1l1.8 2 3.7 3.5 1.9 1.5.6.5c1.3.7 2.5 1.6 3.7 2.4l1.3.8c1.2.8 2.4 1.1 3.5 1.7 1.2.5 2.4 1.1 3.4 1.3l.9.4c2.1 1.1 4.9 1.4 7.2 2.2.9.1 1.9.5 2.6.6l3.3.6 3.2.4c1.9.3 3.9.5 5.8.6.6-.1 1.9 0 2.7.2h.9c2.1.1 4.7.2 5.3.5.3.1.3.3 0 .5l-1.7.1-3.1.2-4.6-.2z" fill="#000"/></svg>