<svg width="39" height="261" viewBox="0 0 39 261" fill="none" xmlns="http://www.w3.org/2000/svg">
<path d="M38.3163 58.0535V0.834595H1.26807V58.0535M38.3163 58.0535C38.3163 58.0535 35.4158 60.5234 20.2038 60.5234C8.69253 60.5234 2.98683 58.7416 1.26807 58.0535M38.3163 58.0535V71.4072M1.26807 58.0535V71.4072M1.26807 71.4072V257.278C1.26807 257.278 3.78121 260.225 20.2038 260.15C36.6264 260.074 38.3163 257.278 38.3163 257.278V71.4072M1.26807 71.4072C1.26807 71.4072 6.72613 73.8393 20.2038 73.8393C33.6815 73.8393 38.3163 71.4072 38.3163 71.4072" stroke="black"/>
<path d="M1.33691 257.488C1.33691 257.488 5.52821 254.738 20.1976 254.738C34.8671 254.738 38.2725 257.488 38.2725 257.488" stroke="black"/>
</svg>
